<svg width="56" height="56" viewBox="0 0 56 56" fill="none" xmlns="http://www.w3.org/2000/svg">
<g clip-path="url(#clip0_5502_68249)">
<rect width="56" height="56" rx="28" fill="#F5F4FF"/>
<path opacity="0.5" d="M18 32C18 24.4575 18 20.6863 20.3431 18.3431C22.6863 16 26.4575 16 34 16H38C45.5425 16 49.3137 16 51.6569 18.3431C54 20.6863 54 24.4575 54 32V40C54 47.5425 54 51.3137 51.6569 53.6569C49.3137 56 45.5425 56 38 56H34C26.4575 56 22.6863 56 20.3431 53.6569C18 51.3137 18 47.5425 18 40V32Z" fill="#635AFF"/>
<path d="M45.0378 45.0026C45.3878 44.7296 45.7052 44.4122 46.3401 43.7773L54.2549 35.8625C54.4463 35.6711 54.3587 35.3416 54.103 35.2529C53.1688 34.9287 51.9535 34.3202 50.8166 33.1834C49.6798 32.0465 49.0713 30.8312 48.7471 29.897C48.6584 29.6413 48.3289 29.5537 48.1375 29.7451L40.2227 37.6599C39.5878 38.2948 39.2704 38.6122 38.9974 38.9622C38.6753 39.3751 38.3992 39.8218 38.174 40.2945C37.983 40.6952 37.841 41.1211 37.5571 41.9729L37.1902 43.0735L36.6069 44.8236L36.0599 46.4646C35.9202 46.8837 36.0293 47.3459 36.3417 47.6583C36.6541 47.9707 37.1163 48.0798 37.5354 47.9401L39.1764 47.3931L40.9265 46.8098L42.0271 46.4429L42.0272 46.4429C42.8789 46.1589 43.3048 46.017 43.7055 45.826C44.1782 45.6007 44.6249 45.3246 45.0378 45.0026Z" fill="#635AFF"/>
<path d="M56.733 33.3844C58.4223 31.6951 58.4223 28.9562 56.733 27.267C55.0438 25.5777 52.3049 25.5777 50.6156 27.267L50.3612 27.5214C50.3304 27.5522 50.315 27.5676 50.293 27.5927C50.1208 27.7896 50.0229 28.1018 50.0519 28.3618C50.0555 28.3949 50.0589 28.4138 50.0657 28.4517L50.0657 28.4517C50.1043 28.6667 50.1759 28.9811 50.306 29.3561C50.5662 30.1063 51.0577 31.091 51.9834 32.0166C52.909 32.9423 53.8937 33.4338 54.6439 33.694C55.0189 33.8241 55.3333 33.8957 55.5483 33.9343C55.5861 33.9411 55.6051 33.9445 55.6382 33.9481C55.8982 33.9771 56.2104 33.8792 56.4073 33.707C56.4324 33.685 56.4478 33.6696 56.4786 33.6388L56.733 33.3844Z" fill="#635AFF"/>
<path fill-rule="evenodd" clip-rule="evenodd" d="M26.5 30C26.5 29.1716 27.1716 28.5 28 28.5H41C41.8284 28.5 42.5 29.1716 42.5 30C42.5 30.8284 41.8284 31.5 41 31.5H28C27.1716 31.5 26.5 30.8284 26.5 30ZM26.5 38C26.5 37.1716 27.1716 36.5 28 36.5H34C34.8284 36.5 35.5 37.1716 35.5 38C35.5 38.8284 34.8284 39.5 34 39.5H28C27.1716 39.5 26.5 38.8284 26.5 38ZM26.5 46C26.5 45.1716 27.1716 44.5 28 44.5H31C31.8284 44.5 32.5 45.1716 32.5 46C32.5 46.8284 31.8284 47.5 31 47.5H28C27.1716 47.5 26.5 46.8284 26.5 46Z" fill="#635AFF"/>
</g>
<defs>
<clipPath id="clip0_5502_68249">
<rect width="56" height="56" rx="28" fill="white"/>
</clipPath>
</defs>
</svg>
