<svg width="56" height="56" viewBox="0 0 56 56" fill="none" xmlns="http://www.w3.org/2000/svg">
<g clip-path="url(#clip0_5502_68247)">
<rect width="56" height="56" rx="28" fill="#FFF7E8"/>
<path d="M26.852 48H52C51.9929 49.8592 51.9568 51.2456 51.7732 52.3411C51.5546 53.6456 51.1549 54.3364 50.5417 54.8284C49.9286 55.3205 49.0678 55.6412 47.4421 55.8166C45.7687 55.9972 43.5509 56 40.3708 56H31.5092C28.3292 56 26.1113 55.9972 24.4379 55.8166C22.8123 55.6412 21.9515 55.3205 21.3383 54.8284C20.7252 54.3364 20.3254 53.6456 20.1069 52.3411C20.0904 52.2431 20.0752 52.1428 20.0611 52.0401C19.9809 51.4575 19.9408 51.1663 20.1939 50.4795C20.447 49.7927 20.5567 49.6849 20.7762 49.4694C21.427 48.8302 22.3196 48.3571 23.3464 48.1363C23.927 48.0115 24.6847 48 26.852 48Z" fill="#FFA803"/>
<path opacity="0.5" d="M21.4544 17.4666C22.0652 16.8507 22.9227 16.4491 24.5421 16.2296C26.209 16.0035 28.4184 16 31.5862 16H40.4138C43.5816 16 45.791 16.0035 47.4579 16.2296C49.0773 16.4491 49.9348 16.8507 50.5456 17.4666C51.1564 18.0826 51.5546 18.9474 51.7724 20.5804C51.9965 22.2615 52 24.4895 52 27.684L52 48H26.852C24.6847 48 23.927 48.0115 23.3464 48.1363C22.3196 48.3571 21.427 48.8302 20.7762 49.4694C20.5567 49.6849 20.447 49.7927 20.1939 50.4795C20.0487 50.8735 20 51.1373 20 51.4007V27.684C20 24.4895 20.0035 22.2615 20.2276 20.5804C20.4454 18.9474 20.8436 18.0826 21.4544 17.4666Z" fill="#FFA803"/>
<path d="M26.5 26C26.5 25.1716 27.1716 24.5 28 24.5H44C44.8284 24.5 45.5 25.1716 45.5 26C45.5 26.8284 44.8284 27.5 44 27.5H28C27.1716 27.5 26.5 26.8284 26.5 26Z" fill="#FFA803"/>
<path d="M28 31.5C27.1716 31.5 26.5 32.1716 26.5 33C26.5 33.8284 27.1716 34.5 28 34.5H38C38.8284 34.5 39.5 33.8284 39.5 33C39.5 32.1716 38.8284 31.5 38 31.5H28Z" fill="#FFA803"/>
</g>
<defs>
<clipPath id="clip0_5502_68247">
<rect width="56" height="56" rx="28" fill="white"/>
</clipPath>
</defs>
</svg>
