<svg width="56" height="56" viewBox="0 0 56 56" fill="none" xmlns="http://www.w3.org/2000/svg">
<g clip-path="url(#clip0_5502_68240)">
<rect width="56" height="56" rx="28" fill="#EDF8FC"/>
<path opacity="0.5" d="M36 22.4259C35.3315 22.299 33.8852 22.1033 32.5645 21.7489C29.8762 21.0275 28.0984 19.5266 26 18.9729C24.227 18.505 21.9175 18.2678 19.9648 18.1478C17.7726 18.0131 16 19.7973 16 21.9936V44.2852C16 46.5071 17.8121 48.3049 20.0297 48.4436C21.9686 48.5649 24.2466 48.802 26 49.2647C26.9719 49.5212 28.4323 50.1271 29.7459 50.7165C31.755 51.6181 33.8495 52.3093 36 52.7832V22.4259Z" fill="#11A5ED"/>
<path d="M56 44.2891V21.8683C56 19.7234 54.3075 17.9628 52.1639 18.0374C49.9068 18.1161 47.0938 18.35 45 18.9768C43.1847 19.5203 41.0706 20.6103 39.3477 21.6075C38.3174 22.2037 37.1619 22.5202 36 22.5508V52.9503C37.1212 52.9503 38.2424 52.6803 39.2552 52.1404C41.2541 51.0749 43.8371 49.8394 46 49.2687C47.7534 48.806 50.0314 48.5689 51.9703 48.4476C54.1879 48.3089 56 46.5111 56 44.2891Z" fill="#11A5ED"/>
<path d="M20.5451 37.6365C20.7461 36.8329 21.5605 36.3442 22.3642 36.5451L30.3642 38.5451C31.1679 38.7461 31.6565 39.5605 31.4556 40.3642C31.2546 41.1678 30.4402 41.6565 29.6366 41.4556L21.6366 39.4556C20.8329 39.2546 20.3442 38.4402 20.5451 37.6365Z" fill="#11A5ED"/>
<path d="M22.3642 28.5451C21.5605 28.3442 20.7461 28.8329 20.5451 29.6366C20.3442 30.4402 20.8329 31.2546 21.6366 31.4556L29.6366 33.4556C30.4402 33.6565 31.2546 33.1679 31.4556 32.3642C31.6565 31.5605 31.1679 30.7461 30.3642 30.5451L22.3642 28.5451Z" fill="#11A5ED"/>
</g>
<defs>
<clipPath id="clip0_5502_68240">
<rect width="56" height="56" rx="28" fill="white"/>
</clipPath>
</defs>
</svg>
