<svg width="56" height="56" viewBox="0 0 56 56" fill="none" xmlns="http://www.w3.org/2000/svg">
<g clip-path="url(#clip0_5502_68251)">
<rect width="56" height="56" rx="28" fill="#EEFFE7"/>
<path opacity="0.5" d="M18 28C18 22.3431 18 19.5147 19.7574 17.7574C21.5147 16 24.3431 16 30 16H42C47.6569 16 50.4853 16 52.2426 17.7574C54 19.5147 54 22.3431 54 28V44C54 49.6569 54 52.4853 52.2426 54.2426C50.4853 56 47.6569 56 42 56H30C24.3431 56 21.5147 56 19.7574 54.2426C18 52.4853 18 49.6569 18 44V28Z" fill="#63BA3D"/>
<path fill-rule="evenodd" clip-rule="evenodd" d="M29.5 16.0234V56.0212H26.5V16.0234H29.5Z" fill="#63BA3D"/>
<path fill-rule="evenodd" clip-rule="evenodd" d="M14.5 28C14.5 27.1716 15.1716 26.5 16 26.5H20C20.8284 26.5 21.5 27.1716 21.5 28C21.5 28.8284 20.8284 29.5 20 29.5H16C15.1716 29.5 14.5 28.8284 14.5 28ZM14.5 36C14.5 35.1716 15.1716 34.5 16 34.5H20C20.8284 34.5 21.5 35.1716 21.5 36C21.5 36.8284 20.8284 37.5 20 37.5H16C15.1716 37.5 14.5 36.8284 14.5 36ZM14.5 44C14.5 43.1716 15.1716 42.5 16 42.5H20C20.8284 42.5 21.5 43.1716 21.5 44C21.5 44.8284 20.8284 45.5 20 45.5H16C15.1716 45.5 14.5 44.8284 14.5 44Z" fill="#63BA3D"/>
<path d="M33.5 25C33.5 24.1716 34.1716 23.5 35 23.5H45C45.8284 23.5 46.5 24.1716 46.5 25C46.5 25.8284 45.8284 26.5 45 26.5H35C34.1716 26.5 33.5 25.8284 33.5 25Z" fill="#63BA3D"/>
<path d="M33.5 32C33.5 31.1716 34.1716 30.5 35 30.5H45C45.8284 30.5 46.5 31.1716 46.5 32C46.5 32.8284 45.8284 33.5 45 33.5H35C34.1716 33.5 33.5 32.8284 33.5 32Z" fill="#63BA3D"/>
</g>
<defs>
<clipPath id="clip0_5502_68251">
<rect width="56" height="56" rx="28" fill="white"/>
</clipPath>
</defs>
</svg>
