<svg width="56" height="56" viewBox="0 0 56 56" fill="none" xmlns="http://www.w3.org/2000/svg">
<g clip-path="url(#clip0_5502_68269)">
<rect width="56" height="56" rx="28" fill="#F5F4FF"/>
<path opacity="0.5" d="M54 42.9965V30.9965C54 25.3397 54 22.5112 52.2426 20.7539C50.7059 19.2171 48.3501 19.0242 44 19H28C23.6499 19.0242 21.2941 19.2171 19.7574 20.7539C18 22.5112 18 25.3397 18 30.9965V42.9965C18 48.6534 18 51.4818 19.7574 53.2392C21.5147 54.9965 24.3431 54.9965 30 54.9965H42C47.6569 54.9965 50.4853 54.9965 52.2426 53.2392C54 51.4818 54 48.6534 54 42.9965Z" fill="#635AFF"/>
<path d="M28 18C28 16.3431 29.3431 15 31 15H41C42.6569 15 44 16.3431 44 18V20C44 21.6569 42.6569 23 41 23H31C29.3431 23 28 21.6569 28 20V18Z" fill="#635AFF"/>
<path fill-rule="evenodd" clip-rule="evenodd" d="M24.5 32C24.5 31.1716 25.1716 30.5 26 30.5H27C27.8284 30.5 28.5 31.1716 28.5 32C28.5 32.8284 27.8284 33.5 27 33.5H26C25.1716 33.5 24.5 32.8284 24.5 32ZM31.5 32C31.5 31.1716 32.1716 30.5 33 30.5H46C46.8284 30.5 47.5 31.1716 47.5 32C47.5 32.8284 46.8284 33.5 46 33.5H33C32.1716 33.5 31.5 32.8284 31.5 32ZM24.5 39C24.5 38.1716 25.1716 37.5 26 37.5H27C27.8284 37.5 28.5 38.1716 28.5 39C28.5 39.8284 27.8284 40.5 27 40.5H26C25.1716 40.5 24.5 39.8284 24.5 39ZM31.5 39C31.5 38.1716 32.1716 37.5 33 37.5H46C46.8284 37.5 47.5 38.1716 47.5 39C47.5 39.8284 46.8284 40.5 46 40.5H33C32.1716 40.5 31.5 39.8284 31.5 39ZM24.5 46C24.5 45.1716 25.1716 44.5 26 44.5H27C27.8284 44.5 28.5 45.1716 28.5 46C28.5 46.8284 27.8284 47.5 27 47.5H26C25.1716 47.5 24.5 46.8284 24.5 46ZM31.5 46C31.5 45.1716 32.1716 44.5 33 44.5H46C46.8284 44.5 47.5 45.1716 47.5 46C47.5 46.8284 46.8284 47.5 46 47.5H33C32.1716 47.5 31.5 46.8284 31.5 46Z" fill="#635AFF"/>
</g>
<defs>
<clipPath id="clip0_5502_68269">
<rect width="56" height="56" rx="28" fill="white"/>
</clipPath>
</defs>
</svg>
