<svg width="502" height="112" viewBox="0 0 502 112" fill="none" xmlns="http://www.w3.org/2000/svg">
<path fill-rule="evenodd" clip-rule="evenodd" d="M70.308 41.3291L61.1766 48.9909L51.7858 56.8709V53.2491V41.3291L2.58008 82.6182H16.7852L42.655 60.9109V64.5327V75.313L42.6514 76.4553L42.655 76.4527L50.9495 69.4928L51.7858 68.7909L61.1766 60.9109V68.0083V75.313H70.308H72.7431H73.0056H78.833C84.6051 75.313 88.9263 74.2673 91.7966 72.1868C94.6664 70.1063 96.1069 66.9694 96.1069 62.7764C96.1069 59.9061 95.36 57.5268 93.8554 55.6386C92.3621 53.7499 90.0785 52.3311 87.0273 51.3707C88.9155 50.5168 90.3669 49.3646 91.3588 47.9029C92.3512 46.4411 92.8418 44.3456 92.8418 42.4146C92.8418 38.7017 91.379 36.3075 88.4461 34.4167C85.5211 32.5306 81.1802 31.5894 75.4293 31.5894H72.7431H43.1083L34.3408 38.894H72.7431H73.016H75.9628C78.9018 38.894 79.2398 39.122 80.2131 39.9407C81.1921 40.7652 81.9447 42.3029 81.9447 43.989C81.9447 45.5149 81.555 46.8862 80.6401 47.7003C79.2941 48.8969 78.6816 49.0835 76.8084 49.0835H72.7431V56.3886H76.5815C79.5334 56.3886 80.5548 56.4605 82.228 57.6638C83.4969 58.5761 84.4516 60.5372 84.4516 62.4145C84.4516 63.9373 83.8799 65.3045 82.5272 66.5026C80.6706 68.1473 79.4838 68.0083 76.6456 68.0083H73.0056H72.7431H70.308V53.2491V41.3291Z" fill="url(#paint0_radial_17103_43561)"/>
<path d="M9.89565 63.1573C9.98249 63.6442 9.98921 64.1223 9.91581 64.5906C9.84241 65.0595 9.67391 65.49 9.41029 65.8829C9.14668 66.2752 8.77555 66.6163 8.29743 66.9058C7.81879 67.1958 7.21455 67.4056 6.48367 67.5359L6.25572 67.5767C5.55534 67.7018 4.93817 67.7101 4.40475 67.601C3.8708 67.4925 3.41387 67.2991 3.03447 67.0211C2.65508 66.7435 2.35218 66.3972 2.12475 65.9821C1.89732 65.567 1.74018 65.1163 1.65335 64.6294C1.56651 64.142 1.55772 63.6649 1.62699 63.1966C1.69677 62.7288 1.86165 62.2988 2.12113 61.907C2.38113 61.5152 2.74243 61.1756 3.20556 60.8887C3.6687 60.6018 4.25071 60.3961 4.95058 60.271L5.17904 60.2302C5.90992 60.0994 6.54932 60.0875 7.09877 60.1935C7.6477 60.2994 8.11394 60.4912 8.49695 60.7683C8.88048 61.0453 9.18751 61.3911 9.41856 61.8051C9.64961 62.2197 9.80882 62.6704 9.89565 63.1573ZM8.68562 63.3734C8.63496 63.0917 8.53675 62.8265 8.39047 62.5779C8.24368 62.3292 8.04002 62.122 7.77848 61.9566C7.51745 61.7912 7.19284 61.6785 6.80518 61.618C6.41751 61.5581 5.9611 61.5746 5.43594 61.6681L5.20747 61.709C4.70557 61.7989 4.29206 61.9375 3.96849 62.1251C3.6444 62.3122 3.39268 62.5283 3.21228 62.7722C3.03189 63.0167 2.91662 63.2808 2.86493 63.5646C2.81376 63.8489 2.81325 64.1316 2.86338 64.4133C2.91507 64.7023 3.01431 64.9716 3.16059 65.2202C3.30739 65.4688 3.50743 65.6766 3.7607 65.8431C4.01449 66.01 4.32514 66.1232 4.69317 66.1832C5.06119 66.2431 5.49641 66.2281 5.99883 66.1387L6.22678 66.0979C6.75194 66.0038 7.18664 65.8637 7.52985 65.6766C7.87358 65.4895 8.13926 65.2734 8.32741 65.0279C8.51504 64.7819 8.63444 64.5172 8.68613 64.2335C8.7373 63.9492 8.73731 63.6623 8.68562 63.3734ZM2.9342 57.6886L4.39492 57.6519L4.43317 59.1587L2.97245 59.1959L1.14318 57.9662L1.1256 57.2705L2.9342 57.6886ZM7.99815 55.9214L2.5243 51.1324L2.2028 55.3642L1 55.2732L1.44814 49.376L2.53516 49.4582L8.00953 54.2477L8.3486 49.7844L9.5514 49.8753L9.08517 56.0041L7.99815 55.9214ZM1.82289 46.545L2.55273 43.3811C2.76001 42.4849 3.10374 41.8718 3.58444 41.5426C4.06463 41.2128 4.62546 41.1223 5.26588 41.2702C5.67216 41.3637 5.99625 41.5498 6.23763 41.8279C6.47902 42.1055 6.62116 42.4435 6.66407 42.8425C6.87754 42.3996 7.17578 42.0781 7.55932 41.877C7.94285 41.6759 8.39099 41.6341 8.90323 41.7524C9.23455 41.8289 9.52556 41.9519 9.77625 42.1205C10.0269 42.2895 10.2244 42.5076 10.3691 42.7754C10.5138 43.0426 10.6007 43.362 10.6296 43.7337C10.6591 44.1053 10.6172 44.5364 10.504 45.0259L9.73232 48.3707L1.82289 46.545ZM9.29503 44.9018C9.43097 44.3141 9.42994 43.8872 9.29296 43.6215C9.15598 43.3558 8.89134 43.178 8.50005 43.0876C8.31139 43.0441 8.13616 43.0312 7.97334 43.0493C7.81052 43.0674 7.66424 43.1248 7.53451 43.2219C7.40528 43.3191 7.29105 43.4613 7.19233 43.6484C7.09308 43.836 7.00986 44.0769 6.94215 44.3705L6.51985 46.2008L8.87015 46.7435L9.29503 44.9018ZM5.81327 44.3121C5.93474 43.7848 5.92181 43.3951 5.77347 43.1429C5.62564 42.8901 5.3858 42.7257 5.05447 42.6492C4.7154 42.5712 4.43421 42.613 4.20988 42.7759C3.98607 42.9382 3.81239 43.2871 3.68885 43.8221L3.31101 45.4601L5.4349 45.9506L5.81327 44.3121ZM4.12563 37.8112L6.12495 32.741L7.2466 33.1835L5.75796 36.9593L7.74281 37.7419L9.1043 34.2896L10.2259 34.732L8.86498 38.1844L11.0659 39.0517L12.5545 35.2763L13.6767 35.7183L11.6774 40.789L4.12563 37.8112ZM7.46369 30.1958L8.15736 28.9894L11.5151 30.9205L9.86826 26.0142L10.701 24.5664L12.0614 28.8535L17.8537 28.4115L17.0096 29.879L12.4336 30.1374L12.9329 31.7351L15.1948 33.0356L14.5011 34.242L7.46369 30.1958ZM12.5483 22.366L13.4079 21.2718L19.7905 26.2876L18.9309 27.3814L12.5483 22.366ZM23.1931 22.7356C22.8127 23.0984 22.4426 23.3708 22.0823 23.5538C21.7226 23.7368 21.3773 23.8417 21.0455 23.8696C20.7141 23.897 20.4009 23.8567 20.1052 23.7487C19.8101 23.6407 19.5336 23.4737 19.2767 23.2489L20.2836 22.289C20.418 22.3851 20.557 22.4554 20.7012 22.4999C20.8449 22.5443 21.002 22.5547 21.1721 22.5314C21.3422 22.5082 21.5225 22.4425 21.7138 22.335C21.905 22.2275 22.1154 22.0647 22.3449 21.846C22.5796 21.6217 22.76 21.4103 22.8851 21.2108C23.0101 21.0112 23.0908 20.8272 23.1275 20.6587C23.1647 20.4902 23.16 20.3341 23.114 20.1909C23.0686 20.0478 22.9921 19.9201 22.8856 19.8079C22.624 19.534 22.2994 19.4482 21.9112 19.551C21.5236 19.6539 21.0077 19.9056 20.3637 20.3057C19.9977 20.5269 19.653 20.7032 19.3299 20.8345C19.0068 20.9663 18.7019 21.0386 18.4145 21.051C18.1271 21.0629 17.8506 21.0112 17.5854 20.8955C17.3202 20.7802 17.0597 20.5879 16.8039 20.3191C16.5956 20.101 16.4446 19.8498 16.35 19.566C16.2554 19.2823 16.2286 18.9819 16.2689 18.6661C16.3092 18.3498 16.4224 18.0231 16.608 17.6856C16.794 17.3486 17.0628 17.0116 17.4153 16.6756C17.757 16.3499 18.0935 16.1039 18.4253 15.9369C18.7577 15.77 19.0797 15.6739 19.3919 15.6485C19.7046 15.6232 20.0029 15.6614 20.2877 15.7638C20.572 15.8667 20.8377 16.0248 21.0842 16.2383L20.0768 17.1987C19.8292 17.0286 19.5522 16.9645 19.2451 17.0064C18.9376 17.0483 18.6104 17.2343 18.2636 17.5651C17.8609 17.9492 17.6381 18.2955 17.5952 18.6036C17.5523 18.9111 17.6242 19.1634 17.8108 19.3588C18.0666 19.6275 18.3711 19.7221 18.7226 19.643C19.0746 19.564 19.5279 19.3505 20.083 19.0031C20.4939 18.7504 20.8744 18.5478 21.2253 18.3948C21.5763 18.2418 21.9066 18.1539 22.2162 18.1311C22.5253 18.1084 22.8168 18.1539 23.0903 18.2671C23.3637 18.3803 23.6315 18.5736 23.8925 18.8481C24.122 19.0884 24.2879 19.3577 24.3902 19.6554C24.4926 19.9532 24.5189 20.2695 24.4698 20.6045C24.4213 20.9399 24.2926 21.2867 24.0842 21.6455C23.8759 22.0042 23.5792 22.3676 23.1931 22.7356ZM23.8232 12.9007L21.6021 14.4798L20.9033 13.4972L26.4795 9.53218L27.1783 10.5148L24.9573 12.0944L28.9626 17.7269L27.8286 18.5333L23.8232 12.9007ZM34.6613 14.4008C34.2209 14.6266 33.7661 14.7729 33.2962 14.8396C32.8269 14.9063 32.3658 14.8711 31.913 14.7336C31.4608 14.5961 31.0261 14.3413 30.6089 13.9681C30.1923 13.5954 29.8145 13.0786 29.4764 12.418L29.3705 12.2117C29.0464 11.5785 28.8582 10.9908 28.8065 10.4486C28.7543 9.90641 28.806 9.4133 28.9606 8.96929C29.1151 8.52528 29.3581 8.13348 29.6884 7.79492C30.0186 7.45636 30.4037 7.17465 30.8446 6.94877C31.2845 6.72341 31.7388 6.57558 32.2066 6.50528C32.6744 6.43499 33.1339 6.46703 33.5847 6.60091C34.0354 6.73478 34.4654 6.98134 34.8753 7.34006C35.2852 7.6993 35.6522 8.19551 35.9763 8.82818L36.0823 9.03494C36.4203 9.69552 36.6188 10.3039 36.6782 10.8601C36.7372 11.4157 36.6901 11.9176 36.5371 12.3652C36.3841 12.8129 36.1433 13.2078 35.8145 13.5494C35.4863 13.8916 35.1017 14.1754 34.6613 14.4008ZM34.101 13.307C34.3553 13.1762 34.5802 13.0046 34.775 12.7922C34.9704 12.5792 35.1084 12.3239 35.1906 12.0257C35.2723 11.7274 35.2852 11.3842 35.2299 10.996C35.1741 10.6073 35.0247 10.1757 34.7818 9.70121L34.6758 9.49445C34.4432 9.04062 34.1899 8.68604 33.916 8.43121C33.642 8.17587 33.3619 7.99806 33.076 7.89726C32.7897 7.79595 32.5033 7.76287 32.2165 7.79647C31.9301 7.83059 31.6592 7.91277 31.4049 8.04303C31.1434 8.1769 30.9149 8.35058 30.7201 8.56302C30.5252 8.77598 30.3846 9.0277 30.2993 9.31922C30.214 9.61023 30.1965 9.94104 30.2471 10.3101C30.2972 10.6797 30.4384 11.0916 30.671 11.5455L30.7769 11.7522C31.0199 12.2267 31.2814 12.6015 31.5605 12.8749C31.8396 13.1489 32.1244 13.3401 32.4139 13.4476C32.7039 13.5556 32.9918 13.5923 33.2787 13.5587C33.565 13.5246 33.8395 13.4409 34.101 13.307ZM36.9827 4.20616L38.277 3.83865L43.6981 8.32628L42.1144 2.74905L43.4526 2.36862L45.67 10.1773L44.3763 10.5448L38.9551 6.05714L40.5389 11.6349L39.2001 12.0148L36.9827 4.20616ZM50.9873 1.0795L54.0591 1.00197C54.5693 0.989048 55.0169 1.0397 55.4025 1.15342C55.7886 1.26765 56.1117 1.43357 56.3722 1.65118C56.6332 1.86879 56.8333 2.13034 56.9723 2.43634C57.1114 2.74233 57.1858 3.08038 57.1951 3.45151C57.2091 4.00768 57.0705 4.49304 56.7795 4.90603C56.4885 5.31954 56.0435 5.62295 55.4454 5.81575L57.5683 9.03339L56.0378 9.07215L54.1625 6.01062L52.5048 6.05249L52.5834 9.15951L51.1925 9.19465L50.9873 1.0795ZM53.9247 4.85641C54.6355 4.83883 55.1291 4.71013 55.4056 4.47133C55.6816 4.23201 55.8145 3.90378 55.8041 3.48665C55.7933 3.06952 55.6439 2.74802 55.356 2.52369C55.0681 2.29884 54.5688 2.19547 53.8575 2.21356L52.4087 2.25026L52.4754 4.89311L53.9247 4.85641ZM60.5306 1.08571L65.9372 1.77317L65.7853 2.96925L61.7592 2.45753L61.4899 4.57419L65.1712 5.04197L65.0192 6.23857L61.338 5.77078L61.0397 8.11746L65.0663 8.62918L64.9143 9.82578L59.5071 9.13831L60.5306 1.08571ZM69.1487 11.0622C68.6431 10.9185 68.2203 10.7381 67.8802 10.521C67.5396 10.3039 67.2734 10.0594 67.0816 9.78804C66.8893 9.51668 66.7648 9.22618 66.7084 8.91657C66.6516 8.60695 66.6547 8.28441 66.7177 7.94895L68.0565 8.32887C68.042 8.49375 68.0518 8.64934 68.0865 8.79562C68.1216 8.94241 68.1919 9.08301 68.2984 9.2174C68.4049 9.35231 68.5527 9.47429 68.7424 9.58491C68.9326 9.695 69.1797 9.79321 69.4846 9.87953C69.7968 9.96844 70.0708 10.016 70.306 10.0227C70.5412 10.0289 70.7407 10.0056 70.9045 9.95138C71.0689 9.89762 71.2007 9.8144 71.301 9.70224C71.4013 9.59007 71.4726 9.45982 71.5145 9.31095C71.6178 8.94655 71.5269 8.62349 71.2415 8.34127C70.9557 8.05957 70.4771 7.74271 69.8056 7.39123C69.4293 7.18809 69.1021 6.9803 68.8251 6.7689C68.5475 6.55749 68.3304 6.33109 68.1738 6.09022C68.0172 5.84883 67.9216 5.58419 67.8864 5.29731C67.8518 5.00992 67.8849 4.6879 67.9862 4.33073C68.0684 4.04076 68.2079 3.78335 68.4049 3.55798C68.6013 3.3321 68.8463 3.15688 69.1388 3.03076C69.4319 2.90515 69.771 2.83641 70.1556 2.82555C70.5406 2.81418 70.9676 2.87517 71.4359 3.00801C71.8897 3.13672 72.2727 3.30212 72.5849 3.50319C72.8977 3.70426 73.1442 3.93325 73.3246 4.18911C73.505 4.44548 73.6234 4.72202 73.6797 5.01923C73.7355 5.31644 73.7345 5.62554 73.6756 5.94653L72.3368 5.56661C72.3575 5.26682 72.2717 4.99545 72.0799 4.752C71.8877 4.50854 71.5615 4.32143 71.0999 4.19066C70.5649 4.03869 70.1535 4.02215 69.8661 4.14155C69.5792 4.26095 69.3988 4.45065 69.3249 4.71116C69.2236 5.06833 69.296 5.37795 69.543 5.64105C69.7896 5.90414 70.2041 6.18636 70.7851 6.48771C71.2116 6.71359 71.5796 6.93844 71.8892 7.16328C72.1993 7.38761 72.4428 7.62745 72.6196 7.88279C72.7958 8.13762 72.9049 8.41209 72.9462 8.70516C72.9876 8.99824 72.9566 9.32698 72.8532 9.69087C72.7622 10.0108 72.6149 10.2905 72.4102 10.5298C72.2055 10.7691 71.9466 10.9526 71.6328 11.0803C71.3191 11.2085 70.9552 11.2736 70.5406 11.2767C70.1261 11.2793 69.6619 11.2079 69.1487 11.0622ZM77.0834 5.09056L79.778 6.30887C80.7714 6.75804 81.4077 7.30233 81.6868 7.94172C81.9665 8.58111 81.9437 9.2603 81.6186 9.97877C81.294 10.6973 80.7993 11.163 80.1346 11.3759C79.4699 11.5889 78.6408 11.4705 77.6473 11.0213L76.2212 10.3768L75.0076 13.0605L73.7397 12.4872L77.0834 5.09056ZM78.0386 9.87488C78.37 10.0248 78.6599 10.124 78.9091 10.1731C79.1587 10.2222 79.3732 10.2258 79.5531 10.184C79.7335 10.1426 79.8875 10.0553 80.0152 9.92243C80.1434 9.78908 80.255 9.61695 80.3507 9.40554C80.4463 9.19414 80.5011 8.99824 80.5145 8.81784C80.5285 8.63745 80.4923 8.46429 80.406 8.29785C80.3202 8.13193 80.176 7.97118 79.9744 7.81663C79.7733 7.66208 79.5066 7.5096 79.1758 7.36022L77.8546 6.76269L76.718 9.27787L78.0386 9.87488ZM83.1326 17.8303C82.7232 17.5388 82.3919 17.2178 82.1386 16.8668C81.8853 16.5164 81.7225 16.1442 81.6506 15.7519C81.5788 15.3591 81.6021 14.9466 81.7204 14.5134C81.8383 14.0803 82.0631 13.6311 82.395 13.1649L85.2172 9.19569L86.3517 10.002L83.5761 13.9051C83.1326 14.5289 82.9387 15.081 82.9951 15.5622C83.0514 16.0434 83.3347 16.4657 83.8448 16.8286C84.3617 17.1956 84.8548 17.3258 85.3247 17.2188C85.7945 17.1118 86.2489 16.7495 86.6877 16.1323L89.4701 12.2195L90.6042 13.0263L87.7815 16.9955C87.4501 17.4618 87.0992 17.8215 86.7291 18.0753C86.359 18.3291 85.9765 18.4862 85.5821 18.5478C85.1877 18.6087 84.7835 18.5772 84.369 18.4532C83.9544 18.3291 83.5419 18.1213 83.1326 17.8303ZM92.6604 14.8551L95.0107 17.0958C95.6764 17.7306 96.0284 18.3389 96.0672 18.9204C96.1054 19.5019 95.8982 20.0302 95.4443 20.5057C95.1564 20.8081 94.8313 20.9921 94.4695 21.0583C94.1071 21.1244 93.7438 21.0743 93.3788 20.9079C93.6512 21.3167 93.7758 21.738 93.7536 22.1701C93.7308 22.6027 93.5386 23.009 93.1757 23.39C92.941 23.636 92.6872 23.8236 92.4138 23.9534C92.1409 24.0831 91.8525 24.1415 91.5485 24.1296C91.2451 24.1177 90.9257 24.0299 90.5907 23.8655C90.2563 23.7016 89.9069 23.4458 89.5435 23.099L87.0588 20.7306L92.6604 14.8551ZM90.2667 22.122C90.7029 22.5381 91.0704 22.7552 91.3687 22.7728C91.6674 22.7899 91.9553 22.6534 92.2324 22.3624C92.3657 22.2223 92.4665 22.0781 92.5337 21.9287C92.6014 21.7793 92.6263 21.6243 92.6087 21.4635C92.5911 21.3028 92.527 21.1317 92.4164 20.9513C92.3053 20.7709 92.1409 20.5765 91.9223 20.3682L90.5628 19.0719L88.8985 20.8179L90.2667 22.122ZM92.5482 19.4265C92.9395 19.8002 93.2817 19.9873 93.5742 19.9888C93.8668 19.9899 94.1304 19.8674 94.3651 19.6213C94.6054 19.3696 94.7124 19.106 94.6871 18.8305C94.6612 18.5545 94.4498 18.2273 94.0523 17.8489L92.8356 16.6885L91.3309 18.2666L92.5482 19.4265ZM99.2135 21.7214L100.02 22.8555L94.3873 26.8609L96.6725 30.0738L95.6893 30.7732L92.5983 26.4257L99.2135 21.7214ZM103.548 28.182L104.242 29.3885L97.2043 33.4347L96.5112 32.2282L103.548 28.182ZM105.743 31.9739L106.253 33.2682L102.65 34.6891L107.512 36.4616L108.125 38.0153L103.925 36.4052L100.658 41.2081L100.037 39.6332L102.689 35.895L101.129 35.2887L98.7012 36.246L98.1911 34.9512L105.743 31.9739ZM103.933 46.7011L103.192 43.4918L101.253 43.2375L100.94 41.8811L109.54 43.0503L109.854 44.4061L102.635 49.2261L102.301 47.7799L103.933 46.7011ZM104.469 43.6613L105.006 45.9889L107.994 44.0851L104.469 43.6613ZM102.711 52.7668C102.67 52.2427 102.694 51.7837 102.78 51.3893C102.866 50.9949 103.004 50.661 103.192 50.3871C103.381 50.1126 103.611 49.8955 103.882 49.7353C104.152 49.5755 104.456 49.467 104.793 49.4101L104.898 50.798C104.739 50.8409 104.596 50.9039 104.471 50.9872C104.345 51.0704 104.238 51.1856 104.148 51.3319C104.058 51.4782 103.995 51.6596 103.957 51.8752C103.919 52.0918 103.912 52.3574 103.936 52.6738C103.961 52.9973 104.011 53.2708 104.086 53.4941C104.161 53.7169 104.252 53.8962 104.359 54.0311C104.467 54.1665 104.59 54.2617 104.73 54.317C104.87 54.3723 105.017 54.394 105.171 54.3826C105.548 54.3537 105.82 54.1567 105.987 53.7913C106.153 53.4258 106.285 52.8671 106.383 52.1155C106.444 51.6922 106.525 51.3138 106.628 50.9804C106.73 50.6471 106.868 50.3653 107.04 50.1348C107.213 49.9048 107.428 49.7239 107.685 49.5916C107.943 49.4598 108.256 49.3796 108.627 49.3517C108.927 49.3285 109.217 49.3703 109.496 49.4773C109.776 49.5838 110.025 49.7528 110.244 49.9844C110.464 50.216 110.645 50.5101 110.789 50.8678C110.932 51.2249 111.022 51.6467 111.059 52.1321C111.095 52.6024 111.072 53.019 110.991 53.3819C110.91 53.7442 110.781 54.0549 110.603 54.3128C110.424 54.5702 110.206 54.777 109.946 54.9326C109.687 55.0876 109.396 55.1931 109.075 55.2484L108.969 53.8611C109.258 53.7773 109.483 53.6031 109.645 53.3385C109.807 53.0744 109.87 52.7032 109.833 52.2256C109.791 51.6705 109.664 51.2787 109.453 51.0507C109.242 50.8223 109.002 50.7184 108.732 50.7391C108.362 50.767 108.096 50.9427 107.934 51.2647C107.773 51.5873 107.651 52.0731 107.568 52.7234C107.504 53.201 107.42 53.6243 107.316 53.9924C107.212 54.3609 107.071 54.6721 106.893 54.9259C106.715 55.1802 106.495 55.3771 106.234 55.5172C105.973 55.6567 105.654 55.7415 105.277 55.7699C104.945 55.7953 104.632 55.7534 104.336 55.6438C104.041 55.5342 103.78 55.3549 103.551 55.1047C103.323 54.8545 103.136 54.5351 102.99 54.1469C102.844 53.7587 102.751 53.2987 102.711 52.7668ZM111.036 57.5992L111.001 58.9907L102.886 58.7855L102.921 57.394L111.036 57.5992Z" fill="#E4A216"/>
<path d="M20.1274 86.0323L21.1193 87.0733L19.4208 92.2654L24.6885 90.8166L25.6483 91.8235L19.7734 97.425L18.813 96.4176L22.9259 92.497L18.5499 93.7049L17.9095 93.033L19.3247 88.7201L15.2123 92.6407L14.252 91.6338L20.1274 86.0323ZM27.1597 100.504L24.4755 98.5947L22.8561 99.6915L21.722 98.8847L28.9311 94.0507L30.0651 94.8571L27.8652 103.253L26.6552 102.393L27.1597 100.504ZM25.5434 97.8742L27.49 99.2584L28.4617 95.8511L25.5434 97.8742ZM33.3412 97.0229L36.1412 98.2887C36.6064 98.4986 36.9878 98.7389 37.2855 99.0093C37.5833 99.2796 37.8019 99.5696 37.942 99.8792C38.0821 100.188 38.1487 100.511 38.141 100.847C38.1332 101.183 38.0531 101.52 37.9001 101.858C37.6706 102.365 37.3352 102.742 36.8932 102.987C36.4513 103.233 35.9189 103.312 35.2966 103.226L35.8088 107.047L34.4142 106.416L34.0565 102.844L32.5457 102.161L31.2653 104.993L29.9974 104.42L33.3412 97.0229ZM34.3439 101.701C34.9921 101.994 35.4925 102.093 35.845 101.998C36.198 101.903 36.4601 101.665 36.6322 101.285C36.8043 100.904 36.8095 100.551 36.6477 100.223C36.4859 99.8952 36.0812 99.5851 35.433 99.292L34.1124 98.695L33.0233 101.104L34.3439 101.701ZM40.6159 100.202L41.9546 100.583L40.8965 104.308L45.2565 101.52L46.863 101.976L43.0344 104.337L44.8688 109.848L43.2401 109.386L41.8791 105.009L40.4499 105.881L39.7377 108.391L38.3989 108.011L40.6159 100.202ZM52.2247 108.878L48.9409 108.628L48.12 110.403L46.7322 110.298L50.4119 102.436L51.7993 102.542L54.2483 110.869L52.7684 110.757L52.2247 108.878ZM49.4836 107.46L51.8654 107.641L50.9392 104.221L49.4836 107.46ZM56.1205 109.913L60.0271 103.778L55.7948 104.1L55.7033 102.897L61.6005 102.449L61.6832 103.536L57.7771 109.671L62.2404 109.331L62.3319 110.534L56.2032 111L56.1205 109.913ZM63.6898 102.122L65.0595 101.877L66.4867 109.869L65.1169 110.114L63.6898 102.122ZM70.9262 105.596L66.3621 101.876L67.9215 101.348L71.1609 104.047L71.9419 99.9877L73.3918 99.4972L72.2443 105.15L73.2476 108.116L71.9295 108.562L70.9262 105.596ZM77.0917 97.8478L79.9061 96.2294C80.7037 95.7709 81.387 95.6055 81.9551 95.7332C82.5236 95.8614 82.9718 96.2103 83.2995 96.7799C83.5073 97.1417 83.592 97.5056 83.5528 97.8716C83.5135 98.2375 83.362 98.572 83.0995 98.8744C83.5688 98.7296 84.0076 98.7291 84.416 98.8733C84.8243 99.0175 85.1598 99.3173 85.4218 99.7732C85.5914 100.068 85.6994 100.365 85.7464 100.663C85.7935 100.962 85.7676 101.255 85.6705 101.543C85.5728 101.831 85.3981 102.112 85.1453 102.387C84.8931 102.661 84.5488 102.924 84.1136 103.174L81.1379 104.885L77.0917 97.8478ZM83.3817 102.204C83.9043 101.903 84.2165 101.612 84.3178 101.331C84.4191 101.049 84.3695 100.735 84.1694 100.386C84.0728 100.219 83.9627 100.081 83.8386 99.9743C83.7146 99.8673 83.5729 99.7996 83.4137 99.7706C83.2545 99.7417 83.0726 99.7551 82.8679 99.8099C82.6637 99.8652 82.4306 99.9681 82.1691 100.119L80.5403 101.055L81.7431 103.146L83.3817 102.204ZM81.4433 99.2517C81.9127 98.9819 82.1892 98.7069 82.2735 98.4267C82.3572 98.1466 82.3148 97.8587 82.1448 97.564C81.9716 97.2622 81.7493 97.0849 81.4775 97.0316C81.2061 96.9779 80.8324 97.088 80.3568 97.3614L78.8987 98.1998L79.9857 100.09L81.4433 99.2517ZM90.9686 96.0356L88.379 98.0706L88.9729 99.934L87.8786 100.794L85.2797 92.5125L86.3734 91.6524L93.8058 96.1364L92.6386 97.0534L90.9686 96.0356ZM87.9892 96.843L89.8676 95.3667L86.8738 93.4718L87.9892 96.843ZM89.0597 89.3409L89.9405 88.3241L96.935 89.1052L92.5523 85.3091L93.4636 84.2573L99.5991 89.5719L98.7183 90.5886L91.7237 89.8076L96.1064 93.6042L95.1952 94.6555L89.0597 89.3409ZM94.5651 82.9066L95.2587 81.7002L98.6165 83.6313L96.9696 78.7245L97.8018 77.2772L99.1628 81.5643L104.955 81.1223L104.111 82.5898L99.5344 82.8482L100.034 84.4459L102.296 85.7464L101.602 86.9528L94.5651 82.9066ZM98.6635 75.3761L99.2367 74.1082L106.633 77.4519L106.06 78.7203L98.6635 75.3761Z" fill="#E4A216"/>
<path fill-rule="evenodd" clip-rule="evenodd" d="M105.468 65.4802C107.035 65.4802 108.306 66.7513 108.306 68.319C108.306 69.8867 107.035 71.1578 105.468 71.1578C103.9 71.1578 102.629 69.8867 102.629 68.319C102.629 66.7513 103.9 65.4802 105.468 65.4802Z" fill="#E4A216"/>
<path d="M173.59 79.3623C173.845 83.4814 173.659 83.4814 170.353 83.635C170.046 83.9388 170.046 85.0592 170.353 85.363C172.741 85.314 177.321 85.2617 178.847 85.2617C180.372 85.2617 182.705 85.314 184.39 85.363C184.697 85.0592 184.697 83.9388 184.39 83.635C180.931 83.4814 180.771 83.3214 180.483 79.1075L178.964 57.6918C178.745 54.9446 179 54.2848 182.46 54.0823C182.763 53.7752 182.763 52.658 182.46 52.351L172.235 52.4522L162.568 75.0373H162.314L153.209 52.4522L142.782 52.351C142.475 52.658 142.475 53.7752 142.782 54.0823C146.29 54.2848 146.597 54.3338 146.241 58.1492L144.196 79.1075C143.899 82.1585 143.288 83.3802 140.39 83.635C140.083 83.9388 140.083 85.0592 140.39 85.363C141.916 85.314 143.543 85.2617 144.765 85.2617C145.986 85.2617 149.038 85.314 150.563 85.363C150.87 85.0592 150.87 83.9388 150.563 83.635C147.205 83.3802 146.934 81.871 147.205 79.0062L148.538 59.9294H148.75L158.753 85.0069C158.897 85.363 159.465 85.6668 159.772 85.6668C160.076 85.6668 160.543 85.4642 160.736 85.0069L172.182 58.1002H172.284L173.59 79.3623ZM199.617 82.7955C199.956 84.8534 201.332 85.7713 203.569 85.7713C206.375 85.7713 208.352 84.7031 210.234 82.9228C210.113 82.3283 209.904 81.92 209.316 81.4986C208.656 82.0049 208.146 82.2107 207.179 82.2107C206.062 82.2107 205.755 81.2928 205.755 78.8004L205.859 71.4768C205.859 64.1531 201.332 62.6766 197.15 62.6766C193.42 62.6766 187.696 64.7868 187.696 68.1449C187.696 69.6018 188.317 70.7222 190.336 70.7222C192.132 70.7222 193.498 69.6018 193.498 68.3735C193.498 67.7039 193.142 66.848 193.26 65.9661C193.335 65.4075 193.701 64.813 195.412 64.813C197.559 64.813 199.345 65.7276 199.345 72.1889L195.932 73.2571C190.581 74.9361 186.834 76.4126 186.834 80.4305C186.834 83.9388 188.768 85.7713 193.191 85.7713C194.667 85.7713 197.617 84.1413 199.296 82.8216L199.617 82.7955ZM199.345 74.1717V80.8878C198.075 81.9037 196.804 82.7171 195.889 82.7171C193.701 82.7171 192.936 81.2438 192.936 79.6661C192.936 77.7845 193.099 76.2166 196.703 75.0373L199.345 74.1717ZM222.951 71.614C222.951 69.7978 223.51 69.0595 224.169 68.2723C224.588 67.7725 225.035 67.4066 225.78 67.4066C226.257 67.4066 226.789 67.8476 227.224 68.3735C227.58 68.808 228.442 69.213 229.589 69.213C231.062 69.213 232.513 67.6614 232.513 65.5251C232.513 64.2021 230.987 62.6766 229.155 62.6766C227.374 62.6766 225.444 64.2021 223.101 67.5602H222.899C222.797 66.0347 222.543 63.5423 222.543 63.5423C222.5 63.1013 222.085 62.6766 221.373 62.6766C218.956 63.2875 216.287 64.0257 212.929 64.3556C212.827 64.6594 212.929 65.6263 213.03 65.9334C215.803 66.1882 216.336 66.6455 216.336 69.543V79.0552C216.336 83.2789 215.777 83.3802 212.674 83.635C212.37 83.9388 212.37 85.0592 212.674 85.363C214.81 85.314 216.93 85.2617 219.642 85.2617C222.356 85.2617 224.424 85.314 226.613 85.363C226.917 85.0592 226.917 83.9388 226.613 83.635C223.51 83.4292 222.951 83.2789 222.951 79.0552V71.614ZM237.194 78.8004C237.194 83.0241 236.381 83.4814 233.277 83.635C232.97 83.9388 232.97 85.0592 233.277 85.363C235.414 85.314 237.684 85.2617 240.5 85.2617C242.721 85.2617 244.975 85.314 246.197 85.363C246.501 85.0592 246.501 83.9388 246.197 83.635C244.645 83.4553 243.806 83.0241 243.806 78.8004V74.629C245.23 74.629 246.782 74.8087 247.314 75.5959C248.487 77.3272 249.911 79.4374 250.774 81.2928C251.437 82.7171 251.587 83.1776 251.587 83.9388V85.2617L251.692 85.363C251.692 85.363 253.979 85.2617 255.759 85.2617C257.846 85.2617 260.695 85.314 262.577 85.363C262.88 85.0592 262.88 83.9388 262.577 83.635C260.6 83.4553 259.49 83.5762 257.948 81.2928L252.048 72.5972C251.8 72.2412 251.672 71.8165 251.894 71.578L254.413 68.808C256.056 66.9918 257.438 65.2441 261.306 64.813C261.61 64.5092 261.61 63.3887 261.306 63.0849C260.185 63.1339 256.981 63.1862 255.658 63.1862C253.776 63.1862 251.385 63.1339 249.503 63.0849C249.199 63.3887 249.199 64.5092 249.503 64.813C252.25 65.0188 253.038 65.4989 251.587 67.5079C250.47 69.053 249.35 70.2812 248.334 71.1632C247.68 71.7218 245.331 72.5972 243.806 72.5972V55.6078C243.806 52.302 243.959 50.4172 243.959 50.4172C243.959 49.9599 243.603 49.7573 243.146 49.7573C241.261 50.3682 237.194 50.9268 233.581 51.0803C233.427 51.6911 233.48 52.2497 233.735 52.707C236.939 52.9618 237.194 53.0304 237.194 56.5224V78.8004ZM278.313 82.7955C278.649 84.8534 280.024 85.7713 282.262 85.7713C285.068 85.7713 287.045 84.7031 288.926 82.9228C288.809 82.3283 288.596 81.92 288.012 81.4986C287.348 82.0049 286.842 82.2107 285.875 82.2107C284.755 82.2107 284.451 81.2928 284.451 78.8004L284.552 71.4768C284.552 64.1531 280.024 62.6766 275.846 62.6766C272.116 62.6766 266.392 64.7868 266.392 68.1449C266.392 69.6018 267.01 70.7222 269.028 70.7222C270.825 70.7222 272.191 69.6018 272.191 68.3735C272.191 67.7039 271.835 66.848 271.952 65.9661C272.031 65.4075 272.393 64.813 274.105 64.813C276.251 64.813 278.041 65.7276 278.041 72.1889L274.624 73.2571C269.273 74.9361 265.526 76.4126 265.526 80.4305C265.526 83.9388 267.46 85.7713 271.884 85.7713C273.36 85.7713 276.31 84.1413 277.989 82.8216L278.313 82.7955ZM278.041 74.1717V80.8878C276.767 81.9037 275.497 82.7171 274.582 82.7171C272.393 82.7171 271.632 81.2438 271.632 79.6661C271.632 77.7845 271.792 76.2166 275.395 75.0373L278.041 74.1717ZM293.147 62.5754C293.029 62.5754 292.843 62.7616 292.843 62.8792C292.791 65.169 292.487 67.4491 292.079 69.935C292.529 70.1211 293.673 70.2224 294.267 70.0852C295.283 66.3809 296.861 65.2703 298.387 65.2213L303.578 65.0776L303.663 65.169C300.21 70.8921 295.251 78.3594 291.367 83.5827C290.935 84.1772 290.909 84.3471 290.909 84.6019C290.909 84.9579 291.317 85.2094 292.079 85.2094L309.987 85.363C310.595 83.635 311.258 80.9988 311.614 78.464C311.284 78.2745 310.19 78.1569 309.579 78.1569L308.866 79.6236C307.57 82.3022 306.527 83.2266 303.881 83.2266H298.998L298.955 83.0731C302.696 78.2745 307.782 70.2485 310.849 65.2213C311.624 63.9408 311.767 63.5423 311.767 63.3397C311.767 63.1339 311.513 62.9837 311.156 62.9837C310.902 62.9837 307.442 63.0849 305.966 63.0849H296.149C294.512 63.0849 294.039 62.755 293.147 62.5754ZM324.841 79.0552V68.9158C324.841 66.3907 325.043 63.5423 325.043 63.5423C325.043 62.9837 324.586 62.6766 323.874 62.6766C322.423 63.2352 318.327 63.6435 314.818 64.1009C314.717 64.4079 314.818 65.4238 314.92 65.7276C317.693 65.9824 318.226 66.3907 318.226 69.2914V79.0552C318.226 83.2789 317.667 83.3802 314.564 83.635C314.26 83.9388 314.26 85.0592 314.564 85.363C316.7 85.314 318.82 85.2617 321.532 85.2617C324.246 85.2617 326.314 85.314 328.503 85.363C328.807 85.0592 328.807 83.9388 328.503 83.635C325.399 83.4292 324.841 83.2789 324.841 79.0552ZM317.971 54.9446C317.971 56.6237 319.193 58.3027 321.228 58.3027C323.518 58.3027 324.841 56.4701 324.841 55.1504C324.841 53.6217 323.668 51.7924 321.532 51.7924C319.14 51.7924 317.971 53.4192 317.971 54.9446ZM341.727 93.8071C342.534 92.3828 343.305 90.5503 343.915 89.0248C347.986 79.2088 350.478 73.7144 353.173 68.0175C353.886 66.5443 355.411 64.9665 357.293 64.813C357.6 64.5092 357.6 63.3887 357.293 63.0849C356.022 63.1339 355.107 63.1862 353.683 63.1862C351.903 63.1862 350.171 63.1339 348.29 63.0849C347.986 63.3887 347.986 64.5092 348.29 64.813C349.916 64.9665 351.547 65.2213 350.73 67.0506L345.493 78.8004C345.474 78.8429 345.467 78.8788 345.457 78.9017C345.457 78.8625 345.431 78.7939 345.389 78.6992L340.658 68.0697C339.734 65.9824 339.234 65.0678 342.338 64.813C342.645 64.5092 342.645 63.3887 342.338 63.0849C340.456 63.1339 337.405 63.1862 335.572 63.1862C333.844 63.1862 330.943 63.1339 329.927 63.0849C329.62 63.3887 329.62 64.5092 329.927 64.813C332.165 65.0188 332.554 65.3911 333.945 68.5761L340.508 83.635C341.371 84.8534 342.338 85.7713 341.932 86.6859L340.727 89.4821C340.057 91.0501 339.44 91.9745 338.016 91.9745C337.098 91.9745 336.947 91.772 336.235 91.772C334.301 91.772 333.181 93.095 333.181 94.1109C333.181 94.7805 333.308 95.571 333.792 96.1459C334.265 96.7078 335.098 97.0638 335.775 97.0638C336.444 97.0638 337.973 96.8842 338.676 96.5543C339.744 96.0447 341.158 94.8164 341.727 93.8071ZM370.65 78.8004C370.65 83.0241 370.549 83.635 370.343 85.5655C370.954 85.7713 371.513 85.9216 372.075 85.9216C372.735 85.363 373.244 84.6672 373.702 83.7362C375.685 85.2617 378.804 85.7713 381.13 85.7713C386.775 85.7713 392.727 80.1822 392.727 72.901C392.727 70.0101 391.616 67.1355 389.98 65.2703C388.147 63.1862 385.697 62.6766 383.012 62.6766C381.434 62.6766 378.739 64.4569 377.262 65.5251V55.6078C377.262 52.302 377.416 50.4172 377.416 50.4172C377.416 49.9599 377.06 49.7573 376.602 49.7573C374.721 50.3682 370.65 50.9268 367.037 51.0803C366.887 51.6911 366.936 52.2497 367.191 52.707C370.396 52.9618 370.65 53.0304 370.65 56.5224V78.8004ZM377.262 67.5602C378.941 66.4658 380.036 66.2895 381.231 66.2895C383.724 66.2895 385.606 68.5761 385.606 73.5641C385.606 77.7159 384.894 83.635 380.875 83.635C379.383 83.635 378.229 83.0241 377.262 81.8547V67.5602ZM408.463 82.7955C408.803 84.8534 410.175 85.7713 412.413 85.7713C415.219 85.7713 417.195 84.7031 419.077 82.9228C418.959 82.3283 418.747 81.92 418.162 81.4986C417.499 82.0049 416.993 82.2107 416.026 82.2107C414.905 82.2107 414.601 81.2928 414.601 78.8004L414.703 71.4768C414.703 64.1531 410.175 62.6766 405.997 62.6766C402.266 62.6766 396.543 64.7868 396.543 68.1449C396.543 69.6018 397.16 70.7222 399.179 70.7222C400.976 70.7222 402.341 69.6018 402.341 68.3735C402.341 67.7039 401.985 66.848 402.103 65.9661C402.181 65.4075 402.544 64.813 404.259 64.813C406.402 64.813 408.192 65.7276 408.192 72.1889L404.775 73.2571C399.424 74.9361 395.677 76.4126 395.677 80.4305C395.677 83.9388 397.611 85.7713 402.037 85.7713C403.511 85.7713 406.461 84.1413 408.14 82.8216L408.463 82.7955ZM408.192 74.1717V80.8878C406.918 81.9037 405.647 82.7171 404.732 82.7171C402.544 82.7171 401.783 81.2438 401.783 79.6661C401.783 77.7845 401.943 76.2166 405.546 75.0373L408.192 74.1717ZM431.285 79.0552V68.9158V68.8243C433.303 67.4328 435.371 66.4397 436.27 66.4397C438.305 66.4397 439.83 67.3576 439.83 70.2551V78.7514C439.83 83.0241 439.017 83.4814 436.933 83.635C436.626 83.9388 436.626 85.0592 436.933 85.363C439.069 85.314 440.722 85.2617 443.136 85.2617C445.952 85.2617 448.174 85.314 450.362 85.363C450.666 85.0592 450.666 83.9388 450.362 83.635C447.259 83.4814 446.446 83.0241 446.446 78.7514V70.8169C446.446 65.2213 444.054 62.6766 439.68 62.6766C437.629 62.6766 434.006 64.924 431.209 66.8382C431.092 65.0514 430.88 63.5423 430.88 63.5423C430.827 62.9216 430.419 62.6766 429.71 62.6766C427.825 63.1862 424.774 63.8983 421.265 64.3556C421.161 64.6594 421.265 65.6786 421.367 65.9824C424.137 66.2372 424.673 66.6455 424.673 69.543V79.0552C424.673 83.2789 424.114 83.3802 421.011 83.635C420.704 83.9388 420.704 85.0592 421.011 85.363C423.147 85.314 425.267 85.2617 427.979 85.2617C430.295 85.2617 431.742 85.314 433.931 85.363C434.234 85.0592 434.234 83.9388 433.931 83.635C431.794 83.4292 431.285 83.2789 431.285 79.0552ZM456.618 78.8004C456.618 83.0241 455.805 83.4814 452.701 83.635C452.398 83.9388 452.398 85.0592 452.701 85.363C454.838 85.314 457.108 85.2617 459.924 85.2617C462.146 85.2617 464.4 85.314 465.621 85.363C465.928 85.0592 465.928 83.9388 465.621 83.635C464.07 83.4553 463.23 83.0241 463.23 78.8004V74.629C464.654 74.629 466.206 74.8087 466.742 75.5959C467.911 77.3272 469.336 79.4374 470.201 81.2928C470.861 82.7171 471.015 83.1776 471.015 83.9388V85.2617L471.116 85.363C471.116 85.363 473.406 85.2617 475.186 85.2617C477.271 85.2617 480.119 85.314 482.001 85.363C482.308 85.0592 482.308 83.9388 482.001 83.635C480.024 83.4553 478.914 83.5762 477.372 81.2928L471.472 72.5972C471.227 72.2412 471.1 71.8165 471.319 71.578L473.837 68.808C475.48 66.9918 476.862 65.2441 480.73 64.813C481.034 64.5092 481.034 63.3887 480.73 63.0849C479.61 63.1339 476.405 63.1862 475.082 63.1862C473.2 63.1862 470.809 63.1339 468.927 63.0849C468.624 63.3887 468.624 64.5092 468.927 64.813C471.675 65.0188 472.465 65.4989 471.015 67.5079C469.894 69.053 468.777 70.2812 467.758 71.1632C467.104 71.7218 464.756 72.5972 463.23 72.5972V55.6078C463.23 52.302 463.384 50.4172 463.384 50.4172C463.384 49.9599 463.028 49.7573 462.57 49.7573C460.689 50.3682 456.618 50.9268 453.005 51.0803C452.855 51.6911 452.904 52.2497 453.159 52.707C456.363 52.9618 456.618 53.0304 456.618 56.5224V78.8004ZM495.025 79.0552V68.9158C495.025 66.3907 495.228 63.5423 495.228 63.5423C495.228 62.9837 494.771 62.6766 494.058 62.6766C492.608 63.2352 488.511 63.6435 485.003 64.1009C484.902 64.4079 485.003 65.4238 485.104 65.7276C487.878 65.9824 488.41 66.3907 488.41 69.2914V79.0552C488.41 83.2789 487.852 83.3802 484.748 83.635C484.444 83.9388 484.444 85.0592 484.748 85.363C486.885 85.314 489.005 85.2617 491.716 85.2617C494.431 85.2617 496.499 85.314 498.687 85.363C498.991 85.0592 498.991 83.9388 498.687 83.635C495.584 83.4292 495.025 83.2789 495.025 79.0552ZM488.155 54.9446C488.155 56.6237 489.377 58.3027 491.412 58.3027C493.702 58.3027 495.025 56.4701 495.025 55.1504C495.025 53.6217 493.853 51.7924 491.716 51.7924C489.325 51.7924 488.155 53.4192 488.155 54.9446Z" fill="white"/>
<path d="M151.029 16.7324C154.374 16.7324 157.03 20.0153 157.03 26.3557C157.03 31.5496 155.217 34.9795 152.061 34.9795C148.624 34.9795 145.936 31.5757 145.936 25.7024C145.936 19.326 148.242 16.7324 151.029 16.7324ZM161.747 25.7024C161.747 19.4828 157.121 15.4225 151.404 15.4225C148.265 15.4225 145.567 16.7552 143.754 18.921C142.127 20.8515 141.219 23.4419 141.219 26.3263C141.219 32.5132 146.122 36.2926 151.434 36.2926C154.655 36.2926 157.268 35.1363 159.058 33.1992C160.783 31.3405 161.747 28.7697 161.747 25.7024ZM164.716 21.2631C165.84 21.2631 166.183 20.7013 166.183 20.2015C166.183 19.7017 166.026 18.921 164.746 18.921C164.527 18.921 164.403 18.6695 164.403 18.3591C164.403 17.6405 164.965 16.4841 166.278 16.2032L166.154 15.6707C163.309 15.8275 162.841 18.1697 162.841 18.9831C162.841 20.1068 163.527 21.2631 164.716 21.2631ZM169.091 22.0438C169.019 22.0438 168.901 22.1582 168.901 22.2333C168.872 23.6379 168.682 25.0393 168.434 26.5648C168.708 26.6791 169.414 26.7412 169.777 26.6595C170.404 24.3827 171.371 23.7 172.308 23.6706L175.497 23.5824L175.549 23.6379C173.429 27.1528 170.381 31.7423 167.996 34.9501C167.732 35.3127 167.715 35.4172 167.715 35.574C167.715 35.7928 167.964 35.9496 168.434 35.9496L179.433 36.0444C179.809 34.9795 180.214 33.3625 180.433 31.8044C180.23 31.69 179.557 31.6182 179.185 31.6182L178.747 32.5165C177.95 34.1628 177.31 34.7312 175.683 34.7312H172.684L172.658 34.6365C174.954 31.69 178.081 26.7575 179.966 23.6706C180.439 22.8833 180.528 22.6383 180.528 22.5142C180.528 22.3901 180.371 22.2954 180.152 22.2954C179.995 22.2954 177.872 22.3574 176.964 22.3574H170.933C169.927 22.3574 169.636 22.1549 169.091 22.0438ZM184.245 32.0134C184.245 34.6071 184.183 34.9795 184.059 36.1685C184.435 36.2926 184.778 36.3874 185.121 36.3874C185.526 36.0444 185.839 35.6165 186.12 35.0448C187.339 35.9823 189.256 36.2926 190.684 36.2926C194.15 36.2926 197.805 32.8627 197.805 28.3875C197.805 26.6138 197.126 24.8466 196.12 23.7C194.996 22.4195 193.49 22.1059 191.84 22.1059C190.87 22.1059 189.214 23.2002 188.309 23.8568V17.7646C188.309 15.7328 188.4 14.5764 188.4 14.5764C188.4 14.2955 188.182 14.1714 187.901 14.1714C186.744 14.547 184.245 14.89 182.027 14.9848C181.932 15.3572 181.965 15.7034 182.122 15.9843C184.088 16.1411 184.245 16.1803 184.245 18.3265V32.0134ZM188.309 25.1079C189.338 24.435 190.011 24.3272 190.746 24.3272C192.278 24.3272 193.431 25.7318 193.431 28.7958C193.431 31.347 192.993 34.9795 190.527 34.9795C189.609 34.9795 188.9 34.6071 188.309 33.8884V25.1079ZM204.711 27.388C204.744 26.2936 204.911 25.1177 205.339 24.484C205.832 23.7392 206.671 23.4191 207.024 23.4191C207.87 23.4191 209.023 24.2324 209.023 26.7314C209.023 26.9208 209.023 27.3259 208.961 27.388H204.711ZM212.649 31.9514C211.369 33.2613 209.68 33.6075 208.494 33.6075C206.057 33.6075 204.558 32.1996 204.558 29.1388C204.558 28.92 204.587 28.7958 204.587 28.639H212.088C212.836 28.639 212.992 28.1066 212.992 27.6689C212.992 25.0132 211.963 22.1059 207.367 22.1059C204.087 22.1059 200.337 25.0131 200.337 29.7954C200.337 31.6214 201 33.5226 202.336 34.7312C203.509 35.7928 205.051 36.2926 207.276 36.2926C209.432 36.2926 211.555 35.1983 213.12 32.9183C213.12 32.5132 212.963 31.9514 212.649 31.9514ZM216.962 32.0134C216.962 34.6071 216.462 34.888 214.554 34.9795C214.368 35.1689 214.368 35.8549 214.554 36.0444C215.867 36.0117 217.262 35.9823 218.994 35.9823C220.356 35.9823 221.741 36.0117 222.492 36.0444C222.678 35.8549 222.678 35.1689 222.492 34.9795C221.538 34.8717 221.022 34.6071 221.022 32.0134V29.4492C221.898 29.4492 222.852 29.5602 223.178 30.0437C223.897 31.1053 224.772 32.4021 225.305 33.5454C225.71 34.4176 225.805 34.6985 225.805 35.1689V35.9823L225.867 36.0444C225.867 36.0444 227.271 35.9823 228.366 35.9823C229.65 35.9823 231.397 36.0117 232.554 36.0444C232.74 35.8549 232.74 35.1689 232.554 34.9795C231.342 34.8717 230.659 34.9435 229.712 33.5454L226.086 28.2013C225.935 27.9825 225.857 27.7211 225.991 27.5741L227.539 25.8723C228.549 24.7584 229.398 23.6869 231.773 23.4191C231.959 23.2329 231.959 22.5436 231.773 22.3574C231.084 22.3901 229.117 22.4195 228.304 22.4195C227.147 22.4195 225.681 22.3901 224.524 22.3574C224.335 22.5436 224.335 23.2329 224.524 23.4191C226.21 23.5465 226.693 23.8404 225.805 25.0752C225.115 26.0225 224.429 26.7771 223.805 27.3194C223.404 27.6656 221.96 28.2013 221.022 28.2013V17.7646C221.022 15.7328 221.117 14.5764 221.117 14.5764C221.117 14.2955 220.898 14.1714 220.617 14.1714C219.461 14.547 216.962 14.89 214.743 14.9848C214.649 15.3572 214.681 15.7034 214.838 15.9843C216.805 16.1411 216.962 16.1803 216.962 18.3265V32.0134ZM240.554 32.1702V25.9409C240.554 24.3892 240.678 22.6384 240.678 22.6384C240.678 22.2954 240.397 22.1059 239.96 22.1059C239.071 22.4522 236.556 22.7004 234.399 22.9813C234.334 23.1708 234.399 23.7947 234.462 23.9809C236.164 24.1377 236.49 24.3892 236.49 26.1695V32.1702C236.49 34.7606 236.147 34.8259 234.243 34.9795C234.053 35.1689 234.053 35.8549 234.243 36.0444C235.553 36.0117 236.856 35.9823 238.522 35.9823C240.188 35.9823 241.459 36.0117 242.805 36.0444C242.991 35.8549 242.991 35.1689 242.805 34.9795C240.897 34.8553 240.554 34.7606 240.554 32.1702ZM236.337 17.3596C236.337 18.3885 237.085 19.4208 238.336 19.4208C239.741 19.4208 240.554 18.2938 240.554 17.4837C240.554 16.5462 239.835 15.4225 238.522 15.4225C237.055 15.4225 236.337 16.4221 236.337 17.3596ZM244.866 31.4189C244.99 32.9673 245.131 34.434 245.395 35.6067C245.974 35.8092 247.986 36.2926 249.74 36.2926C252.148 36.2926 255.147 34.986 255.147 32.2617C255.147 31.2066 254.882 30.3507 254.186 29.5766C253.288 28.5639 251.991 27.793 250.554 27.1691C249.302 26.6236 248.865 25.6371 248.865 24.7322C248.865 24.0136 249.459 23.4191 250.364 23.4191C251.458 23.4191 252.52 24.4186 253.301 26.3263C253.866 26.421 254.209 26.3884 254.523 26.1695C254.523 25.0458 254.395 23.8568 254.114 22.8572C253.115 22.4195 252.334 22.1059 250.616 22.1059C248.963 22.1059 247.385 22.7265 246.398 23.7327C245.68 24.4611 245.333 25.3267 245.333 26.1695C245.333 27.0972 245.693 27.8453 246.304 28.5117C247.27 29.5766 248.976 30.6807 249.926 31.1053C251.178 31.6704 251.521 32.7941 251.521 33.5454C251.521 34.5483 250.521 35.0742 249.678 35.0742C248.267 35.0742 246.771 33.6532 246.114 31.3568C245.614 31.2621 245.366 31.2948 244.866 31.4189ZM258.678 22.4522C258.24 22.4554 257.767 22.5763 257.365 22.9193V23.8274C257.365 23.9809 257.397 24.0136 257.522 24.0136H259.553C259.485 27.1495 259.459 31.1478 259.459 32.7059C259.459 33.8002 259.73 34.8455 260.396 35.4172C261.099 36.0215 262.249 36.2926 262.99 36.2926C264.715 36.2926 266.613 35.4172 267.24 34.545C267.24 34.1694 267.051 33.9799 266.675 33.6728C266.27 33.9799 265.489 34.1073 264.895 34.1073C264.209 34.1073 263.519 33.5814 263.519 32.0167C263.519 30.4618 263.49 27.1266 263.49 24.0136H266.646C266.959 24.0136 267.397 23.8894 267.397 23.6085V22.6384C267.397 22.5142 267.302 22.4522 267.145 22.4522H263.49L263.519 21.3905C263.585 19.3097 263.676 17.8593 263.676 17.8593C263.676 17.6601 263.585 17.5882 263.431 17.5882C263.209 17.5882 262.043 17.9312 261.553 18.1403C261.02 18.3591 260.109 18.5388 259.896 18.8263C259.678 19.1235 259.553 19.9663 259.553 22.4522H258.678ZM276.018 23.4191C278.145 23.4191 279.582 25.9507 279.582 30.2331C279.582 33.9864 278.112 34.9795 276.988 34.9795C274.427 34.9795 273.427 31.138 273.427 28.8252C273.427 25.9507 273.927 23.4191 276.018 23.4191ZM269.05 29.5112C269.05 33.5944 272.284 36.2926 276.488 36.2926C278.69 36.2926 280.552 35.6622 281.833 34.5124C283.411 33.0947 283.956 30.9714 283.956 29.2303C283.956 25.1438 281.16 22.1059 276.521 22.1059C273.927 22.1059 271.993 22.9977 270.758 24.4186C269.576 25.7775 269.05 27.6656 269.05 29.5112ZM292.237 32.1702V25.9409V25.8821C293.475 25.0295 294.746 24.4186 295.298 24.4186C296.549 24.4186 297.487 24.9838 297.487 26.764V31.9808C297.487 34.6071 296.987 34.888 295.707 34.9795C295.517 35.1689 295.517 35.8549 295.707 36.0444C297.017 36.0117 298.032 35.9823 299.519 35.9823C301.247 35.9823 302.612 36.0117 303.955 36.0444C304.141 35.8549 304.141 35.1689 303.955 34.9795C302.047 34.888 301.548 34.6071 301.548 31.9808V27.107C301.548 23.6706 300.081 22.1059 297.392 22.1059C296.131 22.1059 293.91 23.4877 292.192 24.6636C292.116 23.5661 291.986 22.6384 291.986 22.6384C291.956 22.2594 291.705 22.1059 291.267 22.1059C290.114 22.4195 288.239 22.8572 286.083 23.1381C286.017 23.3276 286.083 23.9515 286.145 24.1377C287.847 24.2945 288.173 24.546 288.173 26.3263V32.1702C288.173 34.7606 287.83 34.8259 285.926 34.9795C285.736 35.1689 285.736 35.8549 285.926 36.0444C287.236 36.0117 288.539 35.9823 290.205 35.9823C291.626 35.9823 292.518 36.0117 293.861 36.0444C294.05 35.8549 294.05 35.1689 293.861 34.9795C292.551 34.8553 292.237 34.7606 292.237 32.1702ZM328.874 21.3905C328.874 25.2222 326.561 25.8265 323.935 25.8265H322.592V19.607C322.592 17.4837 323.311 16.8271 324.967 16.8271C326.78 16.8271 328.874 17.5784 328.874 21.3905ZM325.966 15.5466C324.719 15.5466 316.875 15.7655 315.624 15.7655C315.314 15.9517 315.314 16.6409 315.624 16.8271C317.342 16.9218 318.218 17.046 318.218 19.6396V32.1702C318.218 34.7606 317.342 34.888 315.624 34.9795C315.314 35.1689 315.314 35.8549 315.624 36.0444C316.875 36.0117 319.188 35.9823 320.436 35.9823C321.687 35.9823 323.935 36.0117 325.186 36.0444C325.499 35.8549 325.499 35.1689 325.186 34.9795C323.467 34.888 322.592 34.7606 322.592 32.1702V27.1397C325.071 27.143 325.343 27.3618 325.78 28.0772L329.436 33.5128C330.406 34.9174 331.687 36.2926 333.562 36.2926C334.816 36.2926 336.436 36.2012 336.747 36.0444C336.858 35.8255 336.841 35.231 336.717 34.9795C335.309 34.9795 334.591 34.2314 333.715 32.9183L329.468 26.3557C331.154 25.6697 333.591 24.0462 333.591 20.8581C333.591 19.6037 333.124 17.7222 331.187 16.5756C330.03 15.8961 328.312 15.5466 325.966 15.5466ZM341.934 27.388C341.967 26.2936 342.134 25.1177 342.558 24.484C343.055 23.7392 343.894 23.4191 344.247 23.4191C345.09 23.4191 346.246 24.2324 346.246 26.7314C346.246 26.9208 346.246 27.3259 346.184 27.388H341.934ZM349.873 31.9514C348.592 33.2613 346.903 33.6075 345.717 33.6075C343.277 33.6075 341.778 32.1996 341.778 29.1388C341.778 28.92 341.81 28.7958 341.81 28.639H349.311C350.059 28.639 350.216 28.1066 350.216 27.6689C350.216 25.0132 349.183 22.1059 344.59 22.1059C341.31 22.1059 337.56 25.0131 337.56 29.7954C337.56 31.6214 338.22 33.5226 339.559 34.7312C340.732 35.7928 342.274 36.2926 344.495 36.2926C346.655 36.2926 348.778 35.1983 350.34 32.9183C350.34 32.5132 350.183 31.9514 349.873 31.9514ZM353.185 31.4189C353.309 32.9673 353.45 34.434 353.714 35.6067C354.292 35.8092 356.305 36.2926 358.059 36.2926C360.463 36.2926 363.465 34.986 363.465 32.2617C363.465 31.2066 363.198 30.3507 362.505 29.5766C361.607 28.5639 360.31 27.793 358.872 27.1691C357.621 26.6236 357.184 25.6371 357.184 24.7322C357.184 24.0136 357.778 23.4191 358.683 23.4191C359.777 23.4191 360.839 24.4186 361.62 26.3263C362.182 26.421 362.528 26.3884 362.838 26.1695C362.838 25.0458 362.714 23.8568 362.433 22.8572C361.434 22.4195 360.653 22.1059 358.934 22.1059C357.282 22.1059 355.704 22.7265 354.714 23.7327C353.995 24.4611 353.652 25.3267 353.652 26.1695C353.652 27.0972 354.012 27.8453 354.622 28.5117C355.589 29.5766 357.295 30.6807 358.245 31.1053C359.496 31.6704 359.839 32.7941 359.839 33.5454C359.839 34.5483 358.84 35.0742 357.997 35.0742C356.586 35.0742 355.09 33.6532 354.433 31.3568C353.933 31.2621 353.685 31.2948 353.185 31.4189ZM367.683 26.3263V39.4187C367.683 42.0124 367.34 42.0745 365.432 42.2313C365.246 42.4175 365.246 43.1067 365.432 43.2929C366.745 43.2602 368.049 43.2308 369.715 43.2308C371.381 43.2308 372.652 43.2602 373.994 43.2929C374.184 43.1067 374.184 42.4175 373.994 42.2313C372.09 42.1039 371.743 42.0124 371.743 39.4187V35.7634C372.416 36.1064 373.089 36.2926 373.837 36.2926C378.604 36.2926 381.681 33.1829 381.681 28.577C381.681 26.8359 381.021 24.889 379.806 23.6706C378.715 22.5698 377.147 22.1059 375.526 22.1059C374.618 22.1059 372.933 23.2002 371.838 24.1998H371.662C371.59 23.3145 371.495 22.6384 371.495 22.6384C371.462 22.2594 371.214 22.1059 370.776 22.1059C369.62 22.4195 367.745 22.8572 365.589 23.1381C365.527 23.3276 365.589 23.9515 365.651 24.1377C367.356 24.2945 367.683 24.546 367.683 26.3263ZM371.743 33.9505V25.9409C371.743 25.7743 371.74 25.6011 371.734 25.4313C372.635 24.6179 373.792 24.1998 374.527 24.1998C375.807 24.1998 377.307 25.7645 377.307 29.4198C377.307 32.0428 376.369 34.9795 373.651 34.9795C373.308 34.9795 372.527 34.7933 371.743 33.9505ZM398.181 31.824V26.421C398.181 23.7947 398.243 24.1704 398.243 23.4191C398.243 22.8899 398.119 22.5436 397.93 22.3574C397.368 22.3901 396.744 22.4195 396.149 22.4195C395.284 22.4195 393.245 22.3901 392.023 22.3574C391.837 22.5436 391.837 23.2329 392.023 23.4191C393.618 23.5759 394.117 23.7947 394.117 26.421V32.2094C394.117 32.5132 394.13 32.8235 394.144 33.1371C392.873 33.9244 391.821 33.9799 391.275 33.9799C390.024 33.9799 389.087 33.8394 389.087 31.6378V26.421C389.087 23.7947 389.149 24.1704 389.149 23.4191C389.149 22.8899 389.025 22.5436 388.838 22.3574C388.276 22.3901 387.63 22.4195 387.058 22.4195C385.447 22.4195 384.275 22.3901 382.932 22.3574C382.746 22.5436 382.746 23.2329 382.932 23.4191C384.369 23.4811 385.026 23.7947 385.026 26.421V31.2948C385.026 34.6201 386.339 36.2926 389.025 36.2926C390.161 36.2926 392.432 35.3911 394.228 34.3882C394.3 35.1722 394.369 35.7634 394.369 35.7634C394.395 36.1358 394.65 36.2926 395.088 36.2926C396.244 35.9823 398.119 35.5446 400.275 35.2637C400.337 35.0742 400.275 34.4503 400.213 34.2608C398.508 34.1073 398.181 33.6075 398.181 31.824ZM403.241 32.0134C403.241 34.6071 403.179 34.9795 403.055 36.1685C403.431 36.2926 403.774 36.3874 404.117 36.3874C404.525 36.0444 404.836 35.6165 405.117 35.0448C406.335 35.9823 408.253 36.2926 409.68 36.2926C413.149 36.2926 416.805 32.8627 416.805 28.3875C416.805 26.6138 416.122 24.8466 415.116 23.7C413.992 22.4195 412.486 22.1059 410.837 22.1059C409.866 22.1059 408.21 23.2002 407.305 23.8568V17.7646C407.305 15.7328 407.4 14.5764 407.4 14.5764C407.4 14.2955 407.181 14.1714 406.9 14.1714C405.744 14.547 403.241 14.89 401.023 14.9848C400.932 15.3572 400.961 15.7034 401.118 15.9843C403.088 16.1411 403.241 16.1803 403.241 18.3265V32.0134ZM407.305 25.1079C408.338 24.435 409.007 24.3272 409.742 24.3272C411.274 24.3272 412.431 25.7318 412.431 28.7958C412.431 31.347 411.993 34.9795 409.523 34.9795C408.609 34.9795 407.9 34.6071 407.305 33.8884V25.1079ZM420.993 32.0134C420.993 34.6071 420.493 34.888 418.585 34.9795C418.399 35.1689 418.399 35.8549 418.585 36.0444C419.899 36.0117 421.293 35.9823 423.022 35.9823C424.753 35.9823 426.115 36.0117 427.461 36.0444C427.647 35.8549 427.647 35.1689 427.461 34.9795C425.553 34.888 425.054 34.6071 425.054 32.0134V17.7646C425.054 15.7328 425.148 14.5764 425.148 14.5764C425.148 14.2955 424.929 14.1714 424.648 14.1714C423.492 14.547 420.993 14.89 418.772 14.9848C418.68 15.3572 418.709 15.7034 418.866 15.9843C420.836 16.1411 420.993 16.1803 420.993 18.3265V32.0134ZM435.585 32.1702V25.9409C435.585 24.3892 435.71 22.6384 435.71 22.6384C435.71 22.2954 435.429 22.1059 434.991 22.1059C434.099 22.4522 431.584 22.7004 429.428 22.9813C429.366 23.1708 429.428 23.7947 429.49 23.9809C431.195 24.1377 431.522 24.3892 431.522 26.1695V32.1702C431.522 34.7606 431.179 34.8259 429.274 34.9795C429.085 35.1689 429.085 35.8549 429.274 36.0444C430.584 36.0117 431.888 35.9823 433.554 35.9823C435.22 35.9823 436.49 36.0117 437.833 36.0444C438.022 35.8549 438.022 35.1689 437.833 34.9795C435.929 34.8553 435.585 34.7606 435.585 32.1702ZM431.365 17.3596C431.365 18.3885 432.116 19.4208 433.367 19.4208C434.772 19.4208 435.585 18.2938 435.585 17.4837C435.585 16.5462 434.867 15.4225 433.554 15.4225C432.084 15.4225 431.365 16.4221 431.365 17.3596ZM441.835 32.0134C441.835 34.6071 441.335 34.888 439.427 34.9795C439.241 35.1689 439.241 35.8549 439.427 36.0444C440.74 36.0117 442.135 35.9823 443.863 35.9823C445.229 35.9823 446.614 36.0117 447.365 36.0444C447.552 35.8549 447.552 35.1689 447.365 34.9795C446.411 34.8717 445.895 34.6071 445.895 32.0134V29.4492C446.771 29.4492 447.725 29.5602 448.051 30.0437C448.77 31.1053 449.646 32.4021 450.178 33.5454C450.583 34.4176 450.678 34.6985 450.678 35.1689V35.9823L450.74 36.0444C450.74 36.0444 452.145 35.9823 453.239 35.9823C454.52 35.9823 456.271 36.0117 457.427 36.0444C457.613 35.8549 457.613 35.1689 457.427 34.9795C456.212 34.8717 455.529 34.9435 454.582 33.5454L450.959 28.2013C450.809 27.9825 450.73 27.7211 450.864 27.5741L452.413 25.8723C453.422 24.7584 454.271 23.6869 456.646 23.4191C456.832 23.2329 456.832 22.5436 456.646 22.3574C455.957 22.3901 453.99 22.4195 453.177 22.4195C452.021 22.4195 450.55 22.3901 449.397 22.3574C449.208 22.5436 449.208 23.2329 449.397 23.4191C451.083 23.5465 451.566 23.8404 450.678 25.0752C449.989 26.0225 449.303 26.7771 448.675 27.3194C448.277 27.6656 446.833 28.2013 445.895 28.2013V17.7646C445.895 15.7328 445.99 14.5764 445.99 14.5764C445.99 14.2955 445.771 14.1714 445.49 14.1714C444.334 14.547 441.835 14.89 439.617 14.9848C439.522 15.3572 439.551 15.7034 439.708 15.9843C441.678 16.1411 441.835 16.1803 441.835 18.3265V32.0134ZM467.093 34.4666C467.299 35.7308 468.145 36.2926 469.517 36.2926C471.242 36.2926 472.457 35.6361 473.614 34.545C473.539 34.1792 473.408 33.9276 473.049 33.6696C472.643 33.9799 472.33 34.1073 471.739 34.1073C471.049 34.1073 470.863 33.5454 470.863 32.0134L470.925 27.5121C470.925 23.014 468.145 22.1059 465.577 22.1059C463.284 22.1059 459.769 23.406 459.769 25.4672C459.769 26.3622 460.148 27.0482 461.39 27.0482C462.494 27.0482 463.333 26.3622 463.333 25.6077C463.333 25.1961 463.114 24.6702 463.186 24.1279C463.232 23.7849 463.457 23.4191 464.509 23.4191C465.826 23.4191 466.927 23.9809 466.927 27.9498L464.826 28.6064C461.54 29.6386 459.24 30.5435 459.24 33.013C459.24 35.1689 460.426 36.2926 463.144 36.2926C464.052 36.2926 465.862 35.2931 466.894 34.4797L467.093 34.4666ZM466.927 29.1682V33.2939C466.146 33.9178 465.362 34.4176 464.8 34.4176C463.457 34.4176 462.987 33.5128 462.987 32.5426C462.987 31.3895 463.088 30.4259 465.3 29.7007L466.927 29.1682ZM475.175 31.4189C475.299 32.9673 475.44 34.434 475.708 35.6067C476.283 35.8092 478.295 36.2926 480.049 36.2926C482.457 36.2926 485.456 34.986 485.456 32.2617C485.456 31.2066 485.191 30.3507 484.499 29.5766C483.597 28.5639 482.3 27.793 480.863 27.1691C479.611 26.6236 479.174 25.6371 479.174 24.7322C479.174 24.0136 479.768 23.4191 480.673 23.4191C481.768 23.4191 482.829 24.4186 483.613 26.3263C484.175 26.421 484.518 26.3884 484.832 26.1695C484.832 25.0458 484.704 23.8568 484.423 22.8572C483.424 22.4195 482.643 22.1059 480.925 22.1059C479.275 22.1059 477.697 22.7265 476.707 23.7327C475.989 24.4611 475.642 25.3267 475.642 26.1695C475.642 27.0972 476.002 27.8453 476.613 28.5117C477.58 29.5766 479.285 30.6807 480.239 31.1053C481.487 31.6704 481.83 32.7941 481.83 33.5454C481.83 34.5483 480.83 35.0742 479.987 35.0742C478.576 35.0742 477.08 33.6532 476.423 31.3568C475.923 31.2621 475.675 31.2948 475.175 31.4189ZM494.266 32.1702V25.9409C494.266 24.3892 494.394 22.6384 494.394 22.6384C494.394 22.2954 494.113 22.1059 493.675 22.1059C492.783 22.4522 490.268 22.7004 488.112 22.9813C488.05 23.1708 488.112 23.7947 488.174 23.9809C489.876 24.1377 490.206 24.3892 490.206 26.1695V32.1702C490.206 34.7606 489.862 34.8259 487.955 34.9795C487.768 35.1689 487.768 35.8549 487.955 36.0444C489.268 36.0117 490.568 35.9823 492.237 35.9823C493.903 35.9823 495.174 36.0117 496.517 36.0444C496.703 35.8549 496.703 35.1689 496.517 34.9795C494.612 34.8553 494.266 34.7606 494.266 32.1702ZM490.049 17.3596C490.049 18.3885 490.8 19.4208 492.048 19.4208C493.456 19.4208 494.266 18.2938 494.266 17.4837C494.266 16.5462 493.547 15.4225 492.237 15.4225C490.767 15.4225 490.049 16.4221 490.049 17.3596Z" fill="white"/>
<defs>
<radialGradient id="paint0_radial_17103_43561" cx="0" cy="0" r="1" gradientUnits="userSpaceOnUse" gradientTransform="translate(82.9426 32.1256) rotate(144.287) scale(86.545 88.9384)">
<stop stop-color="#E4A237"/>
<stop offset="0.501961" stop-color="#F0B644"/>
<stop offset="1" stop-color="#E7C66E"/>
</radialGradient>
</defs>
</svg>
