<svg width="112" height="112" viewBox="0 0 112 112" fill="none" xmlns="http://www.w3.org/2000/svg">
<g clip-path="url(#clip0_17103_43561)">
<path fill-rule="evenodd" clip-rule="evenodd" d="M70.308 41.3291L61.1766 48.9909L51.7858 56.8709V53.2491V41.3291L2.58008 82.6182H16.7852L42.655 60.9109V64.5327V75.313L42.6514 76.4553L42.655 76.4527L50.9495 69.4928L51.7858 68.7909L61.1766 60.9109V68.0083V75.313H70.308H72.7431H73.0056H78.833C84.6051 75.313 88.9263 74.2673 91.7966 72.1868C94.6664 70.1063 96.1069 66.9694 96.1069 62.7764C96.1069 59.9061 95.36 57.5268 93.8554 55.6386C92.3621 53.7499 90.0785 52.3311 87.0273 51.3707C88.9155 50.5168 90.3669 49.3646 91.3588 47.9029C92.3512 46.4411 92.8418 44.3456 92.8418 42.4146C92.8418 38.7017 91.379 36.3075 88.4461 34.4167C85.5211 32.5306 81.1802 31.5894 75.4293 31.5894H72.7431H43.1083L34.3408 38.894H72.7431H73.016H75.9628C78.9018 38.894 79.2398 39.122 80.2131 39.9407C81.1921 40.7652 81.9447 42.3029 81.9447 43.989C81.9447 45.5149 81.555 46.8862 80.6401 47.7003C79.2941 48.8969 78.6816 49.0835 76.8084 49.0835H72.7431V56.3886H76.5815C79.5334 56.3886 80.5548 56.4605 82.228 57.6638C83.4969 58.5761 84.4516 60.5372 84.4516 62.4145C84.4516 63.9373 83.8799 65.3045 82.5272 66.5026C80.6706 68.1473 79.4838 68.0083 76.6456 68.0083H73.0056H72.7431H70.308V53.2491V41.3291Z" fill="url(#paint0_radial_17103_43561)"/>
<path d="M9.89565 63.1573C9.98249 63.6442 9.98921 64.1223 9.91581 64.5906C9.84241 65.0595 9.67391 65.49 9.41029 65.8829C9.14668 66.2752 8.77555 66.6163 8.29743 66.9058C7.81879 67.1958 7.21455 67.4056 6.48367 67.5359L6.25572 67.5767C5.55534 67.7018 4.93817 67.7101 4.40475 67.601C3.8708 67.4925 3.41387 67.2991 3.03447 67.0211C2.65508 66.7435 2.35218 66.3972 2.12475 65.9821C1.89732 65.567 1.74018 65.1163 1.65335 64.6294C1.56651 64.142 1.55772 63.6649 1.62699 63.1966C1.69677 62.7288 1.86165 62.2988 2.12113 61.907C2.38113 61.5152 2.74243 61.1756 3.20556 60.8887C3.6687 60.6018 4.25071 60.3961 4.95058 60.271L5.17904 60.2302C5.90992 60.0994 6.54932 60.0875 7.09877 60.1935C7.6477 60.2994 8.11394 60.4912 8.49695 60.7683C8.88048 61.0453 9.18751 61.3911 9.41856 61.8051C9.64961 62.2197 9.80882 62.6704 9.89565 63.1573ZM8.68562 63.3734C8.63496 63.0917 8.53675 62.8265 8.39047 62.5779C8.24368 62.3292 8.04002 62.122 7.77848 61.9566C7.51745 61.7912 7.19284 61.6785 6.80518 61.618C6.41751 61.5581 5.9611 61.5746 5.43594 61.6681L5.20747 61.709C4.70557 61.7989 4.29206 61.9375 3.96849 62.1251C3.6444 62.3122 3.39268 62.5283 3.21228 62.7722C3.03189 63.0167 2.91662 63.2808 2.86493 63.5646C2.81376 63.8489 2.81325 64.1316 2.86338 64.4133C2.91507 64.7023 3.01431 64.9716 3.16059 65.2202C3.30739 65.4688 3.50743 65.6766 3.7607 65.8431C4.01449 66.01 4.32514 66.1232 4.69317 66.1832C5.06119 66.2431 5.49641 66.2281 5.99883 66.1387L6.22678 66.0979C6.75194 66.0038 7.18664 65.8637 7.52985 65.6766C7.87358 65.4895 8.13926 65.2734 8.32741 65.0279C8.51504 64.7819 8.63444 64.5172 8.68613 64.2335C8.7373 63.9492 8.73731 63.6623 8.68562 63.3734ZM2.9342 57.6886L4.39492 57.6519L4.43317 59.1587L2.97245 59.1959L1.14318 57.9662L1.1256 57.2705L2.9342 57.6886ZM7.99815 55.9214L2.5243 51.1324L2.2028 55.3642L1 55.2732L1.44814 49.376L2.53516 49.4582L8.00953 54.2477L8.3486 49.7844L9.5514 49.8753L9.08517 56.0041L7.99815 55.9214ZM1.82289 46.545L2.55273 43.3811C2.76001 42.4849 3.10374 41.8718 3.58444 41.5426C4.06463 41.2128 4.62546 41.1223 5.26588 41.2702C5.67216 41.3637 5.99625 41.5498 6.23763 41.8279C6.47902 42.1055 6.62116 42.4435 6.66407 42.8425C6.87754 42.3996 7.17578 42.0781 7.55932 41.877C7.94285 41.6759 8.39099 41.6341 8.90323 41.7524C9.23455 41.8289 9.52556 41.9519 9.77625 42.1205C10.0269 42.2895 10.2244 42.5076 10.3691 42.7754C10.5138 43.0426 10.6007 43.362 10.6296 43.7337C10.6591 44.1053 10.6172 44.5364 10.504 45.0259L9.73232 48.3707L1.82289 46.545ZM9.29503 44.9018C9.43097 44.3141 9.42994 43.8872 9.29296 43.6215C9.15598 43.3558 8.89134 43.178 8.50005 43.0876C8.31139 43.0441 8.13616 43.0312 7.97334 43.0493C7.81052 43.0674 7.66424 43.1248 7.53451 43.2219C7.40528 43.3191 7.29105 43.4613 7.19233 43.6484C7.09308 43.836 7.00986 44.0769 6.94215 44.3705L6.51985 46.2008L8.87015 46.7435L9.29503 44.9018ZM5.81327 44.3121C5.93474 43.7848 5.92181 43.3951 5.77347 43.1429C5.62564 42.8901 5.3858 42.7257 5.05447 42.6492C4.7154 42.5712 4.43421 42.613 4.20988 42.7759C3.98607 42.9382 3.81239 43.2871 3.68885 43.8221L3.31101 45.4601L5.4349 45.9506L5.81327 44.3121ZM4.12563 37.8112L6.12495 32.741L7.2466 33.1835L5.75796 36.9593L7.74281 37.7419L9.1043 34.2896L10.2259 34.732L8.86498 38.1844L11.0659 39.0517L12.5545 35.2763L13.6767 35.7183L11.6774 40.789L4.12563 37.8112ZM7.46369 30.1958L8.15736 28.9894L11.5151 30.9205L9.86826 26.0142L10.701 24.5664L12.0614 28.8535L17.8537 28.4115L17.0096 29.879L12.4336 30.1374L12.9329 31.7351L15.1948 33.0356L14.5011 34.242L7.46369 30.1958ZM12.5483 22.366L13.4079 21.2718L19.7905 26.2876L18.9309 27.3814L12.5483 22.366ZM23.1931 22.7356C22.8127 23.0984 22.4426 23.3708 22.0823 23.5538C21.7226 23.7368 21.3773 23.8417 21.0455 23.8696C20.7141 23.897 20.4009 23.8567 20.1052 23.7487C19.8101 23.6407 19.5336 23.4737 19.2767 23.2489L20.2836 22.289C20.418 22.3851 20.557 22.4554 20.7012 22.4999C20.8449 22.5443 21.002 22.5547 21.1721 22.5314C21.3422 22.5082 21.5225 22.4425 21.7138 22.335C21.905 22.2275 22.1154 22.0647 22.3449 21.846C22.5796 21.6217 22.76 21.4103 22.8851 21.2108C23.0101 21.0112 23.0908 20.8272 23.1275 20.6587C23.1647 20.4902 23.16 20.3341 23.114 20.1909C23.0686 20.0478 22.9921 19.9201 22.8856 19.8079C22.624 19.534 22.2994 19.4482 21.9112 19.551C21.5236 19.6539 21.0077 19.9056 20.3637 20.3057C19.9977 20.5269 19.653 20.7032 19.3299 20.8345C19.0068 20.9663 18.7019 21.0386 18.4145 21.051C18.1271 21.0629 17.8506 21.0112 17.5854 20.8955C17.3202 20.7802 17.0597 20.5879 16.8039 20.3191C16.5956 20.101 16.4446 19.8498 16.35 19.566C16.2554 19.2823 16.2286 18.9819 16.2689 18.6661C16.3092 18.3498 16.4224 18.0231 16.608 17.6856C16.794 17.3486 17.0628 17.0116 17.4153 16.6756C17.757 16.3499 18.0935 16.1039 18.4253 15.9369C18.7577 15.77 19.0797 15.6739 19.3919 15.6485C19.7046 15.6232 20.0029 15.6614 20.2877 15.7638C20.572 15.8667 20.8377 16.0248 21.0842 16.2383L20.0768 17.1987C19.8292 17.0286 19.5522 16.9645 19.2451 17.0064C18.9376 17.0483 18.6104 17.2343 18.2636 17.5651C17.8609 17.9492 17.6381 18.2955 17.5952 18.6036C17.5523 18.9111 17.6242 19.1634 17.8108 19.3588C18.0666 19.6275 18.3711 19.7221 18.7226 19.643C19.0746 19.564 19.5279 19.3505 20.083 19.0031C20.4939 18.7504 20.8744 18.5478 21.2253 18.3948C21.5763 18.2418 21.9066 18.1539 22.2162 18.1311C22.5253 18.1084 22.8168 18.1539 23.0903 18.2671C23.3637 18.3803 23.6315 18.5736 23.8925 18.8481C24.122 19.0884 24.2879 19.3577 24.3902 19.6554C24.4926 19.9532 24.5189 20.2695 24.4698 20.6045C24.4213 20.9399 24.2926 21.2867 24.0842 21.6455C23.8759 22.0042 23.5792 22.3676 23.1931 22.7356ZM23.8232 12.9007L21.6021 14.4798L20.9033 13.4972L26.4795 9.53218L27.1783 10.5148L24.9573 12.0944L28.9626 17.7269L27.8286 18.5333L23.8232 12.9007ZM34.6613 14.4008C34.2209 14.6266 33.7661 14.7729 33.2962 14.8396C32.8269 14.9063 32.3658 14.8711 31.913 14.7336C31.4608 14.5961 31.0261 14.3413 30.6089 13.9681C30.1923 13.5954 29.8145 13.0786 29.4764 12.418L29.3705 12.2117C29.0464 11.5785 28.8582 10.9908 28.8065 10.4486C28.7543 9.90641 28.806 9.4133 28.9606 8.96929C29.1151 8.52528 29.3581 8.13348 29.6884 7.79492C30.0186 7.45636 30.4037 7.17465 30.8446 6.94877C31.2845 6.72341 31.7388 6.57558 32.2066 6.50528C32.6744 6.43499 33.1339 6.46703 33.5847 6.60091C34.0354 6.73478 34.4654 6.98134 34.8753 7.34006C35.2852 7.6993 35.6522 8.19551 35.9763 8.82818L36.0823 9.03494C36.4203 9.69552 36.6188 10.3039 36.6782 10.8601C36.7372 11.4157 36.6901 11.9176 36.5371 12.3652C36.3841 12.8129 36.1433 13.2078 35.8145 13.5494C35.4863 13.8916 35.1017 14.1754 34.6613 14.4008ZM34.101 13.307C34.3553 13.1762 34.5802 13.0046 34.775 12.7922C34.9704 12.5792 35.1084 12.3239 35.1906 12.0257C35.2723 11.7274 35.2852 11.3842 35.2299 10.996C35.1741 10.6073 35.0247 10.1757 34.7818 9.70121L34.6758 9.49445C34.4432 9.04062 34.1899 8.68604 33.916 8.43121C33.642 8.17587 33.3619 7.99806 33.076 7.89726C32.7897 7.79595 32.5033 7.76287 32.2165 7.79647C31.9301 7.83059 31.6592 7.91277 31.4049 8.04303C31.1434 8.1769 30.9149 8.35058 30.7201 8.56302C30.5252 8.77598 30.3846 9.0277 30.2993 9.31922C30.214 9.61023 30.1965 9.94104 30.2471 10.3101C30.2972 10.6797 30.4384 11.0916 30.671 11.5455L30.7769 11.7522C31.0199 12.2267 31.2814 12.6015 31.5605 12.8749C31.8396 13.1489 32.1244 13.3401 32.4139 13.4476C32.7039 13.5556 32.9918 13.5923 33.2787 13.5587C33.565 13.5246 33.8395 13.4409 34.101 13.307ZM36.9827 4.20616L38.277 3.83865L43.6981 8.32628L42.1144 2.74905L43.4526 2.36862L45.67 10.1773L44.3763 10.5448L38.9551 6.05714L40.5389 11.6349L39.2001 12.0148L36.9827 4.20616ZM50.9873 1.0795L54.0591 1.00197C54.5693 0.989048 55.0169 1.0397 55.4025 1.15342C55.7886 1.26765 56.1117 1.43357 56.3722 1.65118C56.6332 1.86879 56.8333 2.13034 56.9723 2.43634C57.1114 2.74233 57.1858 3.08038 57.1951 3.45151C57.2091 4.00768 57.0705 4.49304 56.7795 4.90603C56.4885 5.31954 56.0435 5.62295 55.4454 5.81575L57.5683 9.03339L56.0378 9.07215L54.1625 6.01062L52.5048 6.05249L52.5834 9.15951L51.1925 9.19465L50.9873 1.0795ZM53.9247 4.85641C54.6355 4.83883 55.1291 4.71013 55.4056 4.47133C55.6816 4.23201 55.8145 3.90378 55.8041 3.48665C55.7933 3.06952 55.6439 2.74802 55.356 2.52369C55.0681 2.29884 54.5688 2.19547 53.8575 2.21356L52.4087 2.25026L52.4754 4.89311L53.9247 4.85641ZM60.5306 1.08571L65.9372 1.77317L65.7853 2.96925L61.7592 2.45753L61.4899 4.57419L65.1712 5.04197L65.0192 6.23857L61.338 5.77078L61.0397 8.11746L65.0663 8.62918L64.9143 9.82578L59.5071 9.13831L60.5306 1.08571ZM69.1487 11.0622C68.6431 10.9185 68.2203 10.7381 67.8802 10.521C67.5396 10.3039 67.2734 10.0594 67.0816 9.78804C66.8893 9.51668 66.7648 9.22618 66.7084 8.91657C66.6516 8.60695 66.6547 8.28441 66.7177 7.94895L68.0565 8.32887C68.042 8.49375 68.0518 8.64934 68.0865 8.79562C68.1216 8.94241 68.1919 9.08301 68.2984 9.2174C68.4049 9.35231 68.5527 9.47429 68.7424 9.58491C68.9326 9.695 69.1797 9.79321 69.4846 9.87953C69.7968 9.96844 70.0708 10.016 70.306 10.0227C70.5412 10.0289 70.7407 10.0056 70.9045 9.95138C71.0689 9.89762 71.2007 9.8144 71.301 9.70224C71.4013 9.59007 71.4726 9.45982 71.5145 9.31095C71.6178 8.94655 71.5269 8.62349 71.2415 8.34127C70.9557 8.05957 70.4771 7.74271 69.8056 7.39123C69.4293 7.18809 69.1021 6.9803 68.8251 6.7689C68.5475 6.55749 68.3304 6.33109 68.1738 6.09022C68.0172 5.84883 67.9216 5.58419 67.8864 5.29731C67.8518 5.00992 67.8849 4.6879 67.9862 4.33073C68.0684 4.04076 68.2079 3.78335 68.4049 3.55798C68.6013 3.3321 68.8463 3.15688 69.1388 3.03076C69.4319 2.90515 69.771 2.83641 70.1556 2.82555C70.5406 2.81418 70.9676 2.87517 71.4359 3.00801C71.8897 3.13672 72.2727 3.30212 72.5849 3.50319C72.8977 3.70426 73.1442 3.93325 73.3246 4.18911C73.505 4.44548 73.6234 4.72202 73.6797 5.01923C73.7355 5.31644 73.7345 5.62554 73.6756 5.94653L72.3368 5.56661C72.3575 5.26682 72.2717 4.99545 72.0799 4.752C71.8877 4.50854 71.5615 4.32143 71.0999 4.19066C70.5649 4.03869 70.1535 4.02215 69.8661 4.14155C69.5792 4.26095 69.3988 4.45065 69.3249 4.71116C69.2236 5.06833 69.296 5.37795 69.543 5.64105C69.7896 5.90414 70.2041 6.18636 70.7851 6.48771C71.2116 6.71359 71.5796 6.93844 71.8892 7.16328C72.1993 7.38761 72.4428 7.62745 72.6196 7.88279C72.7958 8.13762 72.9049 8.41209 72.9462 8.70516C72.9876 8.99824 72.9566 9.32698 72.8532 9.69087C72.7622 10.0108 72.6149 10.2905 72.4102 10.5298C72.2055 10.7691 71.9466 10.9526 71.6328 11.0803C71.3191 11.2085 70.9552 11.2736 70.5406 11.2767C70.1261 11.2793 69.6619 11.2079 69.1487 11.0622ZM77.0834 5.09056L79.778 6.30887C80.7714 6.75804 81.4077 7.30233 81.6868 7.94172C81.9665 8.58111 81.9437 9.2603 81.6186 9.97877C81.294 10.6973 80.7993 11.163 80.1346 11.3759C79.4699 11.5889 78.6408 11.4705 77.6473 11.0213L76.2212 10.3768L75.0076 13.0605L73.7397 12.4872L77.0834 5.09056ZM78.0386 9.87488C78.37 10.0248 78.6599 10.124 78.9091 10.1731C79.1587 10.2222 79.3732 10.2258 79.5531 10.184C79.7335 10.1426 79.8875 10.0553 80.0152 9.92243C80.1434 9.78908 80.255 9.61695 80.3507 9.40554C80.4463 9.19414 80.5011 8.99824 80.5145 8.81784C80.5285 8.63745 80.4923 8.46429 80.406 8.29785C80.3202 8.13193 80.176 7.97118 79.9744 7.81663C79.7733 7.66208 79.5066 7.5096 79.1758 7.36022L77.8546 6.76269L76.718 9.27787L78.0386 9.87488ZM83.1326 17.8303C82.7232 17.5388 82.3919 17.2178 82.1386 16.8668C81.8853 16.5164 81.7225 16.1442 81.6506 15.7519C81.5788 15.3591 81.6021 14.9466 81.7204 14.5134C81.8383 14.0803 82.0631 13.6311 82.395 13.1649L85.2172 9.19569L86.3517 10.002L83.5761 13.9051C83.1326 14.5289 82.9387 15.081 82.9951 15.5622C83.0514 16.0434 83.3347 16.4657 83.8448 16.8286C84.3617 17.1956 84.8548 17.3258 85.3247 17.2188C85.7945 17.1118 86.2489 16.7495 86.6877 16.1323L89.4701 12.2195L90.6042 13.0263L87.7815 16.9955C87.4501 17.4618 87.0992 17.8215 86.7291 18.0753C86.359 18.3291 85.9765 18.4862 85.5821 18.5478C85.1877 18.6087 84.7835 18.5772 84.369 18.4532C83.9544 18.3291 83.5419 18.1213 83.1326 17.8303ZM92.6604 14.8551L95.0107 17.0958C95.6764 17.7306 96.0284 18.3389 96.0672 18.9204C96.1054 19.5019 95.8982 20.0302 95.4443 20.5057C95.1564 20.8081 94.8313 20.9921 94.4695 21.0583C94.1071 21.1244 93.7438 21.0743 93.3788 20.9079C93.6512 21.3167 93.7758 21.738 93.7536 22.1701C93.7308 22.6027 93.5386 23.009 93.1757 23.39C92.941 23.636 92.6872 23.8236 92.4138 23.9534C92.1409 24.0831 91.8525 24.1415 91.5485 24.1296C91.2451 24.1177 90.9257 24.0299 90.5907 23.8655C90.2563 23.7016 89.9069 23.4458 89.5435 23.099L87.0588 20.7306L92.6604 14.8551ZM90.2667 22.122C90.7029 22.5381 91.0704 22.7552 91.3687 22.7728C91.6674 22.7899 91.9553 22.6534 92.2324 22.3624C92.3657 22.2223 92.4665 22.0781 92.5337 21.9287C92.6014 21.7793 92.6263 21.6243 92.6087 21.4635C92.5911 21.3028 92.527 21.1317 92.4164 20.9513C92.3053 20.7709 92.1409 20.5765 91.9223 20.3682L90.5628 19.0719L88.8985 20.8179L90.2667 22.122ZM92.5482 19.4265C92.9395 19.8002 93.2817 19.9873 93.5742 19.9888C93.8668 19.9899 94.1304 19.8674 94.3651 19.6213C94.6054 19.3696 94.7124 19.106 94.6871 18.8305C94.6612 18.5545 94.4498 18.2273 94.0523 17.8489L92.8356 16.6885L91.3309 18.2666L92.5482 19.4265ZM99.2135 21.7214L100.02 22.8555L94.3873 26.8609L96.6725 30.0738L95.6893 30.7732L92.5983 26.4257L99.2135 21.7214ZM103.548 28.182L104.242 29.3885L97.2043 33.4347L96.5112 32.2282L103.548 28.182ZM105.743 31.9739L106.253 33.2682L102.65 34.6891L107.512 36.4616L108.125 38.0153L103.925 36.4052L100.658 41.2081L100.037 39.6332L102.689 35.895L101.129 35.2887L98.7012 36.246L98.1911 34.9512L105.743 31.9739ZM103.933 46.7011L103.192 43.4918L101.253 43.2375L100.94 41.8811L109.54 43.0503L109.854 44.4061L102.635 49.2261L102.301 47.7799L103.933 46.7011ZM104.469 43.6613L105.006 45.9889L107.994 44.0851L104.469 43.6613ZM102.711 52.7668C102.67 52.2427 102.694 51.7837 102.78 51.3893C102.866 50.9949 103.004 50.661 103.192 50.3871C103.381 50.1126 103.611 49.8955 103.882 49.7353C104.152 49.5755 104.456 49.467 104.793 49.4101L104.898 50.798C104.739 50.8409 104.596 50.9039 104.471 50.9872C104.345 51.0704 104.238 51.1856 104.148 51.3319C104.058 51.4782 103.995 51.6596 103.957 51.8752C103.919 52.0918 103.912 52.3574 103.936 52.6738C103.961 52.9973 104.011 53.2708 104.086 53.4941C104.161 53.7169 104.252 53.8962 104.359 54.0311C104.467 54.1665 104.59 54.2617 104.73 54.317C104.87 54.3723 105.017 54.394 105.171 54.3826C105.548 54.3537 105.82 54.1567 105.987 53.7913C106.153 53.4258 106.285 52.8671 106.383 52.1155C106.444 51.6922 106.525 51.3138 106.628 50.9804C106.73 50.6471 106.868 50.3653 107.04 50.1348C107.213 49.9048 107.428 49.7239 107.685 49.5916C107.943 49.4598 108.256 49.3796 108.627 49.3517C108.927 49.3285 109.217 49.3703 109.496 49.4773C109.776 49.5838 110.025 49.7528 110.244 49.9844C110.464 50.216 110.645 50.5101 110.789 50.8678C110.932 51.2249 111.022 51.6467 111.059 52.1321C111.095 52.6024 111.072 53.019 110.991 53.3819C110.91 53.7442 110.781 54.0549 110.603 54.3128C110.424 54.5702 110.206 54.777 109.946 54.9326C109.687 55.0876 109.396 55.1931 109.075 55.2484L108.969 53.8611C109.258 53.7773 109.483 53.6031 109.645 53.3385C109.807 53.0744 109.87 52.7032 109.833 52.2256C109.791 51.6705 109.664 51.2787 109.453 51.0507C109.242 50.8223 109.002 50.7184 108.732 50.7391C108.362 50.767 108.096 50.9427 107.934 51.2647C107.773 51.5873 107.651 52.0731 107.568 52.7234C107.504 53.201 107.42 53.6243 107.316 53.9924C107.212 54.3609 107.071 54.6721 106.893 54.9259C106.715 55.1802 106.495 55.3771 106.234 55.5172C105.973 55.6567 105.654 55.7415 105.277 55.7699C104.945 55.7953 104.632 55.7534 104.336 55.6438C104.041 55.5342 103.78 55.3549 103.551 55.1047C103.323 54.8545 103.136 54.5351 102.99 54.1469C102.844 53.7587 102.751 53.2987 102.711 52.7668ZM111.036 57.5992L111.001 58.9907L102.886 58.7855L102.921 57.394L111.036 57.5992Z" fill="#E4A216"/>
<path d="M20.1274 86.0323L21.1193 87.0733L19.4208 92.2654L24.6885 90.8166L25.6483 91.8235L19.7734 97.425L18.813 96.4176L22.9259 92.497L18.5499 93.7049L17.9095 93.033L19.3247 88.7201L15.2123 92.6407L14.252 91.6338L20.1274 86.0323ZM27.1597 100.504L24.4755 98.5947L22.8561 99.6915L21.722 98.8847L28.9311 94.0507L30.0651 94.8571L27.8652 103.253L26.6552 102.393L27.1597 100.504ZM25.5434 97.8742L27.49 99.2584L28.4617 95.8511L25.5434 97.8742ZM33.3412 97.0229L36.1412 98.2887C36.6064 98.4986 36.9878 98.7389 37.2855 99.0093C37.5833 99.2796 37.8019 99.5696 37.942 99.8792C38.0821 100.188 38.1487 100.511 38.141 100.847C38.1332 101.183 38.0531 101.52 37.9001 101.858C37.6706 102.365 37.3352 102.742 36.8932 102.987C36.4513 103.233 35.9189 103.312 35.2966 103.226L35.8088 107.047L34.4142 106.416L34.0565 102.844L32.5457 102.161L31.2653 104.993L29.9974 104.42L33.3412 97.0229ZM34.3439 101.701C34.9921 101.994 35.4925 102.093 35.845 101.998C36.198 101.903 36.4601 101.665 36.6322 101.285C36.8043 100.904 36.8095 100.551 36.6477 100.223C36.4859 99.8952 36.0812 99.5851 35.433 99.292L34.1124 98.695L33.0233 101.104L34.3439 101.701ZM40.6159 100.202L41.9546 100.583L40.8965 104.308L45.2565 101.52L46.863 101.976L43.0344 104.337L44.8688 109.848L43.2401 109.386L41.8791 105.009L40.4499 105.881L39.7377 108.391L38.3989 108.011L40.6159 100.202ZM52.2247 108.878L48.9409 108.628L48.12 110.403L46.7322 110.298L50.4119 102.436L51.7993 102.542L54.2483 110.869L52.7684 110.757L52.2247 108.878ZM49.4836 107.46L51.8654 107.641L50.9392 104.221L49.4836 107.46ZM56.1205 109.913L60.0271 103.778L55.7948 104.1L55.7033 102.897L61.6005 102.449L61.6832 103.536L57.7771 109.671L62.2404 109.331L62.3319 110.534L56.2032 111L56.1205 109.913ZM63.6898 102.122L65.0595 101.877L66.4867 109.869L65.1169 110.114L63.6898 102.122ZM70.9262 105.596L66.3621 101.876L67.9215 101.348L71.1609 104.047L71.9419 99.9877L73.3918 99.4972L72.2443 105.15L73.2476 108.116L71.9295 108.562L70.9262 105.596ZM77.0917 97.8478L79.9061 96.2294C80.7037 95.7709 81.387 95.6055 81.9551 95.7332C82.5236 95.8614 82.9718 96.2103 83.2995 96.7799C83.5073 97.1417 83.592 97.5056 83.5528 97.8716C83.5135 98.2375 83.362 98.572 83.0995 98.8744C83.5688 98.7296 84.0076 98.7291 84.416 98.8733C84.8243 99.0175 85.1598 99.3173 85.4218 99.7732C85.5914 100.068 85.6994 100.365 85.7464 100.663C85.7935 100.962 85.7676 101.255 85.6705 101.543C85.5728 101.831 85.3981 102.112 85.1453 102.387C84.8931 102.661 84.5488 102.924 84.1136 103.174L81.1379 104.885L77.0917 97.8478ZM83.3817 102.204C83.9043 101.903 84.2165 101.612 84.3178 101.331C84.4191 101.049 84.3695 100.735 84.1694 100.386C84.0728 100.219 83.9627 100.081 83.8386 99.9743C83.7146 99.8673 83.5729 99.7996 83.4137 99.7706C83.2545 99.7417 83.0726 99.7551 82.8679 99.8099C82.6637 99.8652 82.4306 99.9681 82.1691 100.119L80.5403 101.055L81.7431 103.146L83.3817 102.204ZM81.4433 99.2517C81.9127 98.9819 82.1892 98.7069 82.2735 98.4267C82.3572 98.1466 82.3148 97.8587 82.1448 97.564C81.9716 97.2622 81.7493 97.0849 81.4775 97.0316C81.2061 96.9779 80.8324 97.088 80.3568 97.3614L78.8987 98.1998L79.9857 100.09L81.4433 99.2517ZM90.9686 96.0356L88.379 98.0706L88.9729 99.934L87.8786 100.794L85.2797 92.5125L86.3734 91.6524L93.8058 96.1364L92.6386 97.0534L90.9686 96.0356ZM87.9892 96.843L89.8676 95.3667L86.8738 93.4718L87.9892 96.843ZM89.0597 89.3409L89.9405 88.3241L96.935 89.1052L92.5523 85.3091L93.4636 84.2573L99.5991 89.5719L98.7183 90.5886L91.7237 89.8076L96.1064 93.6042L95.1952 94.6555L89.0597 89.3409ZM94.5651 82.9066L95.2587 81.7002L98.6165 83.6313L96.9696 78.7245L97.8018 77.2772L99.1628 81.5643L104.955 81.1223L104.111 82.5898L99.5344 82.8482L100.034 84.4459L102.296 85.7464L101.602 86.9528L94.5651 82.9066ZM98.6635 75.3761L99.2367 74.1082L106.633 77.4519L106.06 78.7203L98.6635 75.3761Z" fill="#E4A216"/>
<path fill-rule="evenodd" clip-rule="evenodd" d="M105.468 65.4802C107.035 65.4802 108.306 66.7513 108.306 68.319C108.306 69.8867 107.035 71.1578 105.468 71.1578C103.9 71.1578 102.629 69.8867 102.629 68.319C102.629 66.7513 103.9 65.4802 105.468 65.4802Z" fill="#E4A216"/>
</g>
<defs>
<radialGradient id="paint0_radial_17103_43561" cx="0" cy="0" r="1" gradientUnits="userSpaceOnUse" gradientTransform="translate(82.9426 32.1256) rotate(144.287) scale(86.545 88.9384)">
<stop stop-color="#E4A237"/>
<stop offset="0.501961" stop-color="#F0B644"/>
<stop offset="1" stop-color="#E7C66E"/>
</radialGradient>
<clipPath id="clip0_17103_43561">
<rect width="112" height="112" fill="white"/>
</clipPath>
</defs>
</svg>
