<svg width="143" height="104" viewBox="0 0 143 104" fill="none" xmlns="http://www.w3.org/2000/svg">
<circle cx="71.7498" cy="51.8182" r="51.8182" fill="#EEE9FF"/>
<circle cx="17.34" cy="12.9553" r="5.18182" fill="#D4D1FF"/>
<circle cx="128.75" cy="81.6129" r="3.88636" fill="#D4D1FF"/>
<circle cx="16.6941" cy="89.3855" r="6.47727" fill="#D4D1FF"/>
<circle cx="136.522" cy="29.7956" r="6.47727" fill="#D4D1FF"/>
<circle cx="124.216" cy="7.12589" r="4.53409" fill="#D4D1FF"/>
<g filter="url(#filter0_dd_5182_65094)">
<path fill-rule="evenodd" clip-rule="evenodd" d="M74.0088 10.3633C63.1684 10.3633 53.5791 15.7199 47.7435 23.9307C45.8379 23.4814 43.8507 23.2436 41.8079 23.2436C27.5805 23.2436 16.0469 34.7772 16.0469 49.0046C16.0469 63.2319 27.5803 74.7655 41.8075 74.7657V74.7659H106.21V74.7656C106.21 74.7656 106.211 74.7656 106.211 74.7656C118.66 74.7656 128.752 64.6737 128.752 52.2247C128.752 39.7757 118.66 29.6838 106.211 29.6838C105.327 29.6838 104.454 29.7347 103.596 29.8339C98.6612 18.381 87.2713 10.3633 74.0088 10.3633Z" fill="#F6F8FB"/>
<circle cx="41.806" cy="49.0052" r="25.761" fill="url(#paint0_linear_5182_65094)"/>
<circle cx="74.0079" cy="42.5646" r="32.2013" fill="url(#paint1_linear_5182_65094)"/>
<circle cx="106.209" cy="52.2245" r="22.5409" fill="url(#paint2_linear_5182_65094)"/>
</g>
<g filter="url(#filter1_b_5182_65094)">
<rect x="56.2051" y="59.5918" width="31.0909" height="31.0909" rx="15.5455" fill="#635AFF"/>
<path d="M77.579 80.9657L74.7614 78.1481M76.2836 74.4885C76.2836 77.3503 73.9636 79.6703 71.1017 79.6703C68.2399 79.6703 65.9199 77.3503 65.9199 74.4885C65.9199 71.6266 68.2399 69.3066 71.1017 69.3066C73.9636 69.3066 76.2836 71.6266 76.2836 74.4885Z" stroke="white" stroke-width="1.29545" stroke-linecap="round" stroke-linejoin="round"/>
</g>
<defs>
<filter id="filter0_dd_5182_65094" x="3.09038" y="10.3633" width="138.616" height="90.3114" filterUnits="userSpaceOnUse" color-interpolation-filters="sRGB">
<feFlood flood-opacity="0" result="BackgroundImageFix"/>
<feColorMatrix in="SourceAlpha" type="matrix" values="0 0 0 0 0 0 0 0 0 0 0 0 0 0 0 0 0 0 127 0" result="hardAlpha"/>
<feMorphology radius="2.59091" operator="erode" in="SourceAlpha" result="effect1_dropShadow_5182_65094"/>
<feOffset dy="5.18182"/>
<feGaussianBlur stdDeviation="2.59091"/>
<feColorMatrix type="matrix" values="0 0 0 0 0.0627451 0 0 0 0 0.0941176 0 0 0 0 0.156863 0 0 0 0.03 0"/>
<feBlend mode="normal" in2="BackgroundImageFix" result="effect1_dropShadow_5182_65094"/>
<feColorMatrix in="SourceAlpha" type="matrix" values="0 0 0 0 0 0 0 0 0 0 0 0 0 0 0 0 0 0 127 0" result="hardAlpha"/>
<feMorphology radius="2.59091" operator="erode" in="SourceAlpha" result="effect2_dropShadow_5182_65094"/>
<feOffset dy="12.9545"/>
<feGaussianBlur stdDeviation="7.77273"/>
<feColorMatrix type="matrix" values="0 0 0 0 0.0627451 0 0 0 0 0.0941176 0 0 0 0 0.156863 0 0 0 0.08 0"/>
<feBlend mode="normal" in2="effect1_dropShadow_5182_65094" result="effect2_dropShadow_5182_65094"/>
<feBlend mode="normal" in="SourceGraphic" in2="effect2_dropShadow_5182_65094" result="shape"/>
</filter>
<filter id="filter1_b_5182_65094" x="49.296" y="52.6827" width="44.91" height="44.91" filterUnits="userSpaceOnUse" color-interpolation-filters="sRGB">
<feFlood flood-opacity="0" result="BackgroundImageFix"/>
<feGaussianBlur in="BackgroundImageFix" stdDeviation="3.45455"/>
<feComposite in2="SourceAlpha" operator="in" result="effect1_backgroundBlur_5182_65094"/>
<feBlend mode="normal" in="SourceGraphic" in2="effect1_backgroundBlur_5182_65094" result="shape"/>
</filter>
<linearGradient id="paint0_linear_5182_65094" x1="22.0252" y1="31.9845" x2="67.567" y2="74.7662" gradientUnits="userSpaceOnUse">
<stop stop-color="#D7D9FF"/>
<stop offset="0.350715" stop-color="white" stop-opacity="0"/>
</linearGradient>
<linearGradient id="paint1_linear_5182_65094" x1="49.2819" y1="21.2887" x2="106.209" y2="74.7658" gradientUnits="userSpaceOnUse">
<stop stop-color="#D7D9FF"/>
<stop offset="0.350715" stop-color="white" stop-opacity="0"/>
</linearGradient>
<linearGradient id="paint2_linear_5182_65094" x1="88.9007" y1="37.3314" x2="128.75" y2="74.7654" gradientUnits="userSpaceOnUse">
<stop stop-color="#D7D9FF"/>
<stop offset="0.350715" stop-color="white" stop-opacity="0"/>
</linearGradient>
</defs>
</svg>
