<svg width="153" height="26" viewBox="0 0 153 26" fill="none" xmlns="http://www.w3.org/2000/svg">
<g clip-path="url(#clip0_17501_38793)">
<path fill-rule="evenodd" clip-rule="evenodd" d="M2.59935 6.0083H5.33432C5.37953 6.25791 5.44734 6.48484 5.56036 6.71176C5.60556 6.77984 5.62817 6.84791 5.67337 6.91599C6.46448 8.27753 8.36314 8.89022 10.4426 8.59522C10.8495 8.52715 11.2789 8.45907 11.6632 8.32292C12.0474 8.20945 12.4317 8.05061 12.8159 7.86907L12.8838 7.84638C13.1098 7.73291 13.3132 7.64215 13.494 7.52868C14.2399 7.09753 14.8502 6.57561 15.3249 6.0083H17.2913C18.7153 6.0083 19.8907 7.1883 19.8907 8.61792V23.4133C19.8907 24.8429 18.7153 26.0002 17.2913 26.0002H2.59935C1.17536 26.0002 0 24.8202 0 23.4133V8.59522C0 7.16561 1.17536 6.0083 2.59935 6.0083ZM7.59463 19.8279L7.54943 10.2063C7.54943 10.0248 7.68504 9.88869 7.84327 9.88869H11.9796C12.1378 9.88869 12.2735 10.0248 12.2735 10.2063L12.3187 19.8279H14.7146C14.8728 19.8279 15.0084 20.0321 15.0084 20.259V21.3256C15.0084 21.5752 14.8728 21.7567 14.7146 21.7567H5.1761C5.01788 21.7567 4.88226 21.5525 4.88226 21.3256V20.259C4.88226 20.0094 5.01788 19.8279 5.1761 19.8279H7.59463Z" fill="#4E7CD8"/>
<path fill-rule="evenodd" clip-rule="evenodd" d="M8.45353 0.629951C10.6687 -0.436588 13.155 -0.118896 13.9913 1.35611C14.8502 2.80841 13.7427 4.85073 11.5276 5.91726C9.31245 6.9838 6.84871 6.66611 5.9898 5.19111C5.15348 3.7388 6.23843 1.69649 8.45353 0.629951ZM15.1441 3.87495C15.0085 5.05496 13.9913 6.30303 12.4317 7.07457C11.1207 7.70996 9.7193 7.84611 8.61175 7.55111C8.9282 7.55111 9.24464 7.52842 9.56108 7.48304C9.96794 7.43765 10.3748 7.34688 10.7817 7.21073C11.1659 7.09727 11.5502 6.93842 11.9344 6.75688L12.0023 6.73419C12.2057 6.64342 12.4091 6.52996 12.6125 6.4165C13.7879 5.71303 14.6468 4.80534 15.1441 3.87495ZM8.76998 1.03841C10.4878 0.221488 12.4543 0.471105 13.1098 1.60572C13.2454 1.83264 13.3132 2.10495 13.3358 2.37726C13.3132 2.30918 13.268 2.24111 13.2228 2.17303C12.5447 1.03841 10.6009 0.766105 8.88299 1.60572C7.5042 2.2638 6.69049 3.42111 6.7357 4.41957C6.28364 3.28495 7.14255 1.83264 8.76998 1.03841Z" fill="#E947CC"/>
<path fill-rule="evenodd" clip-rule="evenodd" d="M24.6819 25.2286C25.473 25.2059 26.0155 25.1605 26.2641 25.0697C26.784 24.8882 27.1456 24.457 27.3265 23.8217L31.056 10.3424C31.282 9.57089 31.2142 9.07165 30.8752 8.82204C30.6717 8.66319 30.1293 8.59511 29.2929 8.57242L29.4964 7.82358H36.7067L36.5033 8.57242C35.6444 8.66319 35.1019 8.75396 34.8985 8.82204C34.4012 9.02627 34.0622 9.45742 33.8814 10.1155L30.1745 23.4813C29.971 24.2528 30.0162 24.752 30.3779 24.979C30.6039 25.1378 31.1238 25.2059 31.9601 25.2286L31.7567 25.9774H24.4785L24.6819 25.2286ZM32.9094 25.3193C33.5423 25.3193 33.9944 25.2059 34.3334 25.0017C34.7177 24.752 34.9889 24.3436 35.1697 23.7309L37.317 16.0155C37.4752 15.4709 37.3848 15.1078 37.091 14.9263C36.8876 14.7901 36.4807 14.6993 35.893 14.6993L36.0965 13.9959C37.8369 13.9505 39.3061 13.8824 40.4815 13.7463L39.9616 15.607C40.8431 14.8809 41.476 14.4043 41.9054 14.1774C42.5835 13.8143 43.2842 13.6101 44.0301 13.6101C46.3809 13.6101 47.2398 14.7447 46.6295 17.014L44.7534 23.7763C44.5952 24.3663 44.5952 24.7747 44.7986 24.979C45.0021 25.1832 45.3863 25.274 45.9966 25.2513L45.7932 25.9774H39.826L40.0294 25.2513C40.6397 25.2286 41.0917 25.1605 41.3856 25.0017C41.7698 24.7974 42.0637 24.4117 42.1993 23.8443L43.9849 17.4451C44.211 16.6055 44.2788 15.9928 44.1432 15.607C43.9849 15.1078 43.5103 14.8582 42.6966 14.8582C41.9507 14.8582 41.2274 15.2666 40.4815 16.0836C39.8486 16.787 39.3965 17.5586 39.1931 18.3528C39.0349 18.9201 38.7862 19.8051 38.4698 20.9851C38.1533 22.1651 37.9047 23.0274 37.7465 23.6174C37.5657 24.2755 37.5657 24.7293 37.7465 24.9563C37.9273 25.1832 38.3568 25.274 39.0575 25.2513L38.854 25.9774H32.7286L32.9094 25.3193ZM50.1782 13.8824H51.9412C51.9864 13.7463 52.0316 13.5647 52.0994 13.3151C52.1672 13.0655 52.2124 12.8839 52.2577 12.7705C52.6645 11.2047 53.1618 10.0474 53.7495 9.25319C54.5858 8.11858 55.6933 7.55127 57.0721 7.55127C57.931 7.55127 58.5639 7.80088 58.9708 8.32281C59.4002 8.84473 59.4906 9.50281 59.2646 10.3424C59.1742 10.6828 58.9482 10.9778 58.5865 11.2501C58.2249 11.5224 57.8858 11.6586 57.5468 11.6586C57.1851 11.6586 56.9139 11.5224 56.7105 11.2274C56.5296 10.9324 56.4618 10.6147 56.5748 10.2516C56.62 10.0474 56.7783 9.77512 56.9817 9.45742C57.1851 9.13973 57.3207 8.91281 57.3659 8.75396C57.4564 8.45896 57.2529 8.30011 56.7557 8.30011C56.4844 8.30011 56.1906 8.45896 55.8741 8.75396C55.5577 9.04896 55.3769 9.34396 55.2865 9.66165C55.1508 10.1609 54.9926 10.8643 54.857 11.7493C54.6762 12.7478 54.5406 13.4286 54.4502 13.8143H57.1399L56.8913 14.6993H54.2015L51.7378 23.5947C51.557 24.2301 51.5796 24.6613 51.8056 24.9336C51.9864 25.1832 52.4159 25.2967 53.0714 25.2513L52.8905 25.9093H46.8555L47.0363 25.2513C47.6918 25.2059 48.1439 25.1378 48.3699 25.0243C48.7316 24.8428 49.0028 24.457 49.161 23.867L51.7152 14.6766H49.9521L50.1782 13.8824ZM55.0378 25.342C55.7159 25.2967 56.168 25.2059 56.394 25.0924C56.8235 24.9109 57.0947 24.5251 57.2529 23.9578L59.4454 16.0609C59.6037 15.4709 59.5584 15.0624 59.2646 14.8582C59.0838 14.722 58.6543 14.6313 58.0214 14.6086L58.2023 13.9959L62.5195 13.7916L59.7167 23.867C59.5358 24.4797 59.5811 24.8655 59.8071 25.047C59.9201 25.1151 60.3043 25.2286 61.005 25.342L60.8242 25.9774H54.857L55.0378 25.342ZM62.7455 7.80088H62.7229C63.1071 7.80088 63.4236 7.95973 63.627 8.27742C63.8304 8.59511 63.8756 8.9355 63.7852 9.34396C63.6722 9.77512 63.4236 10.1155 63.0393 10.3651C62.6551 10.6374 62.2482 10.7509 61.8188 10.7509C61.4345 10.7509 61.1407 10.592 60.9372 10.2743C60.7338 9.95665 60.666 9.61627 60.779 9.2305C60.892 8.84473 61.1407 8.50435 61.5475 8.20935C61.9318 7.93704 62.3386 7.80088 62.7455 7.80088ZM61.8414 25.3193C62.4742 25.3193 62.9263 25.2059 63.2654 25.0017C63.6496 24.752 63.9208 24.3436 64.1017 23.7309L66.249 16.0155C66.4072 15.4709 66.3168 15.1078 66.0229 14.9263C65.8195 14.7901 65.4126 14.6993 64.825 14.6993L65.0284 13.9959C66.7688 13.9505 68.238 13.8824 69.4134 13.7463L68.8935 15.607C69.775 14.8809 70.4079 14.4043 70.8374 14.1774C71.5155 13.8143 72.2162 13.6101 72.9621 13.6101C75.3128 13.6101 76.1717 14.7447 75.5614 17.014L73.6854 23.7763C73.5271 24.3663 73.5271 24.7747 73.7306 24.979C73.934 25.1832 74.3183 25.274 74.9285 25.2513L74.7251 25.9774H68.7579L68.9613 25.2513C69.5716 25.2286 70.0237 25.1605 70.3175 25.0017C70.7018 24.7974 70.9956 24.4117 71.1312 23.8443L72.9169 17.4451C73.1429 16.6055 73.2107 15.9928 73.0751 15.607C72.9169 15.1078 72.4422 14.8582 71.6285 14.8582C70.8826 14.8582 70.1593 15.2666 69.4134 16.0836C68.7805 16.787 68.3284 17.5586 68.125 18.3528C67.9668 18.9201 67.7182 19.8051 67.4017 20.9851C67.0853 22.1651 66.8366 23.0274 66.6784 23.6174C66.4976 24.2755 66.4976 24.7293 66.6784 24.9563C66.8592 25.1832 67.2887 25.274 67.9894 25.2513L67.786 25.9774H61.6605L61.8414 25.3193Z" fill="#E947CC"/>
<path d="M80.4894 7.46045H87.858C89.3272 7.46045 90.4122 7.52852 91.1355 7.64199C91.8588 7.75545 92.4917 8.02775 93.0567 8.41352C93.6218 8.79929 94.0965 9.32122 94.4807 9.9566C94.865 10.592 95.0458 11.3181 95.0458 12.1124C95.0458 12.9747 94.8198 13.7689 94.3451 14.495C93.8704 15.2212 93.2376 15.7658 92.4464 16.1289C93.5766 16.4466 94.4355 17.0139 95.0458 17.8081C95.6561 18.6024 95.9499 19.5327 95.9499 20.5993C95.9499 21.4389 95.7465 22.2558 95.3622 23.0501C94.978 23.8443 94.4355 24.4797 93.7574 24.9562C93.0793 25.4328 92.243 25.7278 91.2485 25.8412C90.6382 25.9093 89.1238 25.9547 86.7505 25.9774H80.4668V7.46045H80.4894ZM84.1963 10.5466V14.8354H86.6375C88.0841 14.8354 88.9882 14.8127 89.3498 14.7674C89.9827 14.6993 90.48 14.4724 90.8642 14.1093C91.2259 13.7462 91.4067 13.2697 91.4067 12.657C91.4067 12.0897 91.2485 11.6131 90.932 11.25C90.6156 10.887 90.1409 10.6827 89.5307 10.6147C89.169 10.5693 88.1067 10.5466 86.3436 10.5466H84.1963ZM84.1963 17.9216V22.8685H87.632C88.9656 22.8685 89.8245 22.8231 90.1861 22.7551C90.7512 22.6643 91.1807 22.4147 91.5423 22.0289C91.8814 21.6431 92.0622 21.1212 92.0622 20.4631C92.0622 19.8958 91.9266 19.442 91.6553 19.0562C91.3841 18.6704 90.9998 18.3754 90.5026 18.2166C90.0053 18.0351 88.8978 17.9443 87.2025 17.9443L84.1963 17.9216ZM115.705 25.9774H111.659L110.054 21.7793H102.686L101.171 25.9774H97.1931L104.381 7.46045H108.314L115.705 25.9774ZM108.856 18.6704L106.325 11.7947L103.838 18.6704H108.856ZM117.717 25.9774V7.46045H121.333L128.883 19.8277V7.46045H132.341V25.9774H128.611L121.175 13.905V25.9774H117.717ZM136.342 25.9774V7.46045H140.071V15.675L147.598 7.46045H152.616L145.677 14.6766L153 25.9774H148.186L143.123 17.2862L140.094 20.3724V25.9774H136.342Z" fill="#4E7CD8"/>
</g>
<defs>
<clipPath id="clip0_17501_38793">
<rect width="153" height="26" fill="white"/>
</clipPath>
</defs>
</svg>
