<svg width="32" height="32" viewBox="0 0 32 32" fill="none" xmlns="http://www.w3.org/2000/svg">
<circle cx="16" cy="16" r="16" fill="#635AFF"/>
<path d="M11.4746 23C11.2746 23 11.1213 22.9533 11.0146 22.86C10.9213 22.7533 10.8546 22.6333 10.8146 22.5L7.91461 13.24C7.90128 13.1733 7.89461 13.1133 7.89461 13.06C7.89461 12.94 7.93461 12.8333 8.01461 12.74C8.10794 12.6467 8.22128 12.6 8.35461 12.6H10.9346C11.1213 12.6 11.2679 12.6533 11.3746 12.76C11.4813 12.8533 11.5413 12.9467 11.5546 13.04L13.0146 17.98L14.5546 13.06C14.5813 12.9667 14.6479 12.8667 14.7546 12.76C14.8613 12.6533 15.0146 12.6 15.2146 12.6H16.7946C16.9946 12.6 17.1479 12.6533 17.2546 12.76C17.3613 12.8667 17.4279 12.9667 17.4546 13.06L18.9946 17.98L20.4546 13.04C20.4813 12.9467 20.5479 12.8533 20.6546 12.76C20.7613 12.6533 20.9079 12.6 21.0946 12.6H23.6746C23.7946 12.6 23.9013 12.6467 23.9946 12.74C24.0879 12.8333 24.1346 12.94 24.1346 13.06C24.1346 13.1133 24.1279 13.1733 24.1146 13.24L21.2146 22.5C21.1613 22.6333 21.0879 22.7533 20.9946 22.86C20.9013 22.9533 20.7546 23 20.5546 23H18.3146C18.1146 23 17.9613 22.9533 17.8546 22.86C17.7613 22.7533 17.6879 22.6333 17.6346 22.5L16.0146 17.74L14.3746 22.5C14.3346 22.6333 14.2613 22.7533 14.1546 22.86C14.0613 22.9533 13.9146 23 13.7146 23H11.4746Z" fill="white"/>
</svg>
