<svg width="90" height="19" viewBox="0 0 90 19" fill="none" xmlns="http://www.w3.org/2000/svg">
<path d="M0.40625 1.08984H6.86328C11.9375 1.08984 14.9258 4.11328 14.9258 9.48047C14.9258 14.8477 11.9375 18 6.86328 18H0.40625V1.08984ZM3.94531 4.00781V15.0703H6.44141C9.60547 15.0703 11.3164 13.1484 11.3164 9.49219C11.3164 5.95312 9.55859 4.00781 6.44141 4.00781H3.94531ZM22.6836 18.2695C18.8867 18.2695 16.4609 15.832 16.4609 11.707C16.4609 7.64062 18.9219 5.16797 22.6836 5.16797C26.4453 5.16797 28.9062 7.62891 28.9062 11.707C28.9062 15.8438 26.4805 18.2695 22.6836 18.2695ZM22.6836 15.6562C24.3594 15.6562 25.4258 14.2383 25.4258 11.7188C25.4258 9.22266 24.3477 7.78125 22.6836 7.78125C21.0195 7.78125 19.9297 9.22266 19.9297 11.7188C19.9297 14.2383 20.9961 15.6562 22.6836 15.6562ZM42.0898 10.1133H38.9141C38.7148 8.78906 37.8359 7.85156 36.4297 7.85156C34.7422 7.85156 33.6875 9.28125 33.6875 11.707C33.6875 14.1797 34.7422 15.5859 36.4414 15.5859C37.8125 15.5859 38.7031 14.7656 38.9141 13.3945H42.1016C41.9258 16.3594 39.7109 18.2695 36.4062 18.2695C32.6211 18.2695 30.2188 15.8086 30.2188 11.707C30.2188 7.67578 32.6211 5.16797 36.3828 5.16797C39.7812 5.16797 41.9375 7.26562 42.0898 10.1133ZM43.9883 18V1.08984H46.5195V18H43.9883ZM49.2031 18V5.67188H51.7344V18H49.2031ZM50.4688 3.86719C49.6602 3.86719 49.0039 3.22266 49.0039 2.42578C49.0039 1.61719 49.6602 0.972656 50.4688 0.972656C51.2891 0.972656 51.9453 1.61719 51.9453 2.42578C51.9453 3.22266 51.2891 3.86719 50.4688 3.86719ZM54.3242 18V5.67188H56.7383V7.73438H56.7969C57.4648 6.32812 58.7773 5.46094 60.6758 5.46094C63.3945 5.46094 64.9531 7.19531 64.9531 10.0195V18H62.4102V10.5117C62.4102 8.66016 61.543 7.64062 59.7852 7.64062C58.0039 7.64062 56.8555 8.90625 56.8555 10.8164V18H54.3242ZM72.5586 7.48828C70.7891 7.48828 69.5469 8.83594 69.418 10.6992H75.582C75.5234 8.8125 74.3281 7.48828 72.5586 7.48828ZM75.5703 14.3789H77.9727C77.6211 16.6289 75.4883 18.2344 72.6641 18.2344C69.043 18.2344 66.8516 15.7852 66.8516 11.8945C66.8516 8.02734 69.0781 5.44922 72.5586 5.44922C75.9805 5.44922 78.1133 7.86328 78.1133 11.6016V12.4688H69.4062V12.6211C69.4062 14.7656 70.6953 16.1836 72.7227 16.1836C74.1641 16.1836 75.2305 15.457 75.5703 14.3789ZM79.8594 9.16406C79.8594 6.96094 81.8047 5.44922 84.6875 5.44922C87.4297 5.44922 89.3516 6.98438 89.4336 9.17578H87.0547C86.9375 8.0625 86.0352 7.37109 84.6172 7.37109C83.2461 7.37109 82.332 8.03906 82.332 9.01172C82.332 9.77344 82.9414 10.2891 84.2188 10.6055L86.293 11.0859C88.7773 11.6836 89.7148 12.6211 89.7148 14.4375C89.7148 16.6875 87.6172 18.2344 84.5938 18.2344C81.6758 18.2344 79.7422 16.7227 79.543 14.4609H82.0508C82.25 15.6445 83.1641 16.3008 84.7109 16.3008C86.2344 16.3008 87.1719 15.668 87.1719 14.6719C87.1719 13.8867 86.7031 13.4531 85.4141 13.125L83.2109 12.5859C80.9844 12.0469 79.8594 10.8867 79.8594 9.16406Z" fill="white"/>
</svg>
