<svg width="36" height="36" viewBox="0 0 36 36" fill="none" xmlns="http://www.w3.org/2000/svg">
<path d="M18 3C9.72 3 3 9.72 3 18C3 26.28 9.72 33 18 33C26.28 33 33 26.28 33 18C33 9.72 26.28 3 18 3ZM23.07 18.645L25.26 19.905C26.205 20.445 26.52 21.66 25.98 22.605C25.44 23.55 24.225 23.865 23.28 23.325L21.09 22.065C20.595 21.78 19.965 22.14 19.965 22.71V25.23C19.965 26.31 19.08 27.21 17.985 27.21C16.89 27.21 16.005 26.325 16.005 25.23V22.71C16.005 22.14 15.375 21.765 14.88 22.065L12.69 23.325C11.745 23.865 10.53 23.55 9.99001 22.605C9.45001 21.66 9.765 20.445 10.71 19.905L12.9 18.645C13.395 18.36 13.395 17.64 12.9 17.34L10.71 16.08C9.765 15.54 9.45001 14.325 9.99001 13.38C10.53 12.435 11.745 12.12 12.69 12.66L14.88 13.92C15.375 14.205 16.005 13.845 16.005 13.275V10.755C16.005 9.675 16.89 8.77501 17.985 8.77501C19.08 8.77501 19.965 9.66 19.965 10.755V13.275C19.965 13.845 20.595 14.22 21.09 13.92L23.28 12.66C24.225 12.12 25.44 12.435 25.98 13.38C26.52 14.325 26.205 15.54 25.26 16.08L23.07 17.34C22.575 17.64 22.575 18.36 23.07 18.645Z" fill="#635AFF"/>
</svg>
