<svg width="97" height="17" viewBox="0 0 97 17" fill="none" xmlns="http://www.w3.org/2000/svg">
<path d="M10.5703 5.4082L7.62695 16H4.56543L0.461914 0.499023H3.82422L6.2627 11.7246H6.34863L9.24902 0.499023H11.9883L14.8887 11.7246H14.9746L17.4238 0.499023H20.7861L16.6719 16H13.6104L10.667 5.4082H10.5703ZM30.4326 14.6572C29.4085 15.7171 28.0192 16.2471 26.2646 16.2471C24.5101 16.2471 23.1208 15.7135 22.0967 14.6465C21.0726 13.5794 20.5605 12.1077 20.5605 10.2314C20.5605 8.37663 21.0762 6.91569 22.1074 5.84863C23.1458 4.77441 24.5316 4.2373 26.2646 4.2373C28.0049 4.2373 29.3906 4.77441 30.4219 5.84863C31.4531 6.91569 31.9688 8.37663 31.9688 10.2314C31.9688 12.1149 31.4567 13.5902 30.4326 14.6572ZM26.2646 13.8516C27.0381 13.8516 27.6504 13.5365 28.1016 12.9062C28.5527 12.276 28.7783 11.388 28.7783 10.2422C28.7783 9.11068 28.5527 8.22624 28.1016 7.58887C27.6504 6.9515 27.0381 6.63281 26.2646 6.63281C25.4912 6.63281 24.8753 6.9515 24.417 7.58887C23.9658 8.22624 23.7402 9.11068 23.7402 10.2422C23.7402 11.388 23.9658 12.276 24.417 12.9062C24.8682 13.5365 25.484 13.8516 26.2646 13.8516ZM33.5908 16V4.48438H36.6201V6.55762H36.6846C36.8851 5.82715 37.2217 5.26855 37.6943 4.88184C38.167 4.49512 38.7435 4.30176 39.4238 4.30176C39.7533 4.30176 40.0505 4.34115 40.3154 4.41992V7.18066C40.0218 7.05892 39.6423 6.99805 39.1768 6.99805C38.4033 6.99805 37.8018 7.22363 37.3721 7.6748C36.9424 8.12598 36.7275 8.75618 36.7275 9.56543V16H33.5908ZM44.8594 9.10352L48.7695 4.48438H52.3252L47.9316 9.42578L52.54 16H48.9307L45.6328 11.3164L44.8164 12.1973V16H41.6797V0.499023H44.8164V9.10352H44.8594ZM53.3994 16V14.668L59.5869 6.39648V6.36426H53.4102V4.82812H61.7031V6.19238L55.5586 14.4316V14.4639H61.7354V16H53.3994ZM68.127 16.1934C66.5658 16.1934 65.3125 15.6742 64.3672 14.6357C63.4219 13.5902 62.9492 12.1829 62.9492 10.4141C62.9492 8.64518 63.4219 7.24154 64.3672 6.20312C65.3125 5.15755 66.5658 4.63477 68.127 4.63477C69.681 4.63477 70.9307 5.15755 71.876 6.20312C72.8213 7.24154 73.2939 8.64518 73.2939 10.4141C73.2939 12.1758 72.8213 13.5794 71.876 14.625C70.9307 15.6706 69.681 16.1934 68.127 16.1934ZM65.7314 13.4541C66.3258 14.1846 67.1243 14.5498 68.127 14.5498C69.1296 14.5498 69.9245 14.1882 70.5117 13.4648C71.099 12.7344 71.3926 11.7174 71.3926 10.4141C71.3926 9.11068 71.099 8.09733 70.5117 7.37402C69.9245 6.64355 69.1296 6.27832 68.127 6.27832C67.1243 6.27832 66.3258 6.64355 65.7314 7.37402C65.1442 8.10449 64.8506 9.11784 64.8506 10.4141C64.8506 11.7103 65.1442 12.7236 65.7314 13.4541ZM75.1846 16V4.82812H76.9463V6.61133H76.9893C77.3115 5.98828 77.7734 5.50488 78.375 5.16113C78.9766 4.81022 79.6963 4.63477 80.5342 4.63477C81.7516 4.63477 82.7005 5.00358 83.3809 5.74121C84.0612 6.47168 84.4014 7.47428 84.4014 8.74902V16H82.5322V9.08203C82.5322 8.17253 82.3174 7.48145 81.8877 7.00879C81.458 6.52897 80.8171 6.28906 79.9648 6.28906C79.084 6.28906 78.3786 6.57552 77.8486 7.14844C77.3187 7.72135 77.0537 8.48047 77.0537 9.42578V16H75.1846ZM91.2656 6.25684C90.3991 6.25684 89.6794 6.55762 89.1064 7.15918C88.5407 7.75358 88.2292 8.51986 88.1719 9.45801H94.2412C94.2197 8.5127 93.9368 7.74284 93.3926 7.14844C92.8483 6.55404 92.1393 6.25684 91.2656 6.25684ZM94.1982 12.7988H96.0352C95.8704 13.7871 95.3548 14.5999 94.4883 15.2373C93.6289 15.8747 92.5941 16.1934 91.3838 16.1934C89.7868 16.1934 88.5299 15.6777 87.6133 14.6465C86.6966 13.6152 86.2383 12.2188 86.2383 10.457C86.2383 8.70964 86.6966 7.30241 87.6133 6.23535C88.5371 5.16829 89.7653 4.63477 91.2979 4.63477C92.8018 4.63477 93.9906 5.13965 94.8643 6.14941C95.738 7.15918 96.1748 8.5127 96.1748 10.21V10.9189H88.1611V11.0264C88.1611 12.1006 88.4548 12.96 89.042 13.6045C89.6292 14.249 90.4242 14.5713 91.4268 14.5713C92.1286 14.5713 92.7266 14.4102 93.2207 14.0879C93.7148 13.7656 94.0407 13.3359 94.1982 12.7988Z" fill="#191F3F"/>
</svg>
