<svg width="97" height="32" viewBox="0 0 97 32" fill="none" xmlns="http://www.w3.org/2000/svg">
<path d="M4.56543 24L0.461914 8.49902H3.82422L6.27344 19.6064H6.33789L9.19531 8.49902H12.042L14.8994 19.6064H14.9639L17.4238 8.49902H20.7861L16.6719 24H13.5029L10.6562 13.6123H10.5918L7.73438 24H4.56543ZM26.2646 24.2363C22.7627 24.2363 20.5605 21.9912 20.5605 18.2422V18.2207C20.5605 14.5146 22.8164 12.248 26.2539 12.248C29.7021 12.248 31.9688 14.4932 31.9688 18.2207V18.2422C31.9688 22.002 29.7451 24.2363 26.2646 24.2363ZM26.2754 21.7764C27.8008 21.7764 28.7783 20.4873 28.7783 18.2422V18.2207C28.7783 15.9971 27.7793 14.708 26.2539 14.708C24.7393 14.708 23.751 15.9971 23.751 18.2207V18.2422C23.751 20.498 24.7285 21.7764 26.2754 21.7764ZM33.5908 24V12.4844H36.7275V14.4932H36.792C37.1357 13.0752 38.0703 12.248 39.4131 12.248C39.7568 12.248 40.0791 12.3018 40.3154 12.3662V15.127C40.0576 15.0195 39.6279 14.9551 39.1768 14.9551C37.6299 14.9551 36.7275 15.8789 36.7275 17.5547V24H33.5908ZM41.7119 24V8.49902H44.8486V17.0928H44.9131L48.8018 12.4844H52.3574L48.0068 17.4365L52.5723 24H48.9521L45.6543 19.2949L44.8486 20.1865V24H41.7119ZM53.3994 24V22.668L59.5762 14.4072V14.375H53.4102V12.8281H61.7031V14.1924L55.5693 22.4209V22.4531H61.7354V24H53.3994ZM68.127 24.2148C65.0225 24.2148 62.9492 21.9697 62.9492 18.4141V18.3926C62.9492 14.8369 65.0332 12.6133 68.1162 12.6133C71.1992 12.6133 73.2939 14.8262 73.2939 18.3926V18.4141C73.2939 21.9805 71.21 24.2148 68.127 24.2148ZM68.1377 22.5605C70.1035 22.5605 71.3818 21.0352 71.3818 18.4141V18.3926C71.3818 15.7715 70.0928 14.2676 68.1162 14.2676C66.1719 14.2676 64.8613 15.7822 64.8613 18.3926V18.4141C64.8613 21.0459 66.1611 22.5605 68.1377 22.5605ZM75.1846 24V12.8281H77.0537V14.418H77.0967C77.6982 13.376 78.8369 12.6133 80.5342 12.6133C82.9834 12.6133 84.4014 14.2031 84.4014 16.749V24H82.5322V17.082C82.5322 15.2666 81.6836 14.2676 79.9648 14.2676C78.2031 14.2676 77.0537 15.5244 77.0537 17.4258V24H75.1846ZM91.3838 24.2148C88.1719 24.2148 86.2383 21.9697 86.2383 18.457V18.4463C86.2383 14.9873 88.2148 12.6133 91.2656 12.6133C94.3164 12.6133 96.1748 14.8799 96.1748 18.2314V18.9189H88.1289C88.1719 21.2178 89.4395 22.5605 91.4268 22.5605C92.8447 22.5605 93.8438 21.8516 94.166 20.8955L94.1982 20.7988H96.0352L96.0137 20.9062C95.6484 22.7539 93.8223 24.2148 91.3838 24.2148ZM91.2549 14.2676C89.6328 14.2676 88.3652 15.374 88.1611 17.458H94.2734C94.0908 15.2881 92.8877 14.2676 91.2549 14.2676Z" fill="white"/>
</svg>
