<svg width="48" height="48" viewBox="0 0 48 48" fill="none" xmlns="http://www.w3.org/2000/svg">
<path d="M0 0H16V2.28571H0V0ZM22.8571 0H25.1429V2.28571H22.8571V0ZM27.4286 0H29.7143V2.28571H27.4286V0ZM32 0H48V2.28571H32V0ZM0 2.28571H2.28571V4.57143H0V2.28571ZM13.7143 2.28571H16V4.57143H13.7143V2.28571ZM22.8571 2.28571H25.1429V4.57143H22.8571V2.28571ZM32 2.28571H34.2857V4.57143H32V2.28571ZM45.7143 2.28571H48V4.57143H45.7143V2.28571ZM0 4.57143H2.28571V6.85714H0V4.57143ZM4.57143 4.57143H11.4286V6.85714H4.57143V4.57143ZM13.7143 4.57143H16V6.85714H13.7143V4.57143ZM18.2857 4.57143H20.5714V6.85714H18.2857V4.57143ZM22.8571 4.57143H29.7143V6.85714H22.8571V4.57143ZM32 4.57143H34.2857V6.85714H32V4.57143ZM36.5714 4.57143H43.4286V6.85714H36.5714V4.57143ZM45.7143 4.57143H48V6.85714H45.7143V4.57143ZM0 6.85714H2.28571V9.14286H0V6.85714ZM4.57143 6.85714H11.4286V9.14286H4.57143V6.85714ZM13.7143 6.85714H16V9.14286H13.7143V6.85714ZM18.2857 6.85714H22.8571V9.14286H18.2857V6.85714ZM25.1429 6.85714H27.4286V9.14286H25.1429V6.85714ZM32 6.85714H34.2857V9.14286H32V6.85714ZM36.5714 6.85714H43.4286V9.14286H36.5714V6.85714ZM45.7143 6.85714H48V9.14286H45.7143V6.85714ZM0 9.14286H2.28571V11.4286H0V9.14286ZM4.57143 9.14286H11.4286V11.4286H4.57143V9.14286ZM13.7143 9.14286H16V11.4286H13.7143V9.14286ZM18.2857 9.14286H22.8571V11.4286H18.2857V9.14286ZM27.4286 9.14286H29.7143V11.4286H27.4286V9.14286ZM32 9.14286H34.2857V11.4286H32V9.14286ZM36.5714 9.14286H43.4286V11.4286H36.5714V9.14286ZM45.7143 9.14286H48V11.4286H45.7143V9.14286ZM0 11.4286H2.28571V13.7143H0V11.4286ZM13.7143 11.4286H16V13.7143H13.7143V11.4286ZM18.2857 11.4286H20.5714V13.7143H18.2857V11.4286ZM22.8571 11.4286H25.1429V13.7143H22.8571V11.4286ZM27.4286 11.4286H29.7143V13.7143H27.4286V11.4286ZM32 11.4286H34.2857V13.7143H32V11.4286ZM45.7143 11.4286H48V13.7143H45.7143V11.4286ZM0 13.7143H16V16H0V13.7143ZM18.2857 13.7143H20.5714V16H18.2857V13.7143ZM22.8571 13.7143H25.1429V16H22.8571V13.7143ZM27.4286 13.7143H29.7143V16H27.4286V13.7143ZM32 13.7143H48V16H32V13.7143ZM18.2857 16H29.7143V18.2857H18.2857V16ZM0 18.2857H2.28571V20.5714H0V18.2857ZM4.57143 18.2857H16V20.5714H4.57143V18.2857ZM25.1429 18.2857H27.4286V20.5714H25.1429V18.2857ZM32 18.2857H43.4286V20.5714H32V18.2857ZM2.28571 20.5714H4.57143V22.8571H2.28571V20.5714ZM6.85714 20.5714H9.14286V22.8571H6.85714V20.5714ZM18.2857 20.5714H20.5714V22.8571H18.2857V20.5714ZM29.7143 20.5714H32V22.8571H29.7143V20.5714ZM34.2857 20.5714H48V22.8571H34.2857V20.5714ZM0 22.8571H4.57143V25.1429H0V22.8571ZM9.14286 22.8571H11.4286V25.1429H9.14286V22.8571ZM13.7143 22.8571H18.2857V25.1429H13.7143V22.8571ZM20.5714 22.8571H34.2857V25.1429H20.5714V22.8571ZM38.8571 22.8571H41.1429V25.1429H38.8571V22.8571ZM43.4286 22.8571H45.7143V25.1429H43.4286V22.8571ZM2.28571 25.1429H9.14286V27.4286H2.28571V25.1429ZM11.4286 25.1429H13.7143V27.4286H11.4286V25.1429ZM20.5714 25.1429H27.4286V27.4286H20.5714V25.1429ZM29.7143 25.1429H32V27.4286H29.7143V25.1429ZM36.5714 25.1429H48V27.4286H36.5714V25.1429ZM4.57143 27.4286H9.14286V29.7143H4.57143V27.4286ZM13.7143 27.4286H18.2857V29.7143H13.7143V27.4286ZM20.5714 27.4286H22.8571V29.7143H20.5714V27.4286ZM25.1429 27.4286H27.4286V29.7143H25.1429V27.4286ZM32 27.4286H34.2857V29.7143H32V27.4286ZM36.5714 27.4286H41.1429V29.7143H36.5714V27.4286ZM43.4286 27.4286H45.7143V29.7143H43.4286V27.4286ZM18.2857 29.7143H20.5714V32H18.2857V29.7143ZM22.8571 29.7143H25.1429V32H22.8571V29.7143ZM29.7143 29.7143H48V32H29.7143V29.7143ZM0 32H16V34.2857H0V32ZM25.1429 32H29.7143V34.2857H25.1429V32ZM38.8571 32H41.1429V34.2857H38.8571V32ZM43.4286 32H45.7143V34.2857H43.4286V32ZM0 34.2857H2.28571V36.5714H0V34.2857ZM13.7143 34.2857H16V36.5714H13.7143V34.2857ZM18.2857 34.2857H20.5714V36.5714H18.2857V34.2857ZM22.8571 34.2857H27.4286V36.5714H22.8571V34.2857ZM29.7143 34.2857H32V36.5714H29.7143V34.2857ZM36.5714 34.2857H38.8571V36.5714H36.5714V34.2857ZM41.1429 34.2857H43.4286V36.5714H41.1429V34.2857ZM45.7143 34.2857H48V36.5714H45.7143V34.2857ZM0 36.5714H2.28571V38.8571H0V36.5714ZM4.57143 36.5714H11.4286V38.8571H4.57143V36.5714ZM13.7143 36.5714H16V38.8571H13.7143V36.5714ZM18.2857 36.5714H22.8571V38.8571H18.2857V36.5714ZM27.4286 36.5714H29.7143V38.8571H27.4286V36.5714ZM32 36.5714H34.2857V38.8571H32V36.5714ZM36.5714 36.5714H38.8571V38.8571H36.5714V36.5714ZM43.4286 36.5714H48V38.8571H43.4286V36.5714ZM0 38.8571H2.28571V41.1429H0V38.8571ZM4.57143 38.8571H11.4286V41.1429H4.57143V38.8571ZM13.7143 38.8571H16V41.1429H13.7143V38.8571ZM18.2857 38.8571H22.8571V41.1429H18.2857V38.8571ZM29.7143 38.8571H32V41.1429H29.7143V38.8571ZM34.2857 38.8571H41.1429V41.1429H34.2857V38.8571ZM0 41.1429H2.28571V43.4286H0V41.1429ZM4.57143 41.1429H11.4286V43.4286H4.57143V41.1429ZM13.7143 41.1429H16V43.4286H13.7143V41.1429ZM18.2857 41.1429H20.5714V43.4286H18.2857V41.1429ZM25.1429 41.1429H32V43.4286H25.1429V41.1429ZM0 43.4286H2.28571V45.7143H0V43.4286ZM13.7143 43.4286H16V45.7143H13.7143V43.4286ZM20.5714 43.4286H22.8571V45.7143H20.5714V43.4286ZM36.5714 43.4286H43.4286V45.7143H36.5714V43.4286ZM0 45.7143H16V48H0V45.7143ZM18.2857 45.7143H20.5714V48H18.2857V45.7143ZM22.8571 45.7143H27.4286V48H22.8571V45.7143ZM32 45.7143H34.2857V48H32V45.7143ZM43.4286 45.7143H45.7143V48H43.4286V45.7143Z" fill="black"/>
</svg>
