<svg width="106" height="38" viewBox="0 0 106 38" fill="none" xmlns="http://www.w3.org/2000/svg">
<path fill-rule="evenodd" clip-rule="evenodd" d="M34.9321 9.17482C33.3158 6.53341 31.0682 4.32112 28.4001 2.74849C25.6008 1.09897 22.335 0.152344 18.8449 0.152344C15.3549 0.152344 12.0889 1.09875 9.29 2.74849C6.62173 4.32101 4.37428 6.5334 2.75781 9.17471C5.69351 10.1904 8.02357 12.4849 9.09778 15.3785C9.62446 13.96 10.4514 12.6877 11.5019 11.6394C13.3831 9.76157 15.9791 8.60033 18.8449 8.60033C21.7117 8.60033 24.3086 9.76227 26.1898 11.6411C27.2391 12.6891 28.0656 13.9605 28.5919 15.3777C29.6685 12.475 32.001 10.191 34.9321 9.17482Z" fill="#B1B3B3"/>
<path fill-rule="evenodd" clip-rule="evenodd" d="M27.9432 24.0347C27.4703 24.8882 26.881 25.6677 26.1969 26.3521C24.3154 28.2331 21.716 29.3966 18.8454 29.3966C15.9743 29.3966 13.375 28.2328 11.4935 26.3512C9.61192 24.4697 8.4481 21.8702 8.4481 18.9993C8.4481 15.0293 5.88585 11.5362 2.10927 10.3242C1.4626 11.5688 0.950979 12.8929 0.593831 14.2775C0.206244 15.7796 0 17.3618 0 18.9993C0 24.2032 2.10938 28.9147 5.5197 32.325C8.93002 35.7352 13.6414 37.8446 18.8454 37.8446C21.3129 37.8446 23.6526 36.8601 25.3755 35.0922C26.973 33.453 27.9555 31.2153 27.9459 28.7494L27.9432 24.0347Z" fill="#003D64"/>
<path fill-rule="evenodd" clip-rule="evenodd" d="M37.6908 18.9992C37.6908 17.3617 37.4845 15.7795 37.0969 14.2773C36.74 12.893 36.2284 11.5687 35.5814 10.3242C31.8204 11.5194 29.2495 15.0265 29.2403 18.9754V28.7466C29.2513 31.7397 27.966 34.5802 25.7168 36.5535C28.1958 35.5824 30.4195 34.1012 32.2581 32.239C35.6173 28.8364 37.6908 24.1607 37.6908 18.9992Z" fill="#D52023"/>
<path fill-rule="evenodd" clip-rule="evenodd" d="M53.7954 29.4732C56.191 29.4732 58.1589 28.9029 59.6705 27.7335C61.182 26.5642 61.952 25.0242 61.952 23.0563C61.952 21.3452 61.41 20.0046 60.3263 19.0635C59.2425 18.1224 57.7311 17.3238 55.8202 16.6964C54.9932 16.4398 53.6811 16.0975 53.0824 15.8978L52.1698 15.5842C51.5709 15.3277 51.3426 15.0423 51.3426 14.6715C51.3426 13.7875 52.2268 13.3597 53.9666 13.3597C55.1073 13.3597 56.2766 13.5592 57.503 13.9301C58.7293 14.3008 59.7845 14.7571 60.6686 15.299V10.3651C58.5865 9.25278 56.3336 8.71094 53.9094 8.71094C49.1181 8.71094 46.0664 10.8498 46.0664 14.7001C46.0664 15.8694 46.4086 16.9247 46.7796 17.6376C47.2073 18.3506 48.1485 19.035 48.7189 19.4629C49.0327 19.6625 49.4604 19.8621 50.0308 20.0903L51.3426 20.6036L52.7973 21.0314L54.594 21.5733C54.9362 21.6874 55.6492 21.887 55.8774 22.0867C56.3336 22.4003 56.6473 22.657 56.6473 23.256C56.6473 24.3111 55.6207 24.8245 53.5956 24.8245C52.3122 24.8245 50.9434 24.5679 49.4889 24.026C48.0345 23.4841 46.8936 22.8566 46.0664 22.0867V27.3343C48.1485 28.7603 50.7152 29.4732 53.7954 29.4732Z" fill="#B1B3B3"/>
<path fill-rule="evenodd" clip-rule="evenodd" d="M98.8698 29.073C101.009 29.073 102.749 28.5597 104.032 27.5044C105.344 26.4491 106 25.0518 106 23.3405C106 21.8862 105.6 20.7168 104.83 19.7756C104.06 18.8345 103.176 18.2641 102.207 18.036C103.433 17.4657 104.545 16.0966 104.545 14.1573C104.545 10.8776 101.978 9.10938 98.328 9.10938H88.603V29.073H98.8698ZM93.7363 20.5457H97.8716C99.3832 20.5457 100.381 21.3443 100.381 22.6846C100.381 24.0251 99.4402 24.795 97.8716 24.795H93.7363V20.5457ZM93.7363 13.2733H97.558C98.8128 13.2733 99.6114 13.9292 99.6114 15.0415C99.6114 16.0966 98.8128 16.7526 97.558 16.7526H93.7363V13.2733Z" fill="#B1B3B3"/>
<path fill-rule="evenodd" clip-rule="evenodd" d="M81.2531 34.2343C82.4297 34.2343 83.4917 34.0048 84.4675 33.5743V29.2977C83.7501 29.6995 82.9464 29.9004 82.0854 29.9004C80.9661 29.9004 80.0477 29.4987 79.3588 28.6663C81.2242 27.834 82.6883 26.5424 83.7788 24.849C84.8693 23.1556 85.4148 21.2612 85.4148 19.1661C85.4148 16.2673 84.4101 13.799 82.4011 11.7611C80.3921 9.72327 77.8663 8.71875 74.8239 8.71875C71.7816 8.71875 69.2558 9.72327 67.2468 11.7611C65.2377 13.799 64.2329 16.2673 64.2329 19.1661C64.2329 21.8927 65.1228 24.275 66.931 26.2553C68.7393 28.2357 71.0353 29.3265 73.8194 29.556C76.6035 33.0002 78.8421 34.2343 81.2531 34.2343ZM71.0352 23.2417C70.0308 22.1797 69.5427 20.8021 69.5427 19.1661C69.5427 17.5301 70.0308 16.1525 71.0352 15.0905C72.0398 14.0286 73.3028 13.4834 74.8239 13.4834C76.3451 13.4834 77.5792 14.0286 78.5838 15.0905C79.5885 16.1525 80.105 17.5301 80.105 19.1661C80.105 20.8021 79.5885 22.1797 78.5838 23.2417C77.5792 24.3036 76.3451 24.849 74.8239 24.849C73.3028 24.849 72.0398 24.3036 71.0352 23.2417Z" fill="#B1B3B3"/>
</svg>
