<svg width="96" height="96" viewBox="0 0 96 96" fill="none" xmlns="http://www.w3.org/2000/svg">
<circle cx="66.5" cy="67" r="29" fill="#F5F4FF"/>
<circle cx="34.5" cy="13" r="10" fill="#F5F4FF"/>
<circle cx="7" cy="41.5" r="5.5" fill="#F5F4FF"/>
<path d="M53.04 14.4434C51.8475 12.4859 52.29 11.7209 55.95 9.35093C59.61 6.98094 55.8975 5.99843 55.8975 5.99843C51.6375 5.67593 48.87 7.61093 47.6475 9.25344C46.425 10.8959 48.5025 14.1884 48.5025 14.1884L53.04 14.4434Z" fill="#635AFF"/>
<path d="M23.1976 37.0491C20.7967 40.8585 19.3175 45.1754 18.8776 49.6566L18.7501 50.8791C18.7501 51.2841 18.7501 51.6966 18.7501 52.1091C18.7325 52.925 18.76 53.7413 18.8326 54.5541C19.0237 57.4527 19.6717 60.3029 20.7526 62.9991C21.0451 63.6591 21.2551 64.3566 21.6076 64.9941L22.6201 66.9141C23.3585 68.1613 24.1882 69.3521 25.1026 70.4766C25.9185 71.4747 26.8031 72.4145 27.7501 73.2891C28.2226 73.7241 28.7326 74.1141 29.2501 74.5341L30.0001 75.1416C30.2551 75.3366 30.5251 75.5016 30.7501 75.6816C33.4591 77.5479 36.4494 78.9684 39.6076 79.8891C40.5751 80.2191 40.3951 80.4291 39.4801 80.4141C38.8579 80.3941 38.2384 80.3239 37.6276 80.2041C36.7632 80.0157 35.921 79.7366 35.1151 79.3716C28.6893 76.5155 23.5227 71.4183 20.5801 65.0316C18.7959 61.1591 17.8381 56.9573 17.7676 52.6941C17.7676 52.1091 17.7676 51.5241 17.7676 50.9391L17.9401 49.1991C18.0595 48.0376 18.2549 46.8851 18.5251 45.7491C18.6396 45.1746 18.7925 44.6083 18.9826 44.0541L19.5001 42.3816L20.1601 40.7691C20.3791 40.2226 20.6295 39.6893 20.9101 39.1716L21.9151 37.2666C22.2826 36.6591 22.6651 36.0666 23.0776 35.4591C23.456 34.8634 23.8719 34.2923 24.3226 33.7491C24.7472 33.1726 25.2055 32.6216 25.6951 32.0991C28.6114 28.8764 32.1533 26.2812 36.1051 24.4716C39.1368 23.1056 42.3773 22.2613 45.6901 21.9741L46.7776 21.8691C47.1451 21.8691 47.5276 21.8691 47.8726 21.8691L49.6051 21.9141C50.0776 21.9741 50.4526 22.0416 50.7676 22.1016C51.2013 22.173 51.6198 22.3175 52.0051 22.5291C52.1291 22.5923 52.245 22.6704 52.3501 22.7616C52.5676 22.9941 51.4576 23.0241 49.5376 22.8441C43.5571 22.6275 37.6542 24.2505 32.6251 27.4941C28.8208 29.9362 25.6163 33.2048 23.2501 37.0566L23.1976 37.0491Z" fill="#635AFF"/>
<path d="M53.1299 24.5165C53.0549 24.374 53.2349 24.2915 53.5724 24.239C53.7306 24.2236 53.8902 24.2467 54.0374 24.3065C54.1132 24.3792 54.181 24.4597 54.2399 24.5465C54.2399 24.5915 54.3299 25.2965 54.3674 25.5515C54.3976 25.783 54.3976 26.0175 54.3674 26.249C54.3149 26.7215 54.2699 27.1865 54.2174 27.6515C54.2051 27.7575 54.1773 27.8611 54.1349 27.959C54.0062 28.2973 53.9353 28.6548 53.9249 29.0165C53.9065 29.0751 53.9065 29.1379 53.9249 29.1965C53.9566 29.5971 53.9211 30.0001 53.8199 30.389C53.6924 30.689 53.5949 30.989 53.4824 31.2965C53.4824 31.334 53.4824 31.3865 53.4149 31.4165C53.3672 31.443 53.3279 31.4824 53.3014 31.5301C53.2749 31.5778 53.2623 31.632 53.2649 31.6865C53.2381 31.8221 53.1927 31.9534 53.1299 32.0765C53.1299 32.144 53.0174 32.1965 52.9499 32.2565C52.8824 32.3165 52.6949 32.2565 52.6799 32.2565C52.6649 32.2565 52.5224 32.2565 52.4399 32.2565H52.3574C52.2199 31.9684 52.1215 31.6632 52.0649 31.349C52.0649 31.349 52.0649 30.2015 52.0649 30.0665C52.0673 29.9974 52.088 29.93 52.1249 29.8715C52.1249 29.8715 52.1249 28.934 52.1249 28.8965C52.1249 28.7165 52.1249 28.5215 52.2674 28.3565C52.2674 28.3565 52.2674 28.2815 52.2674 28.244C52.3187 27.8986 52.3964 27.5576 52.4999 27.224C52.4999 27.0665 52.4999 26.9015 52.5599 26.7365C52.5599 26.7365 52.5599 26.684 52.5599 26.654C52.5781 26.6205 52.5932 26.5853 52.6049 26.549C52.6049 26.159 52.7399 25.799 52.7249 25.3865C52.7249 25.2965 52.9199 24.8915 52.9124 24.7865C52.9049 24.6815 53.1599 24.569 53.1299 24.5165Z" fill="#635AFF"/>
<path d="M78.09 55.2296C78.225 55.1471 78.3075 55.3271 78.36 55.6646C78.3729 55.8227 78.3498 55.9817 78.2925 56.1296C78.2225 56.2075 78.1446 56.2779 78.06 56.3396C78.015 56.3396 77.31 56.4371 77.0775 56.4746C76.8512 56.5084 76.6212 56.5084 76.395 56.4746C75.945 56.4221 75.4875 56.3846 75.03 56.3396C74.9274 56.3262 74.8268 56.301 74.73 56.2646C74.4002 56.1348 74.0494 56.0662 73.695 56.0621C73.6389 56.0443 73.5786 56.0443 73.5225 56.0621C73.1327 56.0951 72.7401 56.0647 72.36 55.9721C72.0675 55.8446 71.775 55.7471 71.475 55.6421C71.475 55.6421 71.385 55.6421 71.355 55.5746C71.325 55.5071 71.1825 55.4471 71.0925 55.4246C70.9608 55.3958 70.8326 55.353 70.71 55.2971C70.6416 55.2486 70.583 55.1875 70.5375 55.1171C70.485 55.0571 70.5375 54.8621 70.5375 54.8471C70.5375 54.8321 70.5375 54.6896 70.5375 54.6071C70.5335 54.5772 70.5335 54.547 70.5375 54.5171C70.816 54.3817 71.111 54.2834 71.415 54.2246C71.415 54.2246 72.54 54.2246 72.6675 54.2246C72.7331 54.228 72.7972 54.2459 72.855 54.2771C72.855 54.2771 73.77 54.2771 73.8075 54.2771C73.9875 54.2771 74.175 54.2771 74.34 54.4196C74.3741 54.431 74.4109 54.431 74.445 54.4196C74.7564 54.4459 75.065 54.4986 75.3675 54.5771C75.525 54.5771 75.69 54.5771 75.8475 54.6221L75.93 54.6596C75.9647 54.6659 76.0003 54.6659 76.035 54.6596C76.4102 54.7185 76.7882 54.7586 77.1675 54.7796C77.25 54.7796 77.6475 54.9596 77.7525 54.9521C77.8575 54.9446 78 55.2596 78.09 55.2296Z" fill="#635AFF"/>
<path d="M20.3849 48.2329C20.2574 48.3079 20.1824 48.1354 20.1299 47.7979C20.1188 47.6404 20.1392 47.4823 20.1899 47.3329C20.2572 47.255 20.3326 47.1846 20.4149 47.1229C20.4599 47.1229 21.1199 47.0179 21.3449 46.9804C21.5586 46.9467 21.7762 46.9467 21.9899 46.9804L23.2949 47.1004C23.3931 47.1112 23.4891 47.1365 23.5799 47.1754C23.8898 47.3002 24.2209 47.3639 24.5549 47.3629C24.611 47.3812 24.6714 47.3812 24.7274 47.3629C25.0966 47.3285 25.4688 47.3538 25.8299 47.4379C26.1074 47.5654 26.3849 47.6554 26.6699 47.7604C26.6699 47.7604 26.7524 47.7604 26.7824 47.8279C26.8124 47.8954 26.9474 47.9554 27.0374 47.9779C27.1615 48.0043 27.2823 48.0445 27.3974 48.0979C27.4634 48.1468 27.5194 48.2079 27.5624 48.2779C27.5802 48.3207 27.5893 48.3665 27.5893 48.4129C27.5893 48.4592 27.5802 48.5051 27.5624 48.5479C27.4949 48.6079 27.5624 48.7054 27.5624 48.7879C27.5624 48.8704 27.5624 48.8554 27.5624 48.8704C27.3015 49.0131 27.021 49.1167 26.7299 49.1779C26.7299 49.1779 25.6649 49.1779 25.5449 49.1779C25.4791 49.1756 25.4148 49.1576 25.3574 49.1254C25.3574 49.1254 24.4874 49.1254 24.4574 49.1254C24.2849 49.1254 24.1124 49.1254 23.9549 48.9904C23.9207 48.9799 23.8841 48.9799 23.8499 48.9904C23.5535 48.9666 23.2599 48.9164 22.9724 48.8404C22.8224 48.8404 22.6649 48.8404 22.5149 48.7954C22.5149 48.7954 22.4624 48.7954 22.4399 48.7954C22.4076 48.7904 22.3747 48.7904 22.3424 48.7954C21.9875 48.7381 21.6293 48.703 21.2699 48.6904C21.1799 48.6904 20.8049 48.5104 20.7074 48.5179C20.6099 48.5254 20.4374 48.2029 20.3849 48.2329Z" fill="#635AFF"/>
<path d="M45.1052 81.3452C45.1877 81.4727 45.0077 81.5477 44.6702 81.5927C44.5128 81.6027 44.3549 81.5824 44.2052 81.5327C44.1295 81.466 44.0593 81.3932 43.9952 81.3152C43.9952 81.2702 43.8902 80.6252 43.8527 80.4077C43.8232 80.1988 43.8232 79.9867 43.8527 79.7777C43.8977 79.3577 43.9277 78.9377 43.9727 78.5177C43.9872 78.4251 44.0123 78.3345 44.0477 78.2477C44.1717 77.9455 44.2354 77.6219 44.2352 77.2952C44.2478 77.2696 44.2544 77.2413 44.2544 77.2127C44.2544 77.1841 44.2478 77.1559 44.2352 77.1302C44.2037 76.7706 44.2316 76.4083 44.3177 76.0577C44.4452 75.7952 44.5352 75.5177 44.6402 75.2477C44.6402 75.2477 44.6402 75.1652 44.7002 75.1352C44.7602 75.1052 44.8277 74.9777 44.8502 74.8952C44.8754 74.7732 44.9157 74.6548 44.9702 74.5427C45.0214 74.4809 45.0822 74.4278 45.1502 74.3852C45.2102 74.3402 45.4052 74.3852 45.4277 74.3852C45.4502 74.3852 45.5777 74.3852 45.6602 74.4227H45.7502C45.8865 74.6787 45.9898 74.9508 46.0577 75.2327C46.0577 75.2327 46.0577 76.2677 46.0577 76.3877C46.0551 76.4488 46.0371 76.5081 46.0052 76.5602C46.0052 76.5602 46.0052 77.4077 46.0052 77.4377C46.0052 77.6027 46.0052 77.7752 45.8702 77.9252C45.8588 77.9593 45.8588 77.9962 45.8702 78.0302C45.849 78.3165 45.8013 78.6002 45.7277 78.8777C45.7053 79.0244 45.6903 79.1721 45.6827 79.3202C45.6854 79.3452 45.6854 79.3703 45.6827 79.3952C45.6785 79.4276 45.6785 79.4604 45.6827 79.4927C45.6827 79.8377 45.5627 80.1827 45.5777 80.5352C45.5777 80.6102 45.3977 80.9777 45.4127 81.0752C45.4277 81.1727 45.0752 81.3002 45.1052 81.3452Z" fill="#635AFF"/>
<path d="M78.6376 53.316C78.6451 53.2062 78.6451 53.0959 78.6376 52.986C78.6376 52.416 78.5626 51.831 78.5326 51.261C78.1921 45.176 75.993 39.342 72.2321 34.5463C68.4712 29.7506 63.3295 26.2242 57.5011 24.443C51.6727 22.6618 45.4382 22.7115 39.6389 24.5855C33.8397 26.4595 28.755 30.0675 25.071 34.9225C21.3871 39.7776 19.2813 45.646 19.0379 51.7356C18.7945 57.8253 20.4252 63.843 23.7099 68.9766C26.9946 74.1102 31.7751 78.1125 37.4063 80.4434C43.0375 82.7742 49.2482 83.3214 55.2001 82.011C58.8625 81.2029 62.3371 79.7036 65.4376 77.5935C71.7037 73.3574 76.127 66.8994 77.8126 59.526C77.9327 59.001 78.1127 58.4685 78.1952 57.9435C78.1952 57.8385 78.2401 57.726 78.2551 57.606C78.4276 56.421 78.1502 55.4235 77.6476 55.356C77.1451 55.2885 76.6052 56.181 76.4552 57.291C76.4552 57.3885 76.4552 57.4935 76.4552 57.5985C76.4219 58.1421 76.3288 58.6803 76.1777 59.2035L75.7501 60.9135L75.1801 62.541C74.792 63.6188 74.3361 64.6709 73.8151 65.691C71.4808 70.2294 67.9629 74.0522 63.6337 76.7548C59.3045 79.4575 54.3251 80.9393 49.2226 81.0435C45.8313 81.0773 42.4603 80.5163 39.2626 79.386C34.4401 77.692 30.1733 74.7102 26.9249 70.7637C23.6765 66.8172 21.5705 62.0568 20.8351 56.9985C20.3507 53.6434 20.4573 50.2294 21.1501 46.911C22.5729 40.2241 26.3964 34.2901 31.8976 30.231C35.988 27.1695 40.8351 25.2799 45.9183 24.7654C51.0016 24.2508 56.129 25.1306 60.7499 27.3104C65.3708 29.4902 69.3107 32.8875 72.1464 37.1376C74.9821 41.3876 76.6065 46.3299 76.8451 51.4335C76.8992 51.9321 76.8992 52.435 76.8451 52.9335V53.256C76.8001 54.3735 77.1827 55.3185 77.6852 55.371C78.1877 55.4235 78.5926 54.516 78.6376 53.316Z" fill="#635AFF"/>
<path d="M25.8677 24.0665C23.6281 25.8964 21.614 27.9861 19.8677 30.2915C19.4102 30.854 18.9821 31.4398 18.5852 32.0465C18.1563 32.6323 17.7631 33.2434 17.4077 33.8765C16.6493 35.1109 15.9777 36.3965 15.3977 37.724C12.9903 43.0325 11.9586 48.8618 12.3977 54.674C12.6912 58.9133 13.7323 63.0673 15.4727 66.944C17.0266 70.3508 19.0708 73.5118 21.5402 76.3265C24.0697 79.1 27.0026 81.4767 30.2402 83.3765C33.5006 85.2652 37.0206 86.6652 40.6877 87.5315C44.3749 88.3706 48.1664 88.6562 51.9377 88.379C58.6448 87.858 65.0807 85.5078 70.5452 81.584C72.2845 80.3542 73.8997 78.9576 75.3677 77.414C76.8532 75.8883 78.1917 74.2259 79.3652 72.449C81.727 68.8985 83.4481 64.9614 84.4502 60.8165C85.0352 58.244 85.4552 58.6265 85.4627 60.989C85.4037 62.618 85.1519 64.2343 84.7127 65.804C84.0909 68.0603 83.1623 70.2205 81.9527 72.224C77.0756 80.1501 69.4461 85.9984 60.5252 88.649C56.1262 89.9878 51.5264 90.5437 46.9352 90.2915C44.6467 90.1407 42.3743 89.8046 40.1402 89.2865C37.9118 88.7397 35.734 88.0046 33.6302 87.089C28.51 84.8687 23.9114 81.6012 20.1302 77.4965C14.0803 70.7761 10.6461 62.1058 10.4534 53.0654C10.2607 44.025 13.3222 35.2162 19.0802 28.244C23.2656 23.0683 28.7346 19.0801 34.942 16.6772C41.1494 14.2742 47.8783 13.5405 54.4577 14.549C60.0932 15.4021 65.4624 17.52 70.1627 20.744C71.965 21.9829 73.6586 23.3729 75.2252 24.899C75.9752 25.7015 76.7702 26.444 77.4752 27.299L78.5177 28.5515L79.4777 29.8715C82.0107 33.417 83.9323 37.3615 85.1627 41.5415C85.7126 43.3769 86.1312 45.2492 86.4152 47.144C86.7903 49.6615 86.8583 52.2152 86.6177 54.749C86.5628 55.425 86.4498 56.0949 86.2802 56.7515C86.1757 57.2015 86.017 57.6372 85.8077 58.049C85.6725 58.376 85.512 58.692 85.3277 58.994C84.7802 59.5865 85.2002 56.744 84.9902 51.7115C84.6428 44.0618 82.0643 36.681 77.5727 30.479C75.3054 27.3341 72.5148 24.6019 69.3227 22.4015C66.1225 20.1681 62.5745 18.4802 58.8227 17.4065C53.2103 15.8033 47.2961 15.5641 41.5727 16.709C35.8354 17.8654 30.4659 20.4009 25.9277 24.0965L25.8677 24.0665Z" fill="#635AFF"/>
<path d="M49.305 54.4416C49.095 54.4416 49.02 54.2466 49.02 53.8866C49.0392 53.7288 49.1044 53.5801 49.2075 53.4591C49.3327 53.4202 49.4606 53.3901 49.59 53.3691C49.665 53.3691 50.6625 53.6166 51.0075 53.6916C51.3376 53.7699 51.6591 53.8804 51.9675 54.0216L53.865 54.7716C54.0077 54.8318 54.1435 54.9072 54.27 54.9966C54.708 55.2862 55.1788 55.5229 55.6725 55.7016C55.75 55.7464 55.838 55.7697 55.9275 55.7691C56.4862 55.9428 57.0244 56.1766 57.5325 56.4666C57.9075 56.7516 58.2825 56.9991 58.6725 57.2766C58.7325 57.2766 58.8 57.3366 58.83 57.4116C58.86 57.4866 59.0325 57.6366 59.1525 57.7191C59.3276 57.8239 59.4911 57.9471 59.64 58.0866C59.7121 58.1748 59.7703 58.2734 59.8125 58.3791C59.8575 58.4691 59.7 58.6116 59.67 58.6116C59.64 58.6116 59.565 58.7391 59.5275 58.8066C59.5159 58.8335 59.5008 58.8587 59.4825 58.8816C59.0656 58.8266 58.6523 58.7465 58.245 58.6416L57.99 58.5291L57.4575 58.3116L56.5425 57.9666C56.4529 57.9295 56.3694 57.879 56.295 57.8166C56.295 57.8166 55.0275 57.3591 54.9825 57.3366C54.7236 57.252 54.484 57.1169 54.2775 56.9391C54.2376 56.9003 54.1886 56.872 54.135 56.8566C53.707 56.6795 53.2888 56.4792 52.8825 56.2566C52.665 56.1516 52.44 56.0766 52.2225 55.9791C52.1841 55.9592 52.1488 55.934 52.1175 55.9041C52.0745 55.8695 52.0265 55.8417 51.975 55.8216C51.4575 55.6191 50.9625 55.3341 50.4225 55.1766C50.295 55.1391 49.785 54.7641 49.6725 54.7266C49.56 54.6891 49.3875 54.4416 49.305 54.4416Z" fill="#635AFF"/>
<path d="M49.8753 51.4342C49.9353 51.6292 49.7403 51.7567 49.3953 51.8467C49.2371 51.8661 49.0769 51.8346 48.9378 51.7567C48.8676 51.6448 48.8073 51.5268 48.7578 51.4042C48.7578 51.3292 48.7578 50.2717 48.7578 49.9042C48.7627 49.5593 48.7978 49.2155 48.8628 48.8767L49.2078 46.8067C49.2346 46.6527 49.2773 46.5019 49.3353 46.3567C49.5183 45.8524 49.6441 45.3291 49.7103 44.7967C49.7366 44.7087 49.7366 44.6148 49.7103 44.5267C49.7555 43.924 49.8662 43.328 50.0403 42.7492C50.2353 42.2692 50.4078 41.8642 50.5803 41.4217C50.5803 41.3617 50.5803 41.2867 50.6853 41.2417C50.7903 41.1967 50.8578 40.9867 50.9103 40.8442C50.9776 40.6456 51.0656 40.4545 51.1728 40.2742C51.2453 40.1793 51.3342 40.098 51.4353 40.0342C51.5178 39.9667 51.6828 40.1017 51.6903 40.1392C51.6978 40.1767 51.8253 40.2142 51.9078 40.2442H51.9828C52.0064 40.6664 52.0064 41.0896 51.9828 41.5117L51.9378 41.7817C51.9378 41.9392 51.8778 42.1492 51.8403 42.3667C51.7728 42.7942 51.7128 43.2592 51.7053 43.3492C51.6864 43.4483 51.6536 43.5443 51.6078 43.6342C51.6078 43.6342 51.4428 44.9992 51.4353 45.0517C51.4024 45.3134 51.3237 45.5673 51.2028 45.8017C51.1764 45.853 51.1611 45.9092 51.1578 45.9667C51.0978 46.4317 50.9628 46.8892 50.8578 47.3542C50.7978 47.5867 50.7753 47.8342 50.7303 48.0667C50.7187 48.1103 50.7036 48.153 50.6853 48.1942C50.6611 48.2443 50.6435 48.2972 50.6328 48.3517C50.5503 48.9217 50.3853 49.4767 50.3478 50.0467C50.3478 50.1817 50.0928 50.7967 50.0928 50.9317C50.0928 51.0667 49.8528 51.3517 49.8753 51.4342Z" fill="#635AFF"/>
<path d="M50.4525 54.0902C50.325 54.3227 50.07 53.9177 49.845 54.1427C48.2175 55.7927 46.035 52.0052 48.105 51.0752C49.2375 50.5652 51.48 52.2902 50.4525 54.0902Z" fill="#635AFF"/>
<path d="M47.7603 55.8526C47.2906 55.6239 46.8738 55.2997 46.5367 54.9006C46.1996 54.5015 45.9496 54.0364 45.8028 53.535C45.6775 53.171 45.6191 52.7874 45.6303 52.4026C45.6932 51.7301 45.9812 51.0985 46.4478 50.6101C46.8626 50.1715 47.3772 49.8396 47.9478 49.6426C48.4445 49.4607 48.9716 49.3767 49.5003 49.395C49.8844 49.4195 50.2572 49.5352 50.5878 49.7325C50.9177 49.9251 51.1618 50.2362 51.2703 50.6025C51.3378 50.835 50.8728 50.9925 50.4003 51.135L49.7703 51.345C49.5828 51.42 49.4853 51.465 49.4553 51.45C49.2894 51.3701 49.1067 51.3315 48.9228 51.3375C48.5873 51.3622 48.2593 51.4487 47.9553 51.5925C47.8589 51.6359 47.7721 51.698 47.6999 51.7752C47.6278 51.8525 47.5718 51.9434 47.5353 52.0425C47.4637 52.2262 47.433 52.4233 47.4453 52.6201C47.4631 52.8765 47.5344 53.1264 47.6545 53.3537C47.7746 53.5811 47.9409 53.7808 48.1428 53.94C48.3914 54.1532 48.7013 54.2819 49.0278 54.3076C49.2947 54.2899 49.5552 54.2183 49.7937 54.0971C50.0321 53.9759 50.2436 53.8077 50.4153 53.6026C50.5534 53.4571 50.6574 53.2826 50.7197 53.0919C50.782 52.9012 50.8009 52.699 50.7753 52.5C50.7587 52.4499 50.7361 52.4021 50.7078 52.3575C50.6553 52.23 50.7078 52.1551 51.0978 51.7876L51.3303 51.525C51.3887 51.4569 51.4611 51.4021 51.5427 51.3646C51.6243 51.327 51.713 51.3076 51.8028 51.3076C51.9137 51.3178 52.0204 51.3553 52.1133 51.4168C52.2062 51.4784 52.2825 51.5619 52.3353 51.66C52.5551 52.0177 52.6622 52.4332 52.6428 52.8526C52.6372 53.2501 52.545 53.6417 52.3728 54C52.0675 54.6065 51.6101 55.1234 51.0453 55.5001C50.5993 55.8221 50.0867 56.04 49.5453 56.1375C49.2347 56.1867 48.9183 56.1867 48.6078 56.1375C48.3234 56.094 48.0461 56.0133 47.7828 55.8975L47.7603 55.8526Z" fill="#635AFF"/>
<path d="M59.0103 7.56689C57.6816 7.06096 56.2766 6.78452 54.8553 6.74939C54.5928 6.74939 54.3303 6.74939 54.1053 6.74939C53.8803 6.74939 53.5878 6.80939 53.3553 6.82439C52.4585 6.90423 51.5761 7.10089 50.7303 7.40939C49.9224 7.71848 49.2107 8.23602 48.6678 8.90939C48.1974 9.50786 47.9602 10.2567 48.0003 11.0169C48.1253 12.0183 48.3463 13.0053 48.6603 13.9644C48.7203 14.2869 48.2778 14.4744 47.7303 14.3844C47.4263 14.3307 47.1388 14.2075 46.8903 14.0244C46.752 13.9274 46.6283 13.8113 46.5228 13.6794C46.4293 13.5244 46.3562 13.358 46.3053 13.1844C45.8649 11.8357 45.9019 10.3765 46.4103 9.05189C46.9789 7.74468 48.0252 6.70384 49.3353 6.14189C50.7304 5.49446 52.2279 5.09596 53.7603 4.96439C55.3929 4.86101 57.0313 5.036 58.6053 5.48189C59.5793 5.74731 60.5184 6.12747 61.4028 6.61439C62.8096 7.33689 63.9401 8.50162 64.6203 9.92939C65.1317 11.0806 65.2706 12.3628 65.0178 13.5969C64.9503 13.8594 64.8903 14.1144 64.8078 14.3469C64.718 14.6947 64.5307 15.0096 64.2678 15.2544C64.1796 15.3284 64.0755 15.3811 63.9636 15.4084C63.8518 15.4357 63.7352 15.4369 63.6228 15.4119C63.5036 15.4035 63.3855 15.3834 63.2703 15.3519C62.9028 15.2169 62.7903 14.7369 62.9628 14.1669C63.2055 13.3709 63.2971 12.5366 63.2328 11.7069C63.1343 10.9519 62.8161 10.2425 62.3178 9.66689C61.4232 8.69391 60.2873 7.97463 59.0253 7.58189L59.0103 7.56689Z" fill="#635AFF"/>
<path d="M11.4377 60.0737C11.711 61.5973 12.0869 63.1008 12.5627 64.5737L12.7202 65.1287L12.9377 65.6687L13.3652 66.7487L13.7852 67.8212L14.0027 68.3612L14.2652 68.8787C14.9232 70.2778 15.6749 71.6309 16.5152 72.9287C16.9502 73.5662 17.3177 74.2487 17.8052 74.8562L19.2452 76.6712L19.7702 77.3312L20.3627 77.9387L21.5552 79.1462C22.3473 79.951 23.1917 80.7026 24.0827 81.3962C30.317 86.4702 38.0072 89.4233 46.0352 89.8262C49.5794 89.9981 53.1296 89.6494 56.5727 88.7912C58.7757 88.2398 60.9264 87.497 63.0002 86.5712L64.5002 85.8212L65.2502 85.4538L66.0002 85.0412L67.5002 84.2162L68.9327 83.3012C70.1177 82.5512 70.1252 82.8587 69.2627 83.7362C68.6726 84.346 68.0217 84.8939 67.3202 85.3712C66.8927 85.6712 66.4127 85.9937 65.9027 86.3162C65.3927 86.6387 64.8002 86.9012 64.2002 87.2012C55.5173 91.3071 45.6002 91.9664 36.4502 89.0462C30.8772 87.3009 25.7562 84.3512 21.4502 80.4062L19.7702 78.6887C19.5002 78.3962 19.2002 78.1262 18.9527 77.8112L18.2027 76.8737C17.7077 76.2437 17.1977 75.6287 16.7027 74.9912L15.4052 72.9737C15.1877 72.6362 14.9702 72.3062 14.7602 71.9612L14.2502 70.9037L13.1552 68.7662L12.2702 66.5163L11.8352 65.4062L11.4977 64.2587L11.0852 62.8412C10.9353 62.3718 10.815 61.8933 10.7252 61.4087L10.1777 58.5137C9.92408 56.5669 9.8088 54.6044 9.83266 52.6413C9.84053 51.1535 9.94576 49.6678 10.1477 48.1938C10.2217 47.4624 10.3394 46.7361 10.5002 46.0187L10.9577 43.8363L11.6252 41.7137C11.829 41.0005 12.0795 40.3015 12.3752 39.6213C12.9116 38.2441 13.538 36.9038 14.2502 35.6087C15.3047 33.5913 16.5397 31.6735 17.9402 29.8787C19.3112 28.0836 20.837 26.4122 22.5002 24.8838C23.2502 24.2088 24.0002 23.5788 24.7877 22.9563C25.8316 22.1415 26.9375 21.4093 28.0952 20.7663C28.611 20.467 29.1702 20.2494 29.7527 20.1213C29.9477 20.1213 30.1802 20.0312 30.3002 20.0312C30.7202 20.0687 29.4302 20.8488 27.2327 22.3638C23.9217 24.7009 20.9856 27.5283 18.5252 30.7487C17.9027 31.5737 17.2952 32.4138 16.7327 33.2838C16.1702 34.1538 15.6977 35.0762 15.1727 35.9687C14.9252 36.4262 14.6627 36.8762 14.4227 37.3337L13.8077 38.7662C13.3631 39.7114 12.9847 40.6862 12.6752 41.6838L12.0002 43.8812C11.8052 44.6312 11.6777 45.3812 11.5127 46.1312C11.1985 47.653 10.9855 49.1939 10.8752 50.7438C10.6818 53.8523 10.8885 56.9728 11.4902 60.0287L11.4377 60.0737Z" fill="#635AFF"/>
</svg>
