<svg viewBox="0 0 18 18" fill="none" xmlns="http://www.w3.org/2000/svg">
  <path fill-rule="evenodd" clip-rule="evenodd" d="M0.974784 3.38329C0.916992 3.68959 0.916992 4.05732 0.916992 4.79276V10.668C0.916992 13.8107 0.916992 15.382 1.8933 16.3583C2.86961 17.3346 4.44096 17.3346 7.58366 17.3346H10.917C14.0597 17.3346 15.631 17.3346 16.6073 16.3583C17.5837 15.382 17.5837 13.8107 17.5837 10.668V8.83289C17.5837 6.63925 17.5837 5.54243 16.9424 4.82949C16.8835 4.76392 16.821 4.7015 16.7555 4.64252C16.0425 4.0013 14.9457 4.0013 12.7521 4.0013H12.4407C11.4793 4.0013 10.9986 4.0013 10.5506 3.87362C10.3045 3.80347 10.0674 3.70523 9.84376 3.58082C9.43672 3.35436 9.09681 3.01445 8.41699 2.33464L7.95845 1.87609C7.7306 1.64824 7.61667 1.53431 7.49694 1.43506C6.98076 1.00716 6.34753 0.744874 5.67997 0.682448C5.52513 0.667969 5.36401 0.667969 5.04178 0.667969C4.30634 0.667969 3.93862 0.667969 3.63231 0.725761C2.28392 0.980169 1.22919 2.03489 0.974784 3.38329ZM10.044 8.33369L9.96203 8.18673C9.64537 7.61867 9.48704 7.33464 9.25033 7.33464C9.01361 7.33464 8.85528 7.61867 8.53862 8.18673L8.45669 8.33369C8.36671 8.49512 8.32171 8.57583 8.25156 8.62909C8.18141 8.68234 8.09404 8.70211 7.9193 8.74165L7.76021 8.77764C7.14529 8.91677 6.83783 8.98634 6.76468 9.22157C6.69153 9.4568 6.90114 9.7019 7.32035 10.1921L7.4288 10.3189C7.54793 10.4582 7.60749 10.5279 7.63429 10.6141C7.66109 10.7002 7.65208 10.7932 7.63407 10.979L7.61767 11.1482C7.5543 11.8023 7.52261 12.1293 7.71411 12.2747C7.90562 12.4201 8.19349 12.2875 8.76924 12.0224L8.9182 11.9538C9.08181 11.8785 9.16361 11.8408 9.25033 11.8408C9.33704 11.8408 9.41884 11.8785 9.58245 11.9538L9.73141 12.0224C10.3072 12.2875 10.595 12.4201 10.7865 12.2747C10.978 12.1293 10.9464 11.8023 10.883 11.1482L10.8666 10.979C10.8486 10.7932 10.8396 10.7002 10.8664 10.6141C10.8932 10.5279 10.9527 10.4582 11.0718 10.3189L11.1803 10.1921C11.5995 9.7019 11.8091 9.4568 11.736 9.22157C11.6628 8.98634 11.3554 8.91677 10.7404 8.77764L10.5814 8.74165C10.4066 8.70211 10.3192 8.68234 10.2491 8.62909C10.1789 8.57583 10.1339 8.49512 10.044 8.33369Z" fill="#63BA3D"/>
</svg>
