<svg viewBox="0 0 18 18" fill="none" xmlns="http://www.w3.org/2000/svg">
  <path d="M15.3768 5.34851L12.0778 2.37943C11.1379 1.53354 10.668 1.11059 10.0913 0.889323L10.0837 3.16806C10.0837 5.13224 10.0837 6.11434 10.6939 6.72453C11.304 7.33472 12.2861 7.33472 14.2503 7.33472H17.2337C16.9316 6.74787 16.3906 6.261 15.3768 5.34851Z" fill="#635AFF"/>
  <path fill-rule="evenodd" clip-rule="evenodd" d="M10.917 17.3346H7.58366C4.44096 17.3346 2.86961 17.3346 1.8933 16.3583C0.916992 15.382 0.916992 13.8107 0.916992 10.668V7.33464C0.916992 4.19194 0.916992 2.62059 1.8933 1.64428C2.86961 0.667969 4.44924 0.667969 7.60849 0.667969C8.11349 0.667969 8.51816 0.667968 8.85866 0.681853C8.84746 0.748463 8.84158 0.816408 8.84135 0.885107L8.83365 3.24711C8.83358 4.16136 8.83352 4.96934 8.92108 5.6206C9.01599 6.32653 9.23391 7.03236 9.80997 7.60841C10.386 8.18447 11.0919 8.40239 11.7978 8.4973C12.449 8.58486 13.257 8.5848 14.1713 8.58473L14.2503 8.58472H17.5482C17.5837 9.02995 17.5837 9.57638 17.5837 10.3037V10.668C17.5837 13.8107 17.5837 15.382 16.6073 16.3583C15.631 17.3346 14.0597 17.3346 10.917 17.3346ZM7.99889 11.0342C8.25688 11.2635 8.28011 11.6585 8.05079 11.9165L5.82857 14.4165C5.70996 14.55 5.53996 14.6263 5.36144 14.6263C5.18291 14.6263 5.01291 14.55 4.89431 14.4165L3.7832 13.1665C3.55387 12.9085 3.57711 12.5135 3.8351 12.2842C4.09309 12.0548 4.48813 12.0781 4.71746 12.3361L5.36144 13.0606L7.11653 11.0861C7.34585 10.8281 7.7409 10.8048 7.99889 11.0342Z" fill="#635AFF"/>
</svg>
