<svg viewBox="0 0 18 18" fill="none" xmlns="http://www.w3.org/2000/svg">
  <path fill-rule="evenodd" clip-rule="evenodd" d="M17.0837 9.0013C17.0837 13.6037 13.3527 17.3346 8.75033 17.3346C4.14795 17.3346 0.416992 13.6037 0.416992 9.0013C0.416992 4.39893 4.14795 0.667969 8.75033 0.667969C13.3527 0.667969 17.0837 4.39893 17.0837 9.0013ZM6.22502 6.47601C6.46909 6.23193 6.86482 6.23193 7.1089 6.47601L8.7503 8.11741L10.3917 6.47603C10.6358 6.23195 11.0315 6.23195 11.2756 6.47603C11.5196 6.7201 11.5196 7.11583 11.2756 7.35991L9.63418 9.00129L11.2755 10.6427C11.5196 10.8867 11.5196 11.2825 11.2755 11.5265C11.0315 11.7706 10.6357 11.7706 10.3917 11.5265L8.7503 9.88518L7.10892 11.5266C6.86484 11.7706 6.46911 11.7706 6.22503 11.5266C5.98096 11.2825 5.98096 10.8868 6.22503 10.6427L7.86642 9.00129L6.22502 7.35989C5.98094 7.11582 5.98094 6.72009 6.22502 6.47601Z" fill="#F3335C"/>
</svg>
