<svg viewBox="0 0 17 18" fill="none" xmlns="http://www.w3.org/2000/svg">
  <path d="M4.95866 1.08203C4.95866 0.736853 4.67884 0.457031 4.33366 0.457031C3.98848 0.457031 3.70866 0.736853 3.70866 1.08203V2.39808C2.50922 2.49413 1.7218 2.72984 1.1433 3.30834C0.564804 3.88684 0.329087 4.67426 0.23304 5.8737H16.7676C16.6716 4.67426 16.4358 3.88684 15.8573 3.30834C15.2788 2.72984 14.4914 2.49413 13.292 2.39808V1.08203C13.292 0.736853 13.0122 0.457031 12.667 0.457031C12.3218 0.457031 12.042 0.736853 12.042 1.08203V2.34278C11.4876 2.33203 10.8662 2.33203 10.167 2.33203H6.83366C6.13446 2.33203 5.51305 2.33203 4.95866 2.34278V1.08203Z" fill="#767994"/>
  <path fill-rule="evenodd" clip-rule="evenodd" d="M16.8337 8.9987C16.8337 8.2995 16.8337 7.67809 16.8229 7.1237H0.177744C0.166992 7.67809 0.166992 8.2995 0.166992 8.9987V10.6654C0.166992 13.8081 0.166992 15.3794 1.1433 16.3557C2.11961 17.332 3.69096 17.332 6.83366 17.332H10.167C13.3097 17.332 14.881 17.332 15.8573 16.3557C16.8337 15.3794 16.8337 13.8081 16.8337 10.6654V8.9987ZM10.167 9.20703C9.36158 9.20703 8.70866 9.85995 8.70866 10.6654V12.332C8.70866 13.1374 9.36158 13.7904 10.167 13.7904C10.9724 13.7904 11.6253 13.1374 11.6253 12.332V10.6654C11.6253 9.85995 10.9724 9.20703 10.167 9.20703ZM10.167 10.457C10.0519 10.457 9.95866 10.5503 9.95866 10.6654V12.332C9.95866 12.4471 10.0519 12.5404 10.167 12.5404C10.2821 12.5404 10.3753 12.4471 10.3753 12.332V10.6654C10.3753 10.5503 10.2821 10.457 10.167 10.457ZM7.4895 9.25461C7.72305 9.35135 7.87533 9.57924 7.87533 9.83203V13.1654C7.87533 13.5105 7.5955 13.7904 7.25033 13.7904C6.90515 13.7904 6.62533 13.5105 6.62533 13.1654V11.3409L6.44227 11.524C6.19819 11.7681 5.80246 11.7681 5.55838 11.524C5.31431 11.2799 5.31431 10.8842 5.55838 10.6401L6.80838 9.39009C6.98713 9.21134 7.25596 9.15787 7.4895 9.25461Z" fill="#767994"/>
</svg>
