<svg viewBox="0 0 18 18" fill="none" xmlns="http://www.w3.org/2000/svg">
  <path d="M17.3337 9.0013C17.3337 13.6037 13.6027 17.3346 9.00033 17.3346C4.39795 17.3346 0.666992 13.6037 0.666992 9.0013C0.666992 4.39893 4.39795 0.667969 9.00033 0.667969C13.6027 0.667969 17.3337 4.39893 17.3337 9.0013Z" fill="#63BA3D"/>
  <path fill-rule="evenodd" clip-rule="evenodd" d="M9.00033 5.04297C9.3455 5.04297 9.62533 5.32279 9.62533 5.66797V8.74242L11.5256 10.6427C11.7697 10.8868 11.7697 11.2825 11.5256 11.5266C11.2815 11.7707 10.8858 11.7707 10.6417 11.5266L8.55838 9.44324C8.44117 9.32603 8.37533 9.16706 8.37533 9.0013V5.66797C8.37533 5.32279 8.65515 5.04297 9.00033 5.04297Z" fill="white"/>
</svg>
