<svg viewBox="0 0 17 18" fill="none" xmlns="http://www.w3.org/2000/svg">
  <path d="M16.1618 1.33984C17.0576 2.23567 17.0576 3.68809 16.1618 4.58392L15.7488 4.99687C15.6286 4.97084 15.4772 4.93121 15.3046 4.87133C14.8426 4.71107 14.2355 4.40819 13.6645 3.83714C13.0934 3.26608 12.7906 2.65899 12.6303 2.19705C12.5704 2.02447 12.5308 1.87304 12.5048 1.7528L12.9177 1.33984C13.8135 0.444012 15.266 0.444012 16.1618 1.33984Z" fill="#11A5ED"/>
  <path d="M10.6504 10.0953C10.3137 10.432 10.1454 10.6003 9.95975 10.7451C9.7408 10.9159 9.5039 11.0623 9.25323 11.1818C9.04073 11.283 8.81488 11.3583 8.36318 11.5089L5.98123 12.3029C5.75895 12.377 5.51388 12.3191 5.34819 12.1534C5.18251 11.9878 5.12466 11.7427 5.19875 11.5204L5.99274 9.13845C6.1433 8.68675 6.21859 8.4609 6.31986 8.2484C6.43932 7.99773 6.58574 7.76083 6.75652 7.54187C6.90129 7.35626 7.06963 7.18792 7.40631 6.85124L11.503 2.75451C11.7229 3.333 12.1081 4.04849 12.7806 4.72102C13.4531 5.39355 14.1686 5.77877 14.7471 5.99859L10.6504 10.0953Z" fill="#11A5ED"/>
  <path d="M8.50033 17.3346C13.1027 17.3346 16.8337 13.6037 16.8337 9.0013C16.8337 8.00814 16.6599 7.05556 16.3412 6.17229L11.4886 11.0249C11.1959 11.3177 10.976 11.5377 10.7285 11.7307C10.438 11.9574 10.1236 12.1517 9.791 12.3102C9.50768 12.4452 9.21253 12.5435 8.81971 12.6743L6.37652 13.4887C5.70506 13.7125 4.96478 13.5378 4.46431 13.0373C3.96384 12.5368 3.78908 11.7966 4.0129 11.1251L4.82729 8.68191C4.95812 8.28909 5.05643 7.99395 5.19145 7.71062C5.34997 7.378 5.54426 7.06364 5.77088 6.7731C5.96391 6.52562 6.18393 6.3057 6.47677 6.013L11.3293 1.16045C10.4461 0.841707 9.49348 0.667969 8.50033 0.667969C3.89795 0.667969 0.166992 4.39893 0.166992 9.0013C0.166992 13.6037 3.89795 17.3346 8.50033 17.3346Z" fill="#11A5ED"/>
</svg>
