<svg viewBox="0 0 18 18" fill="none" xmlns="http://www.w3.org/2000/svg">
  <path fill-rule="evenodd" clip-rule="evenodd" d="M8.75033 0.667969C13.3527 0.667969 17.0837 4.39893 17.0837 9.0013C17.0837 13.6037 13.3527 17.3346 8.75033 17.3346C4.14795 17.3346 0.416992 13.6037 0.416992 9.0013C0.416992 4.39893 4.14795 0.667969 8.75033 0.667969ZM6.87533 11.5013C6.87533 11.8465 7.15515 12.1263 7.50033 12.1263H11.2503C11.5955 12.1263 11.8753 11.8465 11.8753 11.5013V7.7513C11.8753 7.40612 11.5955 7.1263 11.2503 7.1263C10.9051 7.1263 10.6253 7.40612 10.6253 7.7513V9.99242L6.69227 6.05936C6.44819 5.81528 6.05246 5.81528 5.80838 6.05936C5.56431 6.30344 5.56431 6.69917 5.80838 6.94324L9.74144 10.8763H7.50033C7.15515 10.8763 6.87533 11.1561 6.87533 11.5013Z" fill="#635AFF"/>
</svg>
