<svg width="20" height="21" viewBox="0 0 20 21" fill="none" xmlns="http://www.w3.org/2000/svg">
<path d="M15 14.5045V6.60022V6.59749C15 5.66589 15 5.1998 14.8185 4.84363C14.6587 4.53002 14.4034 4.27504 14.0898 4.11525C13.7333 3.93359 13.2669 3.93359 12.3335 3.93359H7.66683C6.73341 3.93359 6.26635 3.93359 5.90983 4.11525C5.59623 4.27504 5.34144 4.53002 5.18166 4.84363C5 5.20015 5 5.6668 5 6.60022V14.5045C5 15.6387 5 16.2059 5.1701 16.5529C5.48537 17.1962 6.17631 17.566 6.88639 17.4715C7.2695 17.4205 7.74136 17.106 8.68508 16.4768L8.68692 16.4756C9.06126 16.226 9.24857 16.1012 9.44431 16.032C9.80369 15.905 10.1956 15.905 10.555 16.032C10.7511 16.1013 10.9389 16.2265 11.3144 16.4769C12.2582 17.106 12.7307 17.4205 13.1138 17.4715C13.8239 17.566 14.5146 17.1962 14.8299 16.5529C15 16.2059 15 15.6388 15 14.5048V14.5045Z" fill="#9CA8B9" stroke="#9CA8B9" stroke-width="1.5" stroke-linecap="round" stroke-linejoin="round"/>
</svg>
