<svg width="20" height="20" viewBox="0 0 20 20" fill="none" xmlns="http://www.w3.org/2000/svg">
<path d="M12.9827 2.81766L14.6494 3.69228C16.4424 4.63323 17.339 5.10371 17.8368 5.94913C18.3346 6.79456 18.3346 7.84657 18.3346 9.95061V10.0481C18.3346 12.1521 18.3346 13.2041 17.8368 14.0496C17.339 14.895 16.4424 15.3655 14.6494 16.3064L12.9827 17.181C11.5197 17.9488 10.7882 18.3327 10.0013 18.3327C9.21441 18.3327 8.4829 17.9488 7.01988 17.181L5.35321 16.3064C3.56016 15.3655 2.66363 14.895 2.1658 14.0496C1.66797 13.2041 1.66797 12.1521 1.66797 10.0481V9.95061C1.66797 7.84657 1.66797 6.79456 2.1658 5.94913C2.66363 5.10371 3.56016 4.63323 5.35321 3.69228L7.01988 2.81765C8.4829 2.04989 9.21441 1.66602 10.0013 1.66602C10.7882 1.66602 11.5197 2.0499 12.9827 2.81766Z" stroke="#767994" stroke-width="1.3" stroke-linecap="round"/>
<path d="M17.5 6.25L10 10M10 10L2.5 6.25M10 10V17.9167" stroke="#767994" stroke-width="1.3" stroke-linecap="round"/>
</svg>
