<svg viewBox="0 0 24 24" fill="none" xmlns="http://www.w3.org/2000/svg">
  <g clip-path="url(#clip0_405_1624)">
    <path d="M7.2 17.744L12 12.944L16.8 17.744L17.744 16.8L12.944 12L17.744 7.2L16.8 6.256L12 11.056L7.2 6.256L6.256 7.2L11.056 12L6.256 16.8L7.2 17.744ZM12.004 24C10.3453 24 8.78533 23.6853 7.324 23.056C5.86356 22.4258 4.59289 21.5707 3.512 20.4907C2.43111 19.4116 1.57556 18.1422 0.945334 16.6827C0.315111 15.2231 0 13.6636 0 12.004C0 10.3453 0.314667 8.78533 0.944 7.324C1.57422 5.86356 2.42933 4.59289 3.50933 3.512C4.58844 2.43111 5.85778 1.57556 7.31733 0.945334C8.77689 0.315111 10.3364 0 11.996 0C13.6547 0 15.2147 0.314667 16.676 0.944C18.1364 1.57422 19.4071 2.42933 20.488 3.50933C21.5689 4.58844 22.4244 5.85778 23.0547 7.31733C23.6849 8.77689 24 10.3364 24 11.996C24 13.6547 23.6853 15.2147 23.056 16.676C22.4258 18.1364 21.5707 19.4071 20.4907 20.488C19.4116 21.5689 18.1422 22.4244 16.6827 23.0547C15.2231 23.6849 13.6636 24 12.004 24Z" fill="black"/>
  </g>
</svg>
