<svg width="20" height="20" viewBox="0 0 16 16" fill="none" xmlns="http://www.w3.org/2000/svg">
<g clip-path="url(#clip0_3822_26438)">
<path d="M7.99998 14.6673C4.85728 14.6673 3.28593 14.6673 2.30962 13.691C1.33331 12.7147 1.33331 11.1433 1.33331 8.00065C1.33331 4.85795 1.33331 3.28661 2.30962 2.3103C3.28593 1.33398 4.85728 1.33398 7.99998 1.33398C11.1427 1.33398 12.714 1.33398 13.6903 2.31029C14.6666 3.28661 14.6666 4.85795 14.6666 8.00065C14.6666 11.1433 14.6666 12.7147 13.6903 13.691C12.714 14.6673 11.1427 14.6673 7.99998 14.6673Z" stroke="#767994" stroke-width="1.3"/>
<path d="M3.66669 5.83756C3.66669 4.63825 4.71136 3.66602 6.00002 3.66602C7.28868 3.66602 8.33335 4.63825 8.33335 5.83756C8.33335 7.02747 7.58863 8.41599 6.42671 8.91254C6.15585 9.02829 5.8442 9.02829 5.57333 8.91254C4.41141 8.41599 3.66669 7.02747 3.66669 5.83756Z" stroke="#767994" stroke-width="1.3"/>
<path d="M9.33361 9.33289L13.6669 13.6662M9.33361 9.33289L4.263 14.4035M9.33361 9.33289L14.4048 4.26172" stroke="#767994" stroke-width="1.3" stroke-linecap="round"/>
<path d="M6.66665 6.00065C6.66665 6.36884 6.36817 6.66732 5.99998 6.66732C5.63179 6.66732 5.33331 6.36884 5.33331 6.00065C5.33331 5.63246 5.63179 5.33398 5.99998 5.33398C6.36817 5.33398 6.66665 5.63246 6.66665 6.00065Z" fill="#767994"/>
</g>
<defs>
<clipPath id="clip0_3822_26438">
<rect width="20" height="20" fill="white"/>
</clipPath>
</defs>
</svg>
