<svg xmlns="http://www.w3.org/2000/svg" viewBox="0 0 16 16" fill="none">
  <path d="M2 6.66634C2 4.15218 2 2.8951 2.78105 2.11406C3.5621 1.33301 4.81918 1.33301 7.33333 1.33301H8.66667C11.1808 1.33301 12.4379 1.33301 13.219 2.11406C14 2.8951 14 4.15218 14 6.66634V9.33301C14 11.8472 14 13.1042 13.219 13.8853C12.4379 14.6663 11.1808 14.6663 8.66667 14.6663H7.33333C4.81918 14.6663 3.5621 14.6663 2.78105 13.8853C2 13.1042 2 11.8472 2 9.33301V6.66634Z" stroke="#767994" stroke-width="1.3"/>
  <path d="M7.99984 4L7.99984 5.33333M7.99984 5.33333L7.99984 6.66667M7.99984 5.33333H6.66649M7.99984 5.33333L9.33316 5.33333" stroke="#767994" stroke-width="1.3" stroke-linecap="round"/>
  <path d="M5.3335 9.33301H10.6668" stroke="#767994" stroke-width="1.3" stroke-linecap="round"/>
  <path d="M6 12L10 12" stroke="#767994" stroke-width="1.3" stroke-linecap="round"/>
</svg>
