<svg xmlns="http://www.w3.org/2000/svg" viewBox="0 0 12 12" fill="none">
  <path d="M2.00019 2L10.0002 10M8.25019 8.37799C7.57389 8.74231 6.8095 8.99999 6.00019 8.99999C4.23486 8.99999 2.68336 7.77395 1.79365 6.88943C1.55879 6.65596 1.44139 6.53923 1.36664 6.31009C1.31334 6.14667 1.31332 5.85319 1.36664 5.68978C1.44141 5.46064 1.55906 5.3437 1.79438 5.1098C2.24282 4.66407 2.85925 4.13177 3.58634 3.71335M9.75019 7.31682C9.91671 7.17036 10.0692 7.02626 10.2061 6.89023C10.4414 6.65631 10.559 6.53935 10.6338 6.31021C10.6871 6.1468 10.6873 5.85335 10.634 5.68993C10.5593 5.46078 10.4417 5.34403 10.2069 5.11055C9.31717 4.22604 7.76552 3 6.00019 3C5.83144 3 5.66464 3.0112 5.50019 3.03224M6.66165 6.74997C6.48536 6.90556 6.2538 6.99997 6.00019 6.99997C5.44791 6.99997 5.00019 6.55225 5.00019 5.99997C5.00019 5.73022 5.107 5.48542 5.28063 5.30554" stroke="white" stroke-width="1.3" stroke-linecap="round" stroke-linejoin="round"/>
</svg>
