<svg width="20" height="20" viewBox="0 0 20 20" fill="none" xmlns="http://www.w3.org/2000/svg">
<path d="M8.12484 9.9987C8.12484 8.96316 8.9643 8.1237 9.99984 8.1237C11.0354 8.1237 11.8748 8.96316 11.8748 9.9987C11.8748 11.0342 11.0354 11.8737 9.99984 11.8737C8.9643 11.8737 8.12484 11.0342 8.12484 9.9987Z" fill="#9CA8B9"/>
<path fill-rule="evenodd" clip-rule="evenodd" d="M1.6665 9.9987C1.6665 11.3648 2.02064 11.8249 2.72891 12.7451C4.14314 14.5824 6.51493 16.6654 9.99984 16.6654C13.4847 16.6654 15.8565 14.5824 17.2708 12.7451C17.979 11.8249 18.3332 11.3648 18.3332 9.9987C18.3332 8.63255 17.979 8.17247 17.2708 7.25231C15.8565 5.415 13.4847 3.33203 9.99984 3.33203C6.51493 3.33203 4.14314 5.415 2.72891 7.25231C2.02064 8.17247 1.6665 8.63255 1.6665 9.9987ZM9.99984 6.8737C8.27395 6.8737 6.87484 8.27281 6.87484 9.9987C6.87484 11.7246 8.27395 13.1237 9.99984 13.1237C11.7257 13.1237 13.1248 11.7246 13.1248 9.9987C13.1248 8.27281 11.7257 6.8737 9.99984 6.8737Z" fill="#9CA8B9"/>
</svg>
