<svg xmlns="http://www.w3.org/2000/svg" viewBox="0 0 16 16" fill="none">
  <g clip-path="url(#clip0_2031_31509)">
    <path d="M10.2626 2.70308L9.86123 3.14906V3.14906L10.2626 2.70308ZM12.9018 5.07835L12.5004 5.52432L12.9018 5.07835ZM14.4367 6.77005L13.8885 7.01415V7.01415L14.4367 6.77005ZM2.11503 13.8863L2.5393 13.462H2.5393L2.11503 13.8863ZM13.8863 13.8863L13.462 13.462L13.8863 13.8863ZM9.33398 14.0673H6.66732V15.2673H9.33398V14.0673ZM1.93398 9.33398V6.66732H0.733984V9.33398H1.93398ZM14.0673 9.04258V9.33398H15.2673V9.04258H14.0673ZM9.86123 3.14906L12.5004 5.52432L13.3032 4.63237L10.664 2.25711L9.86123 3.14906ZM15.2673 9.04258C15.2673 7.92584 15.2794 7.1876 14.9847 6.52594L13.8885 7.01415C14.0552 7.38835 14.0673 7.81985 14.0673 9.04258H15.2673ZM12.5004 5.52432C13.4093 6.34229 13.7219 6.63995 13.8885 7.01415L14.9847 6.52595C14.6901 5.86428 14.1332 5.37943 13.3032 4.63237L12.5004 5.52432ZM6.68718 1.93398C7.74928 1.93398 8.12515 1.94325 8.45851 2.07117L8.88842 0.950824C8.29921 0.724721 7.65841 0.733984 6.68718 0.733984V1.93398ZM10.664 2.25711C9.94558 1.61053 9.47755 1.17689 8.88842 0.950824L8.45851 2.07117C8.79195 2.19912 9.07583 2.4422 9.86123 3.14906L10.664 2.25711ZM6.66732 14.0673C5.39328 14.0673 4.49811 14.066 3.82121 13.975C3.16157 13.8863 2.79976 13.7225 2.5393 13.462L1.69077 14.3105C2.21135 14.8311 2.86861 15.0578 3.66131 15.1643C4.43675 15.2686 5.4272 15.2673 6.66732 15.2673V14.0673ZM0.733984 9.33398C0.733984 10.5741 0.73271 11.5645 0.836966 12.34C0.943542 13.1327 1.17018 13.7899 1.69077 14.3105L2.5393 13.462C2.27883 13.2015 2.11495 12.8397 2.02627 12.1801C1.93526 11.5032 1.93398 10.608 1.93398 9.33398H0.733984ZM9.33398 15.2673C10.5741 15.2673 11.5645 15.2686 12.34 15.1643C13.1327 15.0578 13.7899 14.8311 14.3105 14.3105L13.462 13.462C13.2015 13.7225 12.8397 13.8863 12.1801 13.975C11.5032 14.066 10.608 14.0673 9.33398 14.0673V15.2673ZM14.0673 9.33398C14.0673 10.608 14.066 11.5032 13.975 12.1801C13.8863 12.8397 13.7225 13.2015 13.462 13.462L14.3105 14.3105C14.8311 13.7899 15.0578 13.1327 15.1643 12.34C15.2686 11.5645 15.2673 10.5741 15.2673 9.33398H14.0673ZM1.93398 6.66732C1.93398 5.39328 1.93526 4.49811 2.02627 3.82121C2.11495 3.16157 2.27883 2.79976 2.5393 2.5393L1.69077 1.69077C1.17018 2.21135 0.943542 2.86861 0.836966 3.66131C0.73271 4.43675 0.733984 5.4272 0.733984 6.66732H1.93398ZM6.68718 0.733984C5.44039 0.733984 4.44517 0.732721 3.66663 0.836918C2.87129 0.943364 2.21182 1.16972 1.69077 1.69077L2.5393 2.5393C2.79929 2.2793 3.1622 2.11513 3.82582 2.02631C4.50624 1.93525 5.40657 1.93398 6.68718 1.93398V0.733984Z" fill="#767994"/>
    <path d="M8.66602 1.66602V3.33268C8.66602 4.90403 8.66602 5.68971 9.15417 6.17786C9.64233 6.66602 10.428 6.66602 11.9993 6.66602H14.666" stroke="#767994" stroke-width="1.2"/>
    <path d="M4 11L4.88889 12L6.66667 10" stroke="#767994" stroke-width="1.2" stroke-linecap="round" stroke-linejoin="round"/>
  </g>
  <defs>
    <clipPath id="clip0_2031_31509">
      <rect width="16" height="16" fill="white"/>
    </clipPath>
  </defs>
</svg>
