
<svg viewBox="0 0 18 18" fill="none" xmlns="http://www.w3.org/2000/svg">
<path fill-rule="evenodd" clip-rule="evenodd" d="M10.667 17.3333H7.33366C4.19096 17.3333 2.61961 17.3333 1.6433 16.357C0.666992 15.3807 0.666992 13.8093 0.666992 10.6666V7.33329C0.666992 4.1906 0.666992 2.61925 1.6433 1.64294C2.61961 0.666626 4.19924 0.666626 7.35849 0.666626C7.86349 0.666626 8.26816 0.666626 8.60866 0.68051C8.59746 0.74712 8.59158 0.815066 8.59135 0.883764L8.58365 3.24577C8.58358 4.16002 8.58352 4.96799 8.67108 5.61926C8.76599 6.32519 8.98391 7.03101 9.55997 7.60707C10.136 8.18313 10.8419 8.40105 11.5478 8.49596C12.199 8.58352 13.007 8.58346 13.9213 8.58339L14.0003 8.58338H17.2982C17.3337 9.0286 17.3337 9.57504 17.3337 10.3024V10.6666C17.3337 13.8093 17.3337 15.3807 16.3573 16.357C15.381 17.3333 13.8097 17.3333 10.667 17.3333ZM3.37533 11.0833C3.37533 10.7381 3.65515 10.4583 4.00033 10.4583H10.667C11.0122 10.4583 11.292 10.7381 11.292 11.0833C11.292 11.4285 11.0122 11.7083 10.667 11.7083H4.00033C3.65515 11.7083 3.37533 11.4285 3.37533 11.0833ZM3.37533 14C3.37533 13.6548 3.65515 13.375 4.00033 13.375H8.58366C8.92884 13.375 9.20866 13.6548 9.20866 14C9.20866 14.3451 8.92884 14.625 8.58366 14.625H4.00033C3.65515 14.625 3.37533 14.3451 3.37533 14Z" fill="#2F78ED"/>
<path d="M15.1268 5.34717L11.8278 2.37809C10.8879 1.53219 10.418 1.10925 9.84134 0.88798L9.83366 3.16671C9.83366 5.1309 9.83366 6.11299 10.4439 6.72319C11.054 7.33338 12.0361 7.33338 14.0003 7.33338H16.9837C16.6816 6.74653 16.1406 6.25966 15.1268 5.34717Z" fill="#2F78ED"/>
</svg>
