<svg xmlns="http://www.w3.org/2000/svg" viewBox="0 0 16 16" fill="none">
  <path fill-rule="evenodd" clip-rule="evenodd" d="M9.3335 14.6663H6.66683C4.15267 14.6663 2.89559 14.6663 2.11454 13.8853C1.3335 13.1042 1.3335 11.8472 1.3335 9.33301V6.66634C1.3335 4.15218 1.3335 2.89511 2.11454 2.11406C2.89559 1.33301 4.15929 1.33301 6.68669 1.33301C7.09069 1.33301 7.41443 1.33301 7.68683 1.34412C7.67787 1.3974 7.67317 1.45176 7.67298 1.50672L7.66683 3.39632C7.66677 4.12772 7.66672 4.7741 7.73677 5.29511C7.81269 5.85986 7.98703 6.42452 8.44788 6.88536C8.90872 7.34621 9.47338 7.52055 10.0381 7.59648C10.5591 7.66652 11.2055 7.66647 11.9369 7.66642L12.0002 7.66641H14.6384C14.6668 8.02259 14.6668 8.45974 14.6668 9.04161V9.33301C14.6668 11.8472 14.6668 13.1042 13.8858 13.8853C13.1047 14.6663 11.8477 14.6663 9.3335 14.6663ZM3.50016 9.66634C3.50016 9.3902 3.72402 9.16634 4.00016 9.16634H9.3335C9.60964 9.16634 9.8335 9.3902 9.8335 9.66634C9.8335 9.94248 9.60964 10.1663 9.3335 10.1663H4.00016C3.72402 10.1663 3.50016 9.94248 3.50016 9.66634ZM3.50016 11.9997C3.50016 11.7235 3.72402 11.4997 4.00016 11.4997H7.66683C7.94297 11.4997 8.16683 11.7235 8.16683 11.9997C8.16683 12.2758 7.94297 12.4997 7.66683 12.4997H4.00016C3.72402 12.4997 3.50016 12.2758 3.50016 11.9997Z" fill="#ADB7C2"/>
  <path d="M12.9013 5.07744L10.2621 2.70218C9.51022 2.02546 9.13426 1.6871 8.67298 1.51009L8.66683 3.33308C8.66683 4.90443 8.66683 5.6901 9.15498 6.17826C9.64314 6.66641 10.4288 6.66641 12.0002 6.66641H14.3869C14.1452 6.19693 13.7124 5.80744 12.9013 5.07744Z" fill="#ADB7C2"/>
</svg>
