<svg viewBox="0 0 14 14" fill="none" xmlns="http://www.w3.org/2000/svg">
  <path d="M7 12.3333H11.2667C11.64 12.3333 11.827 12.3333 11.9696 12.2607C12.095 12.1967 12.1965 12.0948 12.2604 11.9693C12.3331 11.8267 12.3333 11.64 12.3333 11.2666V8.06665C12.3333 7.69328 12.3331 7.50662 12.2604 7.36401C12.1965 7.23857 12.095 7.13658 11.9696 7.07266C11.827 7 11.6398 7 11.2664 7H8.06641M7 12.3333V8.06665M7 12.3333H2.73307C2.3597 12.3333 2.17321 12.3333 2.0306 12.2607C1.90516 12.1967 1.80324 12.0948 1.73933 11.9693C1.66667 11.8267 1.66667 11.64 1.66667 11.2666V8.06665C1.66667 7.69328 1.66667 7.50662 1.73933 7.36401C1.80324 7.23857 1.90516 7.13658 2.0306 7.07266C2.17321 7 2.3597 7 2.73307 7H5.93307M7 8.06665C7 7.69328 7 7.50662 7.07266 7.36401C7.13658 7.23857 7.23849 7.13658 7.36393 7.07266C7.50654 7 7.69304 7 8.06641 7M7 8.06665C7 7.69328 6.99975 7.50662 6.92708 7.36401C6.86317 7.23857 6.7617 7.13658 6.63625 7.07266C6.49365 7 6.30644 7 5.93307 7M8.06641 7H11.9331C12.3064 7 12.4936 6.99999 12.6363 6.92733C12.7617 6.86341 12.8632 6.76145 12.9271 6.63601C12.9997 6.4934 13 6.30669 13 5.93332V5.39998C13 5.02662 12.9997 4.83995 12.9271 4.69735C12.8632 4.57191 12.7617 4.46991 12.6363 4.406C12.4936 4.33333 12.3064 4.33333 11.9331 4.33333H8.06641C7.69304 4.33333 7.50654 4.33333 7.36393 4.406C7.23849 4.46991 7.13658 4.57191 7.07266 4.69735C7 4.83995 7 5.02662 7 5.39998M8.06641 7C7.69304 7 7.50654 6.99999 7.36393 6.92733C7.23849 6.86341 7.13658 6.76145 7.07266 6.63601C7 6.4934 7 6.30669 7 5.93332M5.93307 7H2.06641C1.69304 7 1.50654 6.99999 1.36393 6.92733C1.23849 6.86341 1.13658 6.76145 1.07266 6.63601C1 6.4934 1 6.30669 1 5.93332V5.39998C1 5.02662 1 4.83995 1.07266 4.69735C1.13658 4.57191 1.23849 4.46991 1.36393 4.406C1.50654 4.33333 1.69304 4.33333 2.06641 4.33333H5.93307C6.30644 4.33333 6.49365 4.33333 6.63625 4.406C6.7617 4.46991 6.86317 4.57191 6.92708 4.69735C6.99975 4.83995 7 5.02662 7 5.39998M5.93307 7C6.30644 7 6.49365 6.99999 6.63625 6.92733C6.7617 6.86341 6.86317 6.76145 6.92708 6.63601C6.99975 6.4934 7 6.30669 7 5.93332M7 5.93332V5.39998M7 2.66667V4.33333M7 2.66667C7 1.74619 7.74619 1 8.66667 1C9.58714 1 10.3333 1.74619 10.3333 2.66667C10.3333 3.58714 9.58714 4.33333 8.66667 4.33333H7M7 2.66667C7 1.74619 6.25381 1 5.33333 1C4.41286 1 3.66667 1.74619 3.66667 2.66667C3.66667 3.58714 4.41286 4.33333 5.33333 4.33333H7" stroke="#9CA8B9" stroke-width="1.5" stroke-linecap="round" stroke-linejoin="round"/>
</svg>
