<svg xmlns="http://www.w3.org/2000/svg" viewBox="0 0 40 40">
  <path fill-rule="evenodd" clip-rule="evenodd" d="M36.6668 20C36.6668 10.7952 29.2049 3.33331 20.0002 3.33331C10.7954 3.33331 3.3335 10.7952 3.3335 20C3.3335 29.2047 10.7954 36.6666 20.0002 36.6666C29.2049 36.6666 36.6668 29.2047 36.6668 20ZM20.0002 10.4166C20.6905 10.4166 21.2502 10.9763 21.2502 11.6666V21.6666C21.2502 22.357 20.6905 22.9166 20.0002 22.9166C19.3098 22.9166 18.7502 22.357 18.7502 21.6666V11.6666C18.7502 10.9763 19.3098 10.4166 20.0002 10.4166ZM20.0002 28.3333C20.9206 28.3333 21.6668 27.5871 21.6668 26.6666C21.6668 25.7462 20.9206 25 20.0002 25C19.0797 25 18.3335 25.7462 18.3335 26.6666C18.3335 27.5871 19.0797 28.3333 20.0002 28.3333Z"/>
</svg>
