<svg viewBox="0 0 30 24" fill="none" xmlns="http://www.w3.org/2000/svg">
<path fill-rule="evenodd" clip-rule="evenodd" d="M0.333252 22.9867C0.333252 22.427 0.791379 21.9733 1.35651 21.9733H28.6433C29.2085 21.9733 29.6666 22.427 29.6666 22.9867C29.6666 23.5463 29.2085 24 28.6433 24H1.35651C0.791379 24 0.333252 23.5463 0.333252 22.9867Z" fill="#F3335C"/>
<path fill-rule="evenodd" clip-rule="evenodd" d="M3.91967 1.18719C2.72085 2.37439 2.72085 4.28515 2.72085 8.10667V14.8622C2.72085 17.4099 2.72085 18.6837 3.52006 19.4752C4.31927 20.2667 5.60559 20.2667 8.17821 20.2667H21.8216C24.3943 20.2667 25.6806 20.2667 26.4798 19.4752C27.279 18.6837 27.279 17.4099 27.279 14.8622V8.10667C27.279 4.28515 27.279 2.37439 26.0802 1.18719C24.8814 0 22.9519 0 19.0929 0H10.9069C7.04796 0 5.11849 0 3.91967 1.18719ZM9.88364 16.2133C9.88364 15.6537 10.3418 15.2 10.9069 15.2H19.0929C19.6581 15.2 20.1162 15.6537 20.1162 16.2133C20.1162 16.773 19.6581 17.2267 19.0929 17.2267H10.9069C10.3418 17.2267 9.88364 16.773 9.88364 16.2133Z" fill="#F3335C"/>
</svg>
