<svg xmlns="http://www.w3.org/2000/svg" viewBox="0 0 16 16" fill="none">
  <path d="M12.12 5.35988L12.429 5.05092C12.9409 4.53902 13.7708 4.53902 14.2827 5.05092C14.7946 5.56282 14.7946 6.39278 14.2827 6.90468L13.9738 7.21364M12.12 5.35988C12.12 5.35988 12.1586 6.01642 12.7379 6.59572C13.3172 7.17502 13.9738 7.21364 13.9738 7.21364M12.12 5.35988L9.27961 8.20029C9.08722 8.39268 8.99103 8.48887 8.9083 8.59494C8.81071 8.72005 8.72705 8.85543 8.65878 8.99867C8.60091 9.12009 8.55789 9.24915 8.47185 9.50727L8.19639 10.3337L8.10727 10.601M13.9738 7.21364L11.1334 10.0541C10.941 10.2464 10.8448 10.3426 10.7387 10.4254C10.6136 10.5229 10.4782 10.6066 10.335 10.6749C10.2136 10.7327 10.0845 10.7758 9.82639 10.8618L9 11.1373L8.73264 11.2264M8.73264 11.2264L8.46528 11.3155C8.33826 11.3578 8.19822 11.3248 8.10354 11.2301C8.00887 11.1354 7.97581 10.9954 8.01815 10.8684L8.10727 10.601M8.73264 11.2264L8.10727 10.601" stroke="#767994" stroke-width="1.3"/>
  <path d="M5.33301 8.66699H6.99967" stroke="#767994" stroke-width="1.3" stroke-linecap="round"/>
  <path d="M5.33301 6H9.66634" stroke="#767994" stroke-width="1.3" stroke-linecap="round"/>
  <path d="M5.33301 11.333H6.33301" stroke="#767994" stroke-width="1.3" stroke-linecap="round"/>
  <path d="M13.219 2.11406C12.4379 1.33301 11.1808 1.33301 8.66667 1.33301H7.33333C4.81918 1.33301 3.5621 1.33301 2.78105 2.11406C2 2.8951 2 4.15218 2 6.66634V9.33301C2 11.8472 2 13.1042 2.78105 13.8853C3.5621 14.6663 4.81918 14.6663 7.33333 14.6663H8.66667C11.1808 14.6663 12.4379 14.6663 13.219 13.8853C13.8477 13.2566 13.9703 12.3194 13.9942 10.6663" stroke="#767994" stroke-width="1.3" stroke-linecap="round"/>
</svg>
