<svg xmlns="http://www.w3.org/2000/svg" viewBox="0 0 16 16" fill="none">
  <path d="M10.6667 2.66797C12.1167 2.67604 12.902 2.74034 13.4142 3.2526C14 3.83838 14 4.78119 14 6.66681V10.6668C14 12.5524 14 13.4952 13.4142 14.081C12.8284 14.6668 11.8856 14.6668 10 14.6668H6C4.11438 14.6668 3.17157 14.6668 2.58579 14.081C2 13.4952 2 12.5524 2 10.6668V6.66681C2 4.78119 2 3.83838 2.58579 3.2526C3.09804 2.74034 3.88332 2.67604 5.33333 2.66797" stroke="#767994" stroke-width="1.3"/>
  <path d="M5.33301 9.33301H10.6663" stroke="#767994" stroke-width="1.3" stroke-linecap="round"/>
  <path d="M4.66699 7H11.3337" stroke="#767994" stroke-width="1.3" stroke-linecap="round"/>
  <path d="M6 11.667H10" stroke="#767994" stroke-width="1.3" stroke-linecap="round"/>
  <path d="M5.33301 2.33301C5.33301 1.78072 5.78072 1.33301 6.33301 1.33301H9.66634C10.2186 1.33301 10.6663 1.78072 10.6663 2.33301V2.99967C10.6663 3.55196 10.2186 3.99967 9.66634 3.99967H6.33301C5.78072 3.99967 5.33301 3.55196 5.33301 2.99967V2.33301Z" stroke="#767994" stroke-width="1.3"/>
</svg>