<svg width="20" height="20" viewBox="0 0 16 16" fill="none" xmlns="http://www.w3.org/2000/svg">
<path d="M2 5.80625C2 4.82389 2 4.33271 2.26176 4.04623C2.3547 3.94452 2.46765 3.86311 2.59353 3.80711C2.94808 3.64937 3.41406 3.8047 4.34601 4.11535C5.05751 4.35251 5.41326 4.4711 5.77274 4.45882C5.90476 4.45431 6.03601 4.43674 6.16457 4.40635C6.51461 4.32361 6.82662 4.1156 7.45065 3.69958L8.37223 3.08519C9.17158 2.55229 9.57126 2.28584 10.03 2.2244C10.4888 2.16296 10.9445 2.31486 11.8559 2.61866L12.6325 2.8775C13.2925 3.0975 13.6225 3.20751 13.8112 3.46939C14 3.73128 14 4.07914 14 4.77486V10.1938C14 11.1761 14 11.6673 13.7382 11.9538C13.6453 12.0555 13.5324 12.1369 13.4065 12.1929C13.0519 12.3507 12.5859 12.1953 11.654 11.8847C10.9425 11.6475 10.5867 11.5289 10.2273 11.5412C10.0952 11.5457 9.96399 11.5633 9.83543 11.5937C9.48539 11.6764 9.17338 11.8844 8.54935 12.3004L7.62777 12.9148C6.82842 13.4477 6.42874 13.7142 5.96995 13.7756C5.51116 13.8371 5.05546 13.6852 4.14406 13.3814L3.36754 13.1225C2.70753 12.9025 2.37752 12.7925 2.18876 12.5306C2 12.2687 2 11.9209 2 11.2252V5.80625Z" stroke="#767994" stroke-width="1.3"/>
<path d="M6 4.42578V13.6667" stroke="#767994" stroke-width="1.3"/>
<path d="M10 2V11.3333" stroke="#767994" stroke-width="1.3"/>
</svg>
