<svg viewBox="0 0 20 20" fill="none" xmlns="http://www.w3.org/2000/svg">
  <path fill-rule="evenodd" clip-rule="evenodd" d="M8.80099 1.875H8.80108H11.1999H11.2C11.2945 1.87499 11.3681 1.87498 11.4377 1.8792C12.3214 1.93272 13.0953 2.49046 13.4255 3.31188C13.4515 3.37662 13.4748 3.44651 13.5047 3.53623L13.5072 3.54379C13.5767 3.73077 13.7361 3.94338 13.9592 4.11324C13.984 4.13215 14.009 4.15 14.0339 4.16681C15.8288 4.1689 16.7657 4.20204 17.4115 4.72749C17.544 4.83528 17.6651 4.95636 17.7728 5.08883C18.3337 5.77808 18.3337 6.79898 18.3337 8.84078C18.3337 9.35888 18.3337 9.61793 18.208 9.82C18.1835 9.85937 18.1558 9.89662 18.1251 9.93137C17.9677 10.1098 17.7196 10.1842 17.2233 10.3331L13.3337 11.5V10.8333C13.3337 9.91286 12.5875 9.16667 11.667 9.16667H8.33366C7.41318 9.16667 6.66699 9.91286 6.66699 10.8333V11.5L2.77733 10.3331C2.28108 10.1842 2.03295 10.1098 1.8755 9.93137C1.84483 9.89662 1.81712 9.85937 1.79264 9.82C1.66699 9.61793 1.66699 9.35888 1.66699 8.84078C1.66699 6.79898 1.66699 5.77808 2.22781 5.08883C2.3356 4.95636 2.45668 4.83528 2.58915 4.72749C3.23493 4.20204 4.17184 4.1689 5.96677 4.16681C5.99172 4.14999 6.01667 4.13213 6.04152 4.11321C6.26473 3.94332 6.42411 3.7307 6.49356 3.54376C6.5252 3.44886 6.54885 3.37808 6.57546 3.31188C6.90569 2.49046 7.67951 1.93272 8.56321 1.8792C8.63284 1.87498 8.70644 1.87499 8.80099 1.875ZM12.3492 4.01509C12.3694 4.0664 12.3916 4.11695 12.4157 4.16667H7.58509C7.60915 4.11703 7.63132 4.06657 7.65145 4.01535L7.65274 4.01244L7.65621 4.00418L7.66028 3.99408L7.66409 3.98411L7.66713 3.97582L7.66861 3.97165L7.67214 3.96145L7.67533 3.95203L7.67708 3.94681L7.67935 3.93986L7.68122 3.934L7.68271 3.92918C7.71507 3.83227 7.72564 3.80205 7.73525 3.77813C7.88535 3.40476 8.23709 3.15124 8.63877 3.12691C8.66566 3.12528 8.69861 3.125 8.81809 3.125H11.1829C11.3023 3.125 11.3353 3.12528 11.3622 3.12691C11.7639 3.15124 12.1156 3.40476 12.2657 3.77813C12.2752 3.8017 12.2852 3.83081 12.318 3.92916L12.3195 3.93393L12.3214 3.93982L12.3237 3.94678L12.3254 3.952L12.3286 3.96139L12.3321 3.97157L12.3336 3.97574L12.3366 3.98401L12.3404 3.99393L12.3445 4.00393L12.3479 4.01207L12.3492 4.01509ZM11.667 10.418H8.33366C8.10354 10.418 7.91699 10.6045 7.91699 10.8346V12.6359C7.91699 12.8062 8.02072 12.9595 8.17891 13.0227L8.76236 13.2561C9.55706 13.574 10.4436 13.574 11.2383 13.2561L11.8217 13.0227C11.9799 12.9595 12.0837 12.8062 12.0837 12.6359V10.8346C12.0837 10.6045 11.8971 10.418 11.667 10.418ZM6.67564 12.8059L2.50488 11.5547C2.52996 14.1501 2.68158 16.5404 3.59826 17.3552C4.69661 18.3315 6.46438 18.3315 9.99991 18.3315C13.5354 18.3315 15.3032 18.3315 16.4016 17.3552C17.3182 16.5404 17.4699 14.1501 17.4949 11.5547L13.3244 12.8059C13.2608 13.4165 12.8643 13.9488 12.2857 14.1803L11.7022 14.4137C10.6095 14.8508 9.39051 14.8508 8.29779 14.4137L7.71435 14.1803C7.13567 13.9488 6.73918 13.4165 6.67564 12.8059Z" fill="#635AFF"/>
</svg>
