<svg xmlns="http://www.w3.org/2000/svg" viewBox="0 0 16 16" fill="none">
<path fill-rule="evenodd" clip-rule="evenodd" d="M2.30956 2.30932C1.33325 3.28563 1.33325 4.85698 1.33325 7.99967C1.33325 11.1424 1.33325 12.7137 2.30956 13.69C3.28587 14.6663 4.85722 14.6663 7.99992 14.6663C11.1426 14.6663 12.714 14.6663 13.6903 13.69C14.6666 12.7137 14.6666 11.1424 14.6666 7.99967C14.6666 4.85698 14.6666 3.28563 13.6903 2.30932C12.714 1.33301 11.1426 1.33301 7.99992 1.33301C4.85722 1.33301 3.28587 1.33301 2.30956 2.30932ZM6.63456 4.16634C6.34799 4.16629 6.08008 4.16625 5.8612 4.19895C5.61393 4.23589 5.35992 4.32321 5.15687 4.54882C4.96061 4.76688 4.89132 5.02674 4.86128 5.27497C4.83321 5.50698 4.83323 5.7946 4.83325 6.11937L4.83325 6.49967C4.83325 6.77582 5.05711 6.99967 5.33325 6.99967C5.60939 6.99967 5.83325 6.77582 5.83325 6.49967V6.14782C5.83325 5.78588 5.83411 5.55975 5.85404 5.39509C5.86339 5.31784 5.87507 5.27333 5.88452 5.24782C5.89249 5.22629 5.89818 5.21998 5.90007 5.21788L5.90061 5.21726C5.90152 5.21616 5.90219 5.21536 5.9082 5.21261C5.91928 5.20754 5.94771 5.19712 6.00894 5.18797C6.14502 5.16765 6.33666 5.16634 6.66658 5.16634H7.49992V10.833H6.33325C6.05711 10.833 5.83325 11.0569 5.83325 11.333C5.83325 11.6091 6.05711 11.833 6.33325 11.833H9.99992C10.2761 11.833 10.4999 11.6091 10.4999 11.333C10.4999 11.0569 10.2761 10.833 9.99992 10.833H8.49992V5.16634H9.33325C9.66318 5.16634 9.85482 5.16765 9.99089 5.18797C10.0521 5.19712 10.0806 5.20754 10.0916 5.21261C10.0976 5.21536 10.0983 5.21616 10.0992 5.21726L10.0997 5.21778C10.1016 5.21988 10.1073 5.22629 10.1153 5.24782C10.1248 5.27333 10.1364 5.31784 10.1458 5.39509C10.1657 5.55975 10.1666 5.78588 10.1666 6.14782V6.49967C10.1666 6.77582 10.3904 6.99967 10.6666 6.99967C10.9427 6.99967 11.1666 6.77582 11.1666 6.49967L11.1666 6.11936C11.1666 5.79459 11.1666 5.50698 11.1386 5.27497C11.1085 5.02674 11.0392 4.76689 10.843 4.54882C10.6399 4.32321 10.3859 4.23589 10.1386 4.19895C9.91976 4.16625 9.65184 4.16629 9.36527 4.16634H6.63456Z" fill="#635AFF"/>
</svg>
