<svg viewBox="0 0 17 16" fill="none" xmlns="http://www.w3.org/2000/svg">
  <path d="M10.8337 4.99935C10.8337 6.28801 9.78899 7.33268 8.50033 7.33268C7.21166 7.33268 6.16699 6.28801 6.16699 4.99935C6.16699 3.71068 7.21166 2.66602 8.50033 2.66602C9.78899 2.66602 10.8337 3.71068 10.8337 4.99935Z" fill="#79889B"/>
  <path d="M12.5 10.9993C12.5 12.288 10.7091 13.3327 8.5 13.3327C6.29086 13.3327 4.5 12.288 4.5 10.9993C4.5 9.71068 6.29086 8.66602 8.5 8.66602C10.7091 8.66602 12.5 9.71068 12.5 10.9993Z" fill="#79889B"/>
  <path d="M5.24771 3.33398C5.36601 3.33398 5.48151 3.34559 5.59304 3.36769C5.32134 3.85029 5.16634 4.40737 5.16634 5.00065C5.16634 5.57949 5.31388 6.12386 5.5734 6.59822C5.46797 6.61787 5.35909 6.62816 5.24771 6.62816C4.30476 6.62816 3.54036 5.89073 3.54036 4.98107C3.54036 4.07141 4.30476 3.33398 5.24771 3.33398Z" fill="#79889B"/>
  <path d="M4.13123 12.658C3.75262 12.2054 3.49967 11.65 3.49967 11.0007C3.49967 10.3712 3.73739 9.82998 4.09686 9.38514C2.82707 9.48363 1.83301 10.1781 1.83301 11.0202C1.83301 11.8703 2.84454 12.5699 4.13123 12.658Z" fill="#79889B"/>
  <path d="M11.833 5.00065C11.833 5.57949 11.6854 6.12386 11.4259 6.59823C11.5313 6.61787 11.6402 6.62816 11.7516 6.62816C12.6945 6.62816 13.4589 5.89073 13.4589 4.98107C13.4589 4.07141 12.6945 3.33398 11.7516 3.33398C11.6333 3.33398 11.5178 3.34559 11.4062 3.36769C11.678 3.85029 11.833 4.40737 11.833 5.00065Z" fill="#79889B"/>
  <path d="M12.8681 12.658C14.1548 12.5699 15.1663 11.8703 15.1663 11.0202C15.1663 10.1781 14.1722 9.48363 12.9024 9.38514C13.2619 9.82998 13.4996 10.3712 13.4996 11.0007C13.4996 11.65 13.2467 12.2054 12.8681 12.658Z" fill="#79889B"/>
</svg>
